<svg width="107" height="737" viewBox="0 0 107 737" fill="none" xmlns="http://www.w3.org/2000/svg">
<path d="M56.4 17.392C50.256 17.392 44.928 18.784 40.416 21.568C36 24.352 32.64 28 30.336 32.512C28.032 37.12 26.88 42.16 26.88 47.632C26.88 52.432 27.504 56.656 28.752 60.304C30 63.952 31.632 67.216 33.648 70.096C35.664 72.976 37.824 75.52 40.128 77.728L13.92 77.728C10.752 73.696 8.256 69.28 6.432 64.48C4.608 59.68 3.696 53.584 3.696 46.192C3.696 38.128 4.944 30.688 7.44 23.872C9.936 17.056 13.536 11.2 18.24 6.304C22.944 1.408 28.512 -2.384 34.944 -5.072C41.376 -7.76 48.528 -9.104 56.4 -9.104C64.272 -9.104 71.424 -7.76 77.856 -5.072C84.288 -2.384 89.856 1.408 94.56 6.304C99.264 11.2 102.864 17.056 105.36 23.872C107.856 30.688 109.104 38.128 109.104 46.192C109.104 53.584 108.192 59.68 106.368 64.48C104.544 69.28 102.048 73.696 98.88 77.728L72.672 77.728C74.976 75.52 77.136 72.976 79.152 70.096C81.264 67.216 82.896 63.952 84.048 60.304C85.296 56.656 85.92 52.432 85.92 47.632C85.92 42.16 84.768 37.12 82.464 32.512C80.16 28 76.8 24.352 72.384 21.568C67.968 18.784 62.64 17.392 56.4 17.392ZM25.44 108.475L44.016 110.203L44.016 160.171L25.44 161.755L25.44 108.475ZM69.792 134.827L37.248 120.715L31.92 121.867L5.99999 109.339L6 81.8354L113.136 134.827L5.99999 187.963L5.99999 160.315L30.912 148.219L37.104 149.083L69.792 134.827ZM106.8 195.646L106.8 219.982L26.88 219.982L26.88 260.446L5.99999 260.446L5.99999 195.646L106.8 195.646ZM5.99999 284.972L26.016 284.972L26.016 335.804L5.99998 335.804L5.99999 284.972ZM86.784 284.972L106.8 284.972L106.8 335.804L86.784 335.804L86.784 284.972ZM49.2 284.972L68.784 284.972L68.784 332.924L49.2 332.924L49.2 284.972ZM106.8 268.844L106.8 292.172L5.99999 292.172L5.99999 268.844L106.8 268.844ZM106.8 422.282L106.8 445.754L0.95998 445.754L62.736 376.058L5.99998 376.058L5.99998 352.73L111.84 352.73L50.064 422.282L106.8 422.282ZM106.8 464.178L106.8 489.234L5.99998 489.234L5.99998 464.178L106.8 464.178ZM5.99998 500.178L5.99998 480.306L27.6 480.306L27.6 499.314C27.6 503.154 28.08 506.85 29.04 510.402C30 514.05 31.584 517.218 33.792 519.906C36 522.69 38.928 524.898 42.576 526.53C46.32 528.162 50.928 528.978 56.4 528.978C61.872 528.978 66.432 528.162 70.08 526.53C73.824 524.898 76.8 522.69 79.008 519.906C81.216 517.218 82.8 514.05 83.76 510.402C84.72 506.85 85.2 503.154 85.2 499.314L85.2 480.306L106.8 480.306L106.8 500.178C106.8 511.218 104.736 520.77 100.608 528.834C96.48 536.898 90.672 543.138 83.184 547.554C75.696 551.97 66.768 554.178 56.4 554.178C46.128 554.178 37.2 551.97 29.616 547.554C22.128 543.138 16.32 536.898 12.192 528.834C8.06398 520.77 5.99998 511.218 5.99998 500.178ZM25.44 578.388L44.016 580.116L44.016 630.084L25.44 631.668L25.44 578.388ZM69.792 604.74L37.248 590.628L31.92 591.78L5.99997 579.252L5.99998 551.748L113.136 604.74L5.99997 657.876L5.99997 630.228L30.912 618.132L37.104 618.996L69.792 604.74ZM51.648 690.759L51.648 715.959L5.99997 747.495L5.99997 718.983L51.648 690.759ZM106.8 665.559L106.8 689.895L5.99997 689.895L5.99997 665.559L106.8 665.559ZM86.208 680.823L106.8 680.823L106.8 702.279C106.8 710.919 105.408 718.119 102.624 723.879C99.84 729.639 95.952 734.007 90.96 736.983C86.064 739.959 80.352 741.447 73.824 741.447C67.392 741.447 61.68 739.959 56.688 736.983C51.792 734.007 47.952 729.639 45.168 723.879C42.384 718.119 40.992 710.919 40.992 702.279L40.992 680.823L59.856 680.823L59.856 700.551C59.856 703.815 60.336 706.599 61.296 708.903C62.352 711.303 63.84 713.127 65.76 714.375C67.776 715.623 70.176 716.247 72.96 716.247C75.744 716.247 78.096 715.623 80.016 714.375C82.032 713.127 83.568 711.303 84.624 708.903C85.68 706.599 86.208 703.815 86.208 700.551L86.208 680.823Z" fill="#EACD74"/>
</svg>
