<svg width="192" height="1013" viewBox="0 0 192 1013" fill="none" xmlns="http://www.w3.org/2000/svg">
<path d="M127.605 -60.5782C145.328 -50.3192 159.42 -36.3628 169.881 -18.7426C180.375 -1.15572 185.605 17.93 185.605 38.4814C185.605 59.0328 180.375 78.1186 169.881 95.7055C159.387 113.292 145.295 127.349 127.605 137.841C109.882 148.333 90.859 153.562 70.5038 153.562C50.1486 153.562 30.593 148.333 13.1029 137.841C-4.38723 127.349 -18.3127 113.326 -28.5736 95.7055C-38.8678 78.0853 -43.9982 59.0328 -43.9982 38.4814C-43.9982 17.93 -38.8678 -1.42221 -28.5736 -18.9092C-18.3127 -36.4295 -4.42055 -50.3192 13.1029 -60.5782C30.593 -70.8705 49.7488 -76 70.5038 -76C91.2587 -76 109.882 -70.8705 127.605 -60.5782ZM34.4575 -20.9077C23.4637 -14.7123 14.7686 -6.25195 8.33891 4.44009C1.94252 15.1321 -1.28898 26.99 -1.28898 40.0136C-1.28898 53.0373 1.9092 64.129 8.33891 74.5213C14.7686 84.9135 23.3971 93.0408 34.2909 98.9364C45.1848 104.832 57.2446 107.796 70.4705 107.796C83.6963 107.796 96.1226 104.732 107.116 98.6366C118.11 92.5412 126.805 84.2473 133.235 73.7552C139.631 63.263 142.863 51.6383 142.863 38.8145C142.863 25.9907 139.665 14.3327 133.235 3.87385C126.839 -6.61833 118.11 -14.9122 107.116 -21.0076C96.1226 -27.1031 83.9295 -30.1675 70.4705 -30.1675C57.0114 -30.1675 45.4513 -27.0698 34.4575 -20.8411L34.4575 -20.9077Z" fill="#F7F7F7"/>
<path d="M-41.5679 386.789L-41.5679 342.522L49.7139 342.522L49.7139 242.097L-41.5679 242.097L-41.5679 197.83L183.172 197.83L183.172 242.097L92.4897 242.097L92.4897 342.522L183.172 342.522L183.172 386.789L-41.5679 386.789Z" fill="#F7F7F7"/>
<path d="M2.40708 555.897L2.40709 481.419L-41.5681 463.099L-41.5681 419.432L192 520.789L192 523.221L-41.5681 624.579L-41.5681 573.284L2.40708 555.897ZM39.6527 541.241L94.3218 519.557L39.6527 496.974L39.6527 541.241Z" fill="#F7F7F7"/>
<path d="M91.8547 700.921L100.417 707.65L183.17 780.928L183.17 838.319L82.4267 745.521L-41.5366 838.619L-41.5366 782.46L54.3426 713.179L43.3488 702.187L-41.5366 702.187L-41.5366 657.32L183.203 657.32L183.203 702.187L103.215 702.187L91.9213 700.955L91.8547 700.921Z" fill="#F7F7F7"/>
<path d="M127.605 873.859C145.328 884.118 159.42 898.075 169.881 915.695C180.375 933.282 185.605 952.368 185.605 972.919C185.605 993.47 180.375 1012.56 169.881 1030.14C159.387 1047.73 145.295 1061.79 127.605 1072.28C109.882 1082.77 90.859 1088 70.5038 1088C50.1486 1088 30.593 1082.77 13.1029 1072.28C-4.38725 1061.79 -18.3127 1047.76 -28.5736 1030.14C-38.8678 1012.52 -43.9982 993.47 -43.9982 972.919C-43.9982 952.368 -38.8678 933.015 -28.5736 915.528C-18.3127 898.008 -4.42056 884.118 13.1029 873.859C30.593 863.567 49.7488 858.437 70.5038 858.437C91.2587 858.437 109.882 863.567 127.605 873.859ZM34.4575 913.53C23.4637 919.725 14.7686 928.186 8.33889 938.878C1.94252 949.57 -1.28899 961.428 -1.28899 974.451C-1.28899 987.475 1.90919 998.566 8.33889 1008.96C14.7686 1019.35 23.3971 1027.48 34.2909 1033.37C45.1848 1039.27 57.2446 1042.23 70.4705 1042.23C83.6963 1042.23 96.1226 1039.17 107.116 1033.07C118.11 1026.98 126.805 1018.68 133.235 1008.19C139.631 997.7 142.863 986.076 142.863 973.252C142.863 960.428 139.665 948.77 133.235 938.311C126.839 927.819 118.11 919.525 107.116 913.43C96.1226 907.334 83.9295 904.27 70.4705 904.27C57.0114 904.27 45.4513 907.368 34.4575 913.596L34.4575 913.53Z" fill="#F7F7F7"/>
</svg>
