<svg width="47" height="46" viewBox="0 0 47 46" fill="none" xmlns="http://www.w3.org/2000/svg">
<path d="M46 23C46 35.1301 35.9468 45 23.5 45C11.0532 45 1 35.1301 1 23C1 10.8699 11.0532 1 23.5 1C35.9468 1 46 10.8699 46 23Z" fill="#356D85" stroke="#356D85" stroke-width="2"/>
<g clip-path="url(#clip0_363_2385)">
<path d="M32.5 29.5V31.5C32.5 32.6 31.6 33.5 30.5 33.5H14.5C13.4 33.5 12.5 32.6 12.5 31.5V16.5L18.5 10.5H30.5C31.6 10.5 32.5 11.4 32.5 12.5V16.5" stroke="white" stroke-width="2" stroke-linecap="round" stroke-linejoin="round"/>
<path d="M16.5 16.5H12.5L18.5 10.5V14.5C18.5 15.6 17.6 16.5 16.5 16.5Z" stroke="white" stroke-width="2" stroke-linecap="round" stroke-linejoin="round"/>
<path d="M32.0403 18.9605C33.9903 20.9105 33.9903 24.0805 32.0403 26.0305C30.0903 27.9805 26.9203 27.9805 24.9703 26.0305C23.0203 24.0805 23.0203 20.9105 24.9703 18.9605C26.9203 17.0105 30.0903 17.0105 32.0403 18.9605Z" stroke="white" stroke-width="2" stroke-linecap="round" stroke-linejoin="round"/>
<path d="M35.5 29.5L32.5 26.5" stroke="white" stroke-width="2" stroke-linecap="round" stroke-linejoin="round"/>
</g>
<defs>
<clipPath id="clip0_363_2385">
<rect width="26" height="26" fill="white" transform="translate(11 9)"/>
</clipPath>
</defs>
</svg>
