<svg width="70" height="69" viewBox="0 0 70 69" fill="none" xmlns="http://www.w3.org/2000/svg">
<path d="M68.1183 34.2225C68.1183 52.2824 53.347 66.945 35.0982 66.945C16.8495 66.945 2.07812 52.2824 2.07812 34.2225C2.07812 16.1626 16.8495 1.5 35.0982 1.5C53.347 1.5 68.1183 16.1626 68.1183 34.2225Z" fill="white" stroke="#55A353" stroke-width="3"/>
<g clip-path="url(#clip0_363_2284)">
<path d="M51.6376 29.4902C51.6376 30.9459 50.0956 32.137 48.211 32.137C46.3263 32.137 44.7843 30.9459 44.7843 29.4902C44.7843 30.9459 43.2423 32.137 41.3577 32.137C39.473 32.137 37.931 30.9459 37.931 29.4902C37.931 30.9459 36.4046 32.137 34.5044 32.137C32.6041 32.137 31.0777 30.9459 31.0777 29.4902C31.0777 30.9459 29.5513 32.137 27.6511 32.137C25.7508 32.137 24.2244 30.9459 24.2244 29.4902C24.2244 30.9459 22.698 32.137 20.7977 32.137C18.8975 32.137 17.3711 30.9459 17.3711 29.4902" stroke="#55A353" stroke-width="3" stroke-linecap="round" stroke-linejoin="round"/>
<path d="M17.3711 29.4914L20.9396 17.9464C21.1265 17.2635 21.7499 16.7871 22.4355 16.7871H46.5732C47.2744 16.7871 47.8822 17.2635 48.0692 17.9464L51.6376 29.4914" stroke="#55A353" stroke-width="3" stroke-miterlimit="10" stroke-linecap="round"/>
<path d="M49.5258 32.1367V50.7046C49.5258 51.5556 48.8266 52.2519 47.9721 52.2519H21.5577C20.7031 52.2519 20.0039 51.5556 20.0039 50.7046V32.1367" stroke="#55A353" stroke-width="3" stroke-linecap="round" stroke-linejoin="round"/>
<path d="M43.2016 36.9023H40.0386C39.1651 36.9023 38.457 37.6133 38.457 38.4904V43.2545C38.457 44.1316 39.1651 44.8425 40.0386 44.8425H43.2016C44.0751 44.8425 44.7832 44.1316 44.7832 43.2545V38.4904C44.7832 37.6133 44.0751 36.9023 43.2016 36.9023Z" stroke="#55A353" stroke-width="3" stroke-miterlimit="10" stroke-linecap="round"/>
<path d="M26.2261 36.9023H30.6544C31.4662 36.9023 32.1305 37.5931 32.1305 38.4374V52.2534H24.75V38.4374C24.75 37.5931 25.4142 36.9023 26.2261 36.9023Z" stroke="#55A353" stroke-width="3" stroke-miterlimit="10" stroke-linecap="round"/>
</g>
<defs>
<clipPath id="clip0_363_2284">
<rect width="38.0912" height="39.2815" fill="white" transform="translate(15.457 14.8789)"/>
</clipPath>
</defs>
</svg>
