<svg width="194" height="39" viewBox="0 0 194 39" fill="none" xmlns="http://www.w3.org/2000/svg">
<g clip-path="url(#clip0_376_296)">
<path d="M2.57031 10.646C4.28015 7.71755 6.60619 5.38911 9.5429 3.66067C12.474 1.92672 15.655 1.0625 19.0802 1.0625C22.5055 1.0625 25.6864 1.92672 28.6176 3.66067C31.5487 5.39461 33.8914 7.72305 35.6401 10.646C37.3888 13.5744 38.2604 16.7175 38.2604 20.0808C38.2604 23.4441 37.3888 26.6753 35.6401 29.5652C33.8914 32.4552 31.5543 34.7561 28.6176 36.4515C25.6809 38.1524 22.5055 39.0001 19.0802 39.0001C15.655 39.0001 12.4296 38.1524 9.51514 36.4515C6.59509 34.7561 4.28015 32.4607 2.57031 29.5652C0.854919 26.6698 0 23.5102 0 20.0808C0 16.6515 0.854919 13.5744 2.57031 10.646ZM9.18205 26.0313C10.2146 27.8478 11.6247 29.2845 13.4067 30.3469C15.1887 31.4038 17.165 31.9377 19.3356 31.9377C21.5062 31.9377 23.3548 31.4093 25.0869 30.3469C26.8189 29.2845 28.1735 27.8588 29.1561 26.0588C30.1387 24.2588 30.6327 22.2662 30.6327 20.0808C30.6327 17.8955 30.122 15.8423 29.1061 14.0258C28.0902 12.2093 26.7079 10.7726 24.9592 9.71021C23.2105 8.65332 21.2731 8.11938 19.1358 8.11938C16.9985 8.11938 15.0555 8.64782 13.3123 9.71021C11.5636 10.7671 10.1813 12.2093 9.1654 14.0258C8.14949 15.8423 7.63876 17.857 7.63876 20.0808C7.63876 22.3047 8.15504 24.2148 9.19316 26.0313H9.18205Z" fill="#080404"/>
<path d="M77.1299 38.5933H69.7521V23.5107H53.0146V38.5933H45.6367V1.46484H53.0146V16.4483H69.7521V1.46484H77.1299V38.5988V38.5933Z" fill="#080404"/>
<path d="M105.322 31.3321H92.9093L89.856 38.5982H82.5781L99.4711 0H99.8764L116.769 38.5927H108.22L105.322 31.3266V31.3321ZM102.88 25.1725L99.2657 16.1394L95.5018 25.1725H102.88Z" fill="#080404"/>
<path d="M129.486 16.5471L130.607 15.1324L142.82 1.45898H152.385L136.919 18.1049L152.435 38.5874H143.075L131.528 22.7452L129.697 24.5617V38.5874H122.219V1.46449H129.697V14.681L129.491 16.5471H129.486Z" fill="#080404"/>
<path d="M158.309 10.646C160.018 7.71755 162.344 5.38911 165.281 3.66067C168.212 1.92672 171.393 1.0625 174.819 1.0625C178.244 1.0625 181.425 1.92672 184.356 3.66067C187.287 5.39461 189.63 7.72305 191.378 10.646C193.127 13.5744 193.999 16.7175 193.999 20.0808C193.999 23.4441 193.127 26.6753 191.378 29.5652C189.63 32.4552 187.293 34.7561 184.356 36.4515C181.419 38.1524 178.244 39.0001 174.819 39.0001C171.393 39.0001 168.168 38.1524 165.253 36.4515C162.333 34.7561 160.018 32.4607 158.309 29.5652C156.593 26.6753 155.738 23.5102 155.738 20.0808C155.738 16.6515 156.593 13.5744 158.309 10.646ZM164.926 26.0313C165.958 27.8478 167.369 29.2845 169.151 30.3469C170.933 31.4038 172.909 31.9377 175.079 31.9377C177.25 31.9377 179.099 31.4093 180.831 30.3469C182.563 29.2845 183.917 27.8588 184.9 26.0588C185.883 24.2588 186.377 22.2662 186.377 20.0808C186.377 17.8955 185.866 15.8423 184.85 14.0258C183.834 12.2093 182.452 10.7726 180.703 9.71021C178.954 8.65332 177.017 8.11938 174.88 8.11938C172.742 8.11938 170.799 8.64782 169.056 9.71021C167.307 10.7671 165.925 12.2093 164.909 14.0258C163.893 15.8423 163.383 17.857 163.383 20.0808C163.383 22.3047 163.899 24.2148 164.937 26.0313H164.926Z" fill="#080404"/>
</g>
<defs>
<clipPath id="clip0_376_296">
<rect width="194" height="39" fill="white"/>
</clipPath>
</defs>
</svg>
