<svg width="228" height="129" viewBox="0 0 228 129" fill="none" xmlns="http://www.w3.org/2000/svg">
<path d="M16.2907 10.7152C16.7109 10.4335 18.0999 11.3019 18.7418 11.7713C19.4421 12.1233 20.9478 12.933 21.3679 13.3554C21.7881 13.7779 25.8616 15.2916 27.8458 15.9957C30.4136 17.2865 36.0744 19.8329 38.1753 19.692C40.8014 19.516 44.6531 20.7482 45.1783 20.7482C45.7036 20.7482 50.4306 24.9726 50.6057 25.6767C50.7808 26.3807 54.9826 27.4368 56.3832 27.2608C57.5037 27.12 60.585 27.7889 61.9857 28.1409L66.5376 30.2531C67.7632 30.2531 71.2297 30.2179 75.2915 30.0771C80.3687 29.9011 83.8702 34.1255 84.0453 34.4775C84.2204 34.8296 84.5705 36.4137 84.3954 37.2938C84.2554 37.9979 84.8039 39.23 85.0957 39.7581L88.4222 43.8065L97.8763 44.1585L98.5766 45.9187L103.304 52.2553L105.755 52.0793L113.458 49.9671L116.259 49.615L118.885 49.087L125.713 47.8549C126.589 47.3855 128.445 46.4467 128.865 46.4467C129.285 46.4467 129.74 46.0947 129.915 45.9187L134.642 42.0463L136.568 40.8142L137.093 46.4467C136.977 46.6227 136.603 47.1156 136.043 47.6789C135.343 48.3829 136.218 48.3829 137.093 47.8549C137.794 47.4324 137.969 48.0309 137.969 48.3829L137.619 49.615L143.571 51.0232L148.298 49.087C149.057 48.6763 150.679 47.8197 151.1 47.6789C151.52 47.538 152.442 48.0896 152.85 48.3829L156.877 49.615L157.052 48.0309L157.402 47.3268L160.379 41.8703L173.859 42.2223L177.711 44.3345L183.664 45.0386C183.78 45.2146 183.979 45.5666 183.839 45.5666C183.699 45.5666 183.664 46.3881 183.664 46.7988H184.364L188.741 42.9264V41.3422L187.866 40.2861V39.406L189.966 37.4698C190.947 36.3433 192.242 37.0005 192.768 37.4698C193.41 38.0566 194.834 39.4412 195.394 40.2861C195.954 41.131 198.078 40.6381 199.07 40.2861L202.047 39.23L203.798 38.3499C204.078 38.0683 204.148 38.5846 204.148 38.878V40.9902C204.089 41.8116 204.008 43.5248 204.148 43.8065C204.288 44.0881 204.906 43.8065 205.198 43.6304L207.649 42.2223H208.525L208.875 42.7504L209.75 43.1024L211.326 43.9825H212.551C212.691 43.7009 214.01 43.1611 214.652 42.9264H215.528C215.948 42.9264 216.17 43.5131 216.228 43.8065V45.2146C215.878 45.2146 215.353 46.6227 215.353 46.9748C215.353 47.2564 216.636 47.6789 217.278 47.8549L220.255 48.3829C220.021 48.735 219.449 49.5094 219.029 49.7911C218.609 50.0727 218.037 51.3166 217.804 51.9033V52.7834L219.554 56.1277L222.005 59.472V61.5842C221.83 61.995 221.48 63.0628 221.48 64.0485C221.48 65.0342 221.83 65.75 222.005 65.9847L227.083 71.6173L226.382 73.3774L220.955 78.834C220.371 78.9513 219.134 79.186 218.854 79.186C218.574 79.186 218.504 79.6554 218.504 79.8901C218.446 81.4156 218.364 84.6074 218.504 85.1706C218.679 85.8747 218.154 87.2828 218.154 87.6349C218.154 87.9165 217.453 88.8083 217.103 89.219C216.286 89.9818 214.582 91.5777 214.302 91.8593C213.952 92.2113 212.726 92.0353 212.201 92.0353C211.781 92.0353 210.859 91.5659 210.45 91.3312L209.575 90.8032C209.575 89.8057 209.505 87.7405 209.225 87.4588C208.945 87.1772 208.758 88.2803 208.7 88.867V90.4511L208.174 92.0353L207.299 95.2036L207.124 98.724H206.599L205.548 95.9077L204.673 93.6195L203.272 93.4434C203.272 92.8567 203.202 91.5072 202.922 90.8032C202.572 89.9231 200.646 89.395 199.946 89.395C199.386 89.395 198.662 90.9205 198.37 91.6833V94.6756L199.946 96.9638L202.572 101.892L197.67 105.589L194.168 101.364L190.667 95.2036L193.118 92.5633V91.6833L190.667 88.867L189.091 90.4511C189.091 91.8006 189.056 94.746 188.916 95.7317C188.776 96.7174 189.441 98.9587 189.791 99.9561L190.667 103.124L193.643 108.757C195.16 110.048 198.09 112.911 197.67 114.038C197.25 115.164 199.829 118.497 201.171 120.022C200.88 120.081 200.156 120.163 199.596 120.022C199.035 119.881 198.195 121.254 197.845 121.958L197.67 124.071C197.495 124.071 197.145 124 197.145 123.718C197.145 123.437 193.643 121.254 191.892 120.198L188.391 117.734L184.014 117.91C183.956 118.262 183.804 118.966 183.664 118.966H181.913C181.563 118.966 181.038 119.494 180.512 120.198C179.987 120.902 178.236 120.902 177.011 120.902C175.785 120.902 175.785 118.966 175.61 118.79C175.435 118.614 176.486 116.854 177.011 116.854C177.536 116.854 177.711 115.27 177.536 114.918C177.361 114.566 175.785 114.037 174.385 114.214C172.984 114.39 171.583 111.749 171.408 111.749C171.233 111.749 169.483 108.757 168.957 106.645C168.432 104.533 165.456 102.42 164.58 101.892C163.705 101.364 159.328 100.484 159.153 99.9561C158.978 99.428 151.975 95.5556 151.275 95.5556C150.574 95.5556 141.47 92.0353 140.245 90.6272C139.019 89.219 134.467 89.219 133.767 89.219C133.067 89.219 131.666 90.4511 131.141 90.9792C130.721 91.4016 127.931 95.7317 126.589 97.8439C124.605 96.4357 120.601 93.5843 120.461 93.4434C120.286 93.2674 118.535 93.0914 118.01 93.2674C117.485 93.4434 117.31 94.1475 117.135 94.8516C116.96 95.5556 119.761 97.6679 121.161 97.8439C122.562 98.0199 123.262 98.9 123.613 99.076C123.893 99.2168 124.663 100.308 125.013 100.836L125.889 102.772L128.34 106.645V108.581L126.239 110.693C125.889 111.045 124.838 110.869 124.313 110.341C123.893 109.919 123.904 109.226 123.963 108.933L124.663 107.525V106.821L122.912 109.109C122.329 109.93 121.196 111.644 121.337 111.925C121.477 112.207 122.679 111.573 123.262 111.221L123.437 111.573L124.138 117.734C124.663 118.79 125.643 121.113 125.363 121.958C125.013 123.014 124.138 123.894 123.788 124.423C123.507 124.845 123.904 127.65 124.138 128.999H120.986L118.185 124.071C117.368 122.838 115.629 120.128 115.209 119.142C114.684 117.91 101.728 103.652 101.028 102.772C100.327 101.892 95.7754 101.364 95.4252 100.66C95.0751 99.9561 91.5736 98.1959 91.3985 98.1959C91.2234 98.1959 82.9948 98.0199 81.7693 98.0199C80.5437 98.0199 78.4428 96.2597 77.7425 95.9077C77.0422 95.5557 73.7158 95.7317 73.7158 96.4357C73.7158 97.1398 72.8404 98.548 72.4902 98.724C72.1401 98.9 67.9383 99.076 67.0629 98.724C66.1875 98.3719 64.0866 93.4434 63.3863 92.7394C62.686 92.0353 62.686 87.9869 62.3358 86.0507C61.9857 84.1145 59.5346 83.2344 58.8343 83.2344C58.134 83.2344 57.4337 83.5864 56.5583 84.8186C55.6829 86.0507 52.5315 85.8747 51.8312 85.5226C51.1309 85.1706 50.6057 82.3543 50.6057 81.4742C50.6057 80.5941 49.3802 79.538 48.8549 79.01C48.3297 78.4819 33.6233 70.5611 31.5224 70.7372C29.4215 70.9132 25.2196 68.0969 23.2938 67.7449C21.7531 67.4632 16.816 61.5256 14.54 58.5919C12.7892 56.1864 9.18263 51.2344 8.76245 50.6712C8.23722 49.9671 8.76245 45.5666 8.76245 44.1585C8.76245 42.7504 5.78615 38.702 5.436 37.9979C5.08585 37.2938 5.78615 30.2531 5.436 29.373C5.08585 28.4929 2.28464 26.7328 1.0591 25.6767C-0.166431 24.6205 0.00864575 20.5721 0.00864575 19.34C0.00864575 18.1079 1.75941 16.5237 3.16002 15.8197C4.56063 15.1156 10.5132 14.0595 11.7388 14.7636C12.7192 15.3268 13.5479 14.4115 13.8397 13.8835L14.8901 11.7713C15.1819 11.5366 15.8706 10.9968 16.2907 10.7152Z" fill="#55A353"/>
<path d="M115.05 20.1228C115.05 33.3838 102.35 48.4634 97.6679 53.5514C96.764 54.5414 95.1648 54.5414 94.261 53.5514C89.5562 48.4404 76.8555 33.3838 76.8555 20.1228C76.8555 9.64762 85.4076 1.15234 95.9528 1.15234C106.498 1.15234 115.05 9.64762 115.05 20.1228Z" fill="#ED5B32"/>
<path d="M96.0206 28.7539C101.141 28.7539 105.291 24.6309 105.291 19.5449C105.291 14.4589 101.141 10.3359 96.0206 10.3359C90.9006 10.3359 86.75 14.4589 86.75 19.5449C86.75 24.6309 90.9006 28.7539 96.0206 28.7539Z" fill="white"/>
</svg>
