<svg width="449" height="252" viewBox="0 0 449 252" fill="none" xmlns="http://www.w3.org/2000/svg">
<path d="M32.1935 17.1088C33.0239 16.5518 35.7687 18.2692 37.0373 19.1975C38.4212 19.8937 41.3967 21.4951 42.227 22.3306C43.0574 23.1661 51.1073 26.1599 55.0284 27.5524C60.1028 30.1053 71.2896 35.1414 75.4414 34.8629C80.6312 34.5148 88.2428 36.9516 89.2808 36.9516C90.3187 36.9516 99.6603 45.3065 100.006 46.699C100.352 48.0915 108.656 50.1802 111.424 49.8321C113.638 49.5536 119.727 50.8765 122.495 51.5727L131.491 55.7502C133.913 55.7502 140.763 55.6805 148.79 55.402C158.823 55.0539 165.743 63.4088 166.089 64.1051C166.435 64.8013 167.127 67.9344 166.781 69.675C166.504 71.0675 167.588 73.5043 168.165 74.5487L174.739 82.5555L193.422 83.2517L194.806 86.7329L204.147 99.2653L208.991 98.9171L224.214 94.7397L229.75 94.0434L234.94 92.9991L248.433 90.5622C250.163 89.6339 253.83 87.7773 254.661 87.7773C255.491 87.7773 256.391 87.081 256.737 86.7329L266.078 79.0742L269.884 76.6374L270.922 87.7773C270.691 88.1254 269.953 89.1001 268.846 90.2141C267.462 91.6066 269.192 91.6066 270.922 90.5622C272.306 89.7267 272.652 90.9104 272.652 91.6066L271.96 94.0434L283.723 96.8284L293.065 92.9991C294.564 92.1868 297.77 90.4926 298.601 90.2141C299.431 89.9356 301.253 91.0264 302.061 91.6066L310.018 94.0434L310.364 90.9104L311.056 89.5179L316.938 78.7261L343.578 79.4224L351.19 83.5998L362.954 84.9923C363.184 85.3404 363.576 86.0367 363.3 86.0367C363.023 86.0367 362.954 87.6612 362.954 88.4735H364.338L372.987 80.8149V77.6818L371.257 75.593V73.8524L375.409 70.0231C377.346 67.7951 379.907 69.0948 380.945 70.0231C382.213 71.1835 385.027 73.9221 386.134 75.593C387.242 77.264 391.44 76.2893 393.4 75.593L399.282 73.5043L402.742 71.7637C403.295 71.2067 403.434 72.2279 403.434 72.8081V76.9855C403.318 78.6101 403.157 81.9985 403.434 82.5555C403.71 83.1124 404.933 82.5555 405.51 82.2073L410.353 79.4224H412.083L412.775 80.4667L414.505 81.163L417.619 82.9036H420.041C420.318 82.3466 422.924 81.279 424.193 80.8149H425.923C426.753 80.8149 427.191 81.9753 427.306 82.5555V85.3404C426.615 85.3404 425.577 88.1254 425.577 88.8216C425.577 89.3786 428.114 90.2141 429.382 90.5622L435.264 91.6066C434.803 92.3028 433.673 93.8346 432.842 94.3916C432.012 94.9486 430.882 97.4086 430.42 98.569V100.31L433.88 106.924L438.724 113.538V117.716C438.378 118.528 437.686 120.64 437.686 122.589C437.686 124.539 438.378 125.954 438.724 126.419L448.757 137.559L447.374 141.04L436.648 151.831C435.495 152.064 433.05 152.528 432.496 152.528C431.943 152.528 431.804 153.456 431.804 153.92C431.689 156.937 431.527 163.25 431.804 164.364C432.15 165.756 431.112 168.541 431.112 169.238C431.112 169.795 429.728 171.558 429.036 172.371C427.422 173.879 424.054 177.035 423.501 177.592C422.809 178.289 420.387 177.941 419.349 177.941C418.518 177.941 416.696 177.012 415.889 176.548L414.159 175.504C414.159 173.531 414.021 169.446 413.467 168.889C412.914 168.332 412.545 170.514 412.429 171.674V174.807L411.391 177.941L409.661 184.207L409.315 191.169H408.277L406.202 185.599L404.472 181.074L401.704 180.725C401.704 179.565 401.565 176.896 401.012 175.504C400.32 173.763 396.514 172.719 395.13 172.719C394.023 172.719 392.593 175.736 392.016 177.244V183.162L395.13 187.688L400.32 197.435L390.632 204.746L383.713 196.391L376.793 184.207L381.637 178.985V177.244L376.793 171.674L373.679 174.807C373.679 177.476 373.61 183.302 373.333 185.251C373.056 187.201 374.371 191.633 375.063 193.606L376.793 199.872L382.675 211.012C385.673 213.565 391.463 219.228 390.632 221.456C389.802 223.684 394.899 230.275 397.552 233.292C396.975 233.408 395.545 233.57 394.438 233.292C393.331 233.013 391.67 235.729 390.978 237.121L390.632 241.298C390.286 241.298 389.594 241.159 389.594 240.602C389.594 240.045 382.675 235.729 379.215 233.64L372.295 228.766L363.646 229.114C363.53 229.811 363.23 231.203 362.954 231.203H359.494C358.802 231.203 357.764 232.247 356.726 233.64C355.688 235.032 352.228 235.032 349.806 235.032C347.384 235.032 347.384 231.203 347.038 230.855C346.692 230.507 348.768 227.026 349.806 227.026C350.844 227.026 351.19 223.892 350.844 223.196C350.498 222.5 347.384 221.456 344.616 221.804C341.849 222.152 339.081 216.93 338.735 216.93C338.389 216.93 334.929 211.012 333.891 206.835C332.853 202.657 326.971 198.48 325.241 197.435C323.511 196.391 314.862 194.65 314.516 193.606C314.17 192.562 300.331 184.903 298.947 184.903C297.563 184.903 279.572 177.941 277.15 175.156C274.728 172.371 265.732 172.371 264.348 172.371C262.964 172.371 260.197 174.807 259.159 175.852C258.328 176.687 252.816 185.251 250.163 189.429C246.242 186.644 238.33 181.004 238.054 180.725C237.708 180.377 234.248 180.029 233.21 180.377C232.172 180.725 231.826 182.118 231.48 183.51C231.134 184.903 236.67 189.08 239.438 189.429C242.205 189.777 243.589 191.517 244.281 191.865C244.835 192.144 246.357 194.302 247.049 195.347L248.779 199.176L253.623 206.835V210.664L249.471 214.841C248.779 215.538 246.703 215.189 245.665 214.145C244.835 213.31 244.858 211.94 244.973 211.36L246.357 208.575V207.183L242.897 211.708C241.744 213.333 239.507 216.721 239.784 217.278C240.06 217.835 242.436 216.582 243.589 215.886L243.935 216.582L245.319 228.766C246.357 230.855 248.295 235.45 247.741 237.121C247.049 239.21 245.319 240.95 244.627 241.995C244.074 242.83 244.858 248.377 245.319 251.046H239.092L233.556 241.298C231.941 238.862 228.504 233.501 227.674 231.551C226.636 229.114 201.033 200.916 199.649 199.176C198.266 197.435 189.27 196.391 188.578 194.998C187.886 193.606 180.966 190.125 180.62 190.125C180.274 190.125 164.013 189.777 161.591 189.777C159.169 189.777 155.018 186.295 153.634 185.599C152.25 184.903 145.676 185.251 145.676 186.644C145.676 188.036 143.946 190.821 143.254 191.169C142.562 191.517 134.259 191.865 132.529 191.169C130.799 190.473 126.647 180.726 125.263 179.333C123.879 177.941 123.879 169.934 123.187 166.104C122.495 162.275 117.651 160.534 116.267 160.534C114.884 160.534 113.5 161.231 111.77 163.668C110.04 166.104 103.812 165.756 102.428 165.06C101.044 164.364 100.006 158.794 100.006 157.053C100.006 155.313 97.5844 153.224 96.5464 152.18C95.5085 151.135 66.4459 135.47 62.2941 135.818C58.1423 136.166 49.8387 130.596 46.0328 129.9C42.9882 129.343 33.2315 117.6 28.7337 111.798C25.2738 107.04 18.1466 97.2462 17.3162 96.1322C16.2783 94.7397 17.3162 86.0367 17.3162 83.2517C17.3162 80.4667 11.4345 72.46 10.7425 71.0675C10.0506 69.675 11.4345 55.7502 10.7425 54.0096C10.0506 52.269 4.51487 48.7878 2.09299 46.699C-0.328898 44.6103 0.0170856 36.6035 0.0170856 34.1667C0.0170856 31.7298 3.47692 28.5967 6.24479 27.2043C9.01265 25.8118 20.7761 23.7231 23.198 25.1155C25.1355 26.2295 26.7731 24.4193 27.3498 23.3749L29.4257 19.1975C30.0023 18.7333 31.3632 17.6658 32.1935 17.1088Z" fill="#55A353"/>
<path d="M194.4 136.304C194.272 136.432 193.968 136.464 193.488 136.4C193.008 136.368 192.624 136.144 192.336 135.728C192.112 135.28 191.984 134.768 191.952 134.192C191.92 133.616 191.92 132.816 191.952 131.792C192.144 130.672 192.464 129.2 192.912 127.376C193.36 125.552 193.856 123.52 194.4 121.28C194.976 119.008 195.552 116.688 196.128 114.32C196.416 113.2 196.64 112.256 196.8 111.488C196.992 110.72 197.12 110.144 197.184 109.76C197.28 109.344 197.328 109.136 197.328 109.136C197.296 109.2 197.248 109.264 197.184 109.328C197.152 109.392 197.12 109.456 197.088 109.52C197.056 109.584 197.024 109.648 196.992 109.712C196.992 109.712 196.928 109.824 196.8 110.048C196.704 110.272 196.48 110.656 196.128 111.2C195.872 111.584 195.632 112.032 195.408 112.544C195.184 113.056 194.8 113.728 194.256 114.56C193.744 115.52 193.168 116.624 192.528 117.872C191.888 119.12 191.344 120.112 190.896 120.848C190.672 121.2 190.464 121.504 190.272 121.76C190.112 122.016 190 122.224 189.936 122.384C189.808 122.736 189.6 123.168 189.312 123.68C189.024 124.192 188.688 124.688 188.304 125.168C188.112 125.456 187.856 125.792 187.536 126.176C187.248 126.56 186.992 126.912 186.768 127.232C186.544 127.52 186.432 127.664 186.432 127.664C186.368 127.856 186.16 128.16 185.808 128.576C185.456 128.992 185.024 129.456 184.512 129.968C184.032 130.448 183.536 130.896 183.024 131.312C181.904 132.208 180.976 132.768 180.24 132.992C179.536 133.216 178.72 132.944 177.792 132.176C177.376 131.664 177.04 131.152 176.784 130.64C176.528 130.096 176.4 129.36 176.4 128.432C176.4 127.504 176.56 126.208 176.88 124.544C177.104 123.488 177.344 122.368 177.6 121.184C177.888 120 178.176 118.864 178.464 117.776C178.752 116.656 179.008 115.696 179.232 114.896C179.488 114.064 179.664 113.488 179.76 113.168C179.856 112.368 179.872 111.952 179.808 111.92C179.744 111.856 179.584 112.032 179.328 112.448C179.104 112.8 178.688 113.536 178.08 114.656C177.472 115.776 176.784 117.088 176.016 118.592C175.28 120.096 174.56 121.6 173.856 123.104C172.544 125.536 171.44 127.568 170.544 129.2C169.648 130.832 168.912 132.144 168.336 133.136C167.76 134.096 167.312 134.816 166.992 135.296C166.704 135.808 166.48 136.16 166.32 136.352C166.192 136.576 166.096 136.72 166.032 136.784C165.552 136.752 165.136 136.528 164.784 136.112C164.432 135.696 164.144 135.2 163.92 134.624C163.856 134.304 163.808 133.968 163.776 133.616C163.744 133.264 163.776 132.88 163.872 132.464C164 132.016 164.192 131.536 164.448 131.024C164.864 130.192 165.264 129.488 165.648 128.912C166.032 128.336 166.272 127.984 166.368 127.856C166.528 127.632 166.656 127.392 166.752 127.136C166.848 126.88 166.912 126.64 166.944 126.416C167.104 126.224 167.344 125.824 167.664 125.216C168.016 124.608 168.368 123.952 168.72 123.248C168.976 122.832 169.328 122.256 169.776 121.52C170.224 120.752 170.704 119.936 171.216 119.072C171.728 118.176 172.176 117.36 172.56 116.624C173.968 114.096 175.088 112.08 175.92 110.576C176.752 109.04 177.344 108.064 177.696 107.648C177.92 107.488 178.112 107.184 178.272 106.736C178.464 106.256 178.624 105.904 178.752 105.68C179.2 104.784 179.648 104.048 180.096 103.472C180.576 102.864 180.992 102.56 181.344 102.56C181.6 102.56 181.92 102.656 182.304 102.848C182.72 103.04 183.12 103.312 183.504 103.664C183.856 104.08 184.176 104.64 184.464 105.344C184.784 106.016 184.848 106.912 184.656 108.032C184.624 108.544 184.544 109.168 184.416 109.904C184.288 110.608 184.16 111.312 184.032 112.016C183.904 112.72 183.776 113.312 183.648 113.792C183.392 115.232 183.104 116.608 182.784 117.92C182.496 119.2 182.224 120.384 181.968 121.472C181.712 122.56 181.504 123.52 181.344 124.352C181.184 125.152 181.072 125.808 181.008 126.32C180.976 126.832 181.04 127.168 181.2 127.328C181.296 127.36 181.424 127.328 181.584 127.232C181.776 127.104 181.92 126.976 182.016 126.848C182.208 126.592 182.384 126.336 182.544 126.08C182.704 125.824 182.912 125.504 183.168 125.12C183.68 124.416 184.208 123.648 184.752 122.816C185.328 121.952 186 120.896 186.768 119.648C187.568 118.368 188.512 116.8 189.6 114.944C190.688 113.056 192.016 110.72 193.584 107.936C194.32 106.816 195.024 105.696 195.696 104.576C196.368 103.456 196.976 102.592 197.52 101.984C198 101.472 198.592 101.296 199.296 101.456C200.032 101.616 200.704 102.016 201.312 102.656C201.92 103.296 202.256 104.08 202.32 105.008C202.352 105.456 202.256 106.256 202.032 107.408C201.84 108.528 201.568 109.792 201.216 111.2C200.864 112.608 200.464 113.984 200.016 115.328C199.92 115.872 199.76 116.592 199.536 117.488C199.312 118.384 199.072 119.296 198.816 120.224C198.56 121.152 198.32 121.984 198.096 122.72C197.872 123.808 197.68 124.672 197.52 125.312C197.392 125.952 197.328 126.688 197.328 127.52C197.04 128.032 196.848 128.768 196.752 129.728C196.656 130.688 196.608 131.68 196.608 132.704C196.48 133.952 196.208 134.832 195.792 135.344C195.408 135.856 195.152 136.096 195.024 136.064C194.768 135.968 194.56 136.048 194.4 136.304ZM202.428 133.184C202.172 132.928 201.98 132.544 201.852 132.032C201.756 131.52 201.724 131.024 201.756 130.544C201.788 130.032 201.868 129.648 201.996 129.392C201.996 129.136 202.028 128.944 202.092 128.816C202.188 128.656 202.22 128.512 202.188 128.384C202.156 128.256 202.188 128.032 202.284 127.712C202.38 127.392 202.476 127.088 202.572 126.8C202.796 126.288 203.052 125.632 203.34 124.832C203.628 124 203.916 123.168 204.204 122.336C204.492 121.472 204.732 120.736 204.924 120.128C205.116 119.488 205.228 119.104 205.26 118.976C205.26 118.592 205.516 118.384 206.028 118.352C206.412 118.224 206.876 118.384 207.42 118.832C207.964 119.28 208.396 119.76 208.716 120.272C208.972 120.528 209.068 120.864 209.004 121.28C208.94 121.696 208.732 122.288 208.38 123.056C208.252 123.312 208.092 123.744 207.9 124.352C207.74 124.928 207.628 125.408 207.564 125.792C207.436 126.048 207.276 126.416 207.084 126.896C206.924 127.344 206.78 127.776 206.652 128.192C206.588 128.352 206.524 128.656 206.46 129.104C206.396 129.52 206.316 129.952 206.22 130.4C206.124 130.848 205.996 131.2 205.836 131.456C205.548 132.768 205.036 133.536 204.3 133.76C203.596 133.984 202.972 133.792 202.428 133.184ZM207.612 113.936C207.26 113.68 206.988 113.376 206.796 113.024C206.636 112.64 206.54 112.304 206.508 112.016C206.508 111.728 206.54 111.552 206.604 111.488C206.924 111.136 207.196 110.672 207.42 110.096C207.676 109.52 207.948 108.992 208.236 108.512C208.3 108.416 208.38 108.288 208.476 108.128C208.604 107.936 208.732 107.824 208.86 107.792C209.244 107.536 209.772 107.552 210.444 107.84C211.148 108.128 211.66 108.528 211.98 109.04C212.268 109.648 212.348 110.272 212.22 110.912C212.124 111.552 211.788 112.224 211.212 112.928C210.732 113.568 210.124 113.984 209.388 114.176C208.652 114.336 208.06 114.256 207.612 113.936ZM213.626 133.472C212.41 133.632 211.482 133.712 210.842 133.712C210.234 133.712 209.77 133.648 209.45 133.52C209.13 133.392 208.826 133.216 208.538 132.992C208.218 132.768 208.042 132.32 208.01 131.648C207.978 130.944 208.458 130.08 209.45 129.056C210.058 128.32 210.682 127.632 211.322 126.992C211.962 126.32 212.538 125.776 213.05 125.36C213.274 125.168 213.498 124.992 213.722 124.832C213.978 124.672 214.394 124.4 214.97 124.016C215.546 123.6 216.458 122.976 217.706 122.144C218.314 121.664 218.746 121.328 219.002 121.136C219.258 120.944 219.466 120.8 219.626 120.704C219.786 120.576 219.994 120.416 220.25 120.224C220.026 120.192 219.594 120.144 218.954 120.08C218.346 119.984 217.722 119.968 217.082 120.032C216.186 120.032 215.674 120.032 215.546 120.032C215.418 120 215.226 119.952 214.97 119.888H214.25C214.09 119.888 213.802 119.776 213.386 119.552C213.002 119.328 212.634 119.072 212.282 118.784C211.962 118.464 211.786 118.192 211.754 117.968C211.754 117.968 211.85 117.856 212.042 117.632C212.234 117.408 212.394 117.232 212.522 117.104C212.778 116.944 212.97 116.816 213.098 116.72C213.258 116.624 213.402 116.64 213.53 116.768C213.53 116.768 213.93 116.752 214.73 116.72C215.53 116.656 216.314 116.608 217.082 116.576C218.938 116.608 220.298 116.672 221.162 116.768C222.058 116.832 222.714 116.96 223.13 117.152C223.578 117.344 224.01 117.632 224.426 118.016C224.938 118.528 225.274 119.104 225.434 119.744C225.594 120.384 225.498 120.896 225.146 121.28C225.018 121.408 224.89 121.552 224.762 121.712C224.666 121.84 224.57 121.904 224.474 121.904C224.474 121.904 224.25 122.048 223.802 122.336C223.354 122.624 222.81 122.976 222.17 123.392C221.562 123.808 220.954 124.192 220.346 124.544C219.77 124.896 219.418 125.152 219.29 125.312C219.066 125.44 218.794 125.616 218.474 125.84C218.154 126.032 217.93 126.192 217.802 126.32C217.706 126.448 217.482 126.672 217.13 126.992C216.81 127.312 216.458 127.6 216.074 127.856C215.786 128.112 215.466 128.4 215.114 128.72C214.794 129.04 214.506 129.328 214.25 129.584C214.026 129.808 213.914 129.92 213.914 129.92C213.914 129.92 214.154 129.888 214.634 129.824C215.114 129.728 215.754 129.648 216.554 129.584C217.354 129.488 218.218 129.472 219.146 129.536C220.65 129.504 221.834 129.472 222.698 129.44C223.594 129.376 224.266 129.36 224.714 129.392C225.194 129.392 225.562 129.456 225.818 129.584C226.042 129.648 226.202 129.872 226.298 130.256C226.426 130.64 226.506 131.024 226.538 131.408C226.57 131.792 226.554 132.032 226.49 132.128C226.362 132.128 225.866 132.176 225.002 132.272C224.138 132.336 223.146 132.4 222.026 132.464C220.554 132.592 219.13 132.752 217.754 132.944C216.378 133.136 215.002 133.312 213.626 133.472ZM238.511 134.288C238.287 134.416 237.983 134.368 237.599 134.144C237.247 133.92 236.895 133.584 236.543 133.136C236.319 132.752 236.143 132.368 236.015 131.984C235.919 131.568 235.871 130.96 235.871 130.16C235.903 129.52 235.903 129.088 235.871 128.864C235.871 128.608 235.727 128.592 235.439 128.816C235.183 129.008 234.655 129.488 233.855 130.256C233.055 131.056 232.287 131.744 231.551 132.32C230.847 132.864 230.271 133.12 229.823 133.088C229.599 133.088 229.295 132.944 228.911 132.656C228.527 132.368 228.159 132.016 227.807 131.6C227.455 131.152 227.199 130.736 227.039 130.352C226.847 129.584 226.831 128.592 226.991 127.376C227.183 126.16 227.487 124.896 227.903 123.584C228.319 122.24 228.783 120.992 229.295 119.84C229.839 118.656 230.367 117.712 230.879 117.008C231.423 116.272 231.887 115.92 232.271 115.952C232.815 116.016 233.279 116.288 233.663 116.768C234.079 117.216 234.399 117.712 234.623 118.256C234.751 118.48 234.799 118.672 234.767 118.832C234.767 118.992 234.639 119.184 234.383 119.408C234.095 119.792 233.743 120.352 233.327 121.088C232.943 121.792 232.543 122.56 232.127 123.392C231.743 124.224 231.391 125.024 231.071 125.792C230.783 126.528 230.575 127.136 230.447 127.616C230.319 128.096 230.319 128.336 230.447 128.336C230.895 128.336 231.311 128.224 231.695 128C232.079 127.744 232.559 127.344 233.135 126.8C233.807 126.128 234.399 125.456 234.911 124.784C235.423 124.08 235.951 123.28 236.495 122.384C236.911 121.744 237.343 121.04 237.791 120.272C238.271 119.504 238.575 118.96 238.703 118.64C239.151 117.808 239.487 117.184 239.711 116.768C239.935 116.352 240.207 116.096 240.527 116C240.687 116 240.911 116 241.199 116C241.487 116 241.631 116 241.631 116C241.823 116.032 242.047 116.176 242.303 116.432C242.559 116.56 242.815 116.736 243.071 116.96C243.359 117.184 243.503 117.376 243.503 117.536C243.375 117.856 243.167 118.336 242.879 118.976C242.623 119.584 242.431 120.032 242.303 120.32C241.695 121.696 241.103 123.056 240.527 124.4C239.983 125.712 239.583 127.056 239.327 128.432C239.263 128.88 239.247 129.408 239.279 130.016C239.343 130.592 239.439 131.008 239.567 131.264C239.663 131.456 239.775 131.68 239.903 131.936C240.063 132.16 240.239 132.352 240.431 132.512C240.719 132.704 240.703 132.944 240.383 133.232C240.095 133.52 239.727 133.776 239.279 134C238.863 134.192 238.607 134.288 238.511 134.288ZM260.021 133.232C259.221 133.616 258.437 133.76 257.669 133.664C256.933 133.536 256.309 133.136 255.797 132.464C255.317 131.76 255.077 130.736 255.077 129.392C255.077 129.04 255.093 128.624 255.125 128.144C255.189 127.632 255.285 127.104 255.413 126.56C255.541 125.984 255.701 125.408 255.893 124.832C255.989 124.544 256.117 124.256 256.277 123.968C256.469 123.68 256.501 123.536 256.373 123.536C256.245 123.536 256.085 123.616 255.893 123.776C255.733 123.936 255.605 124.064 255.509 124.16C254.709 124.864 253.973 125.6 253.301 126.368C252.661 127.104 252.085 127.84 251.573 128.576C251.093 129.28 250.709 129.936 250.421 130.544C250.165 131.152 250.037 131.664 250.037 132.08C250.037 132.56 249.797 132.896 249.317 133.088C248.837 133.28 248.421 133.264 248.069 133.04C247.461 132.688 246.901 132.144 246.389 131.408C245.909 130.672 245.717 129.712 245.812 128.528C245.909 127.024 246.037 125.68 246.197 124.496C246.357 123.312 246.613 122.032 246.965 120.656C247.349 119.248 247.845 117.536 248.453 115.52C248.869 114.4 249.253 113.344 249.605 112.352C249.957 111.328 250.261 110.464 250.517 109.76C250.805 109.056 250.981 108.624 251.045 108.464C251.205 108.304 251.413 107.92 251.669 107.312C251.925 106.672 252.149 106.032 252.341 105.392C252.565 104.752 252.677 104.368 252.677 104.24C252.677 103.984 252.725 103.76 252.821 103.568C252.949 103.376 253.061 103.2 253.157 103.04C253.349 102.592 253.509 102.288 253.637 102.128C253.797 101.936 253.941 101.84 254.069 101.84C254.229 101.84 254.485 101.92 254.837 102.08C255.221 102.24 255.573 102.448 255.893 102.704C256.245 102.928 256.453 103.168 256.517 103.424C256.741 103.872 256.869 104.336 256.901 104.816C256.933 105.264 256.821 105.824 256.565 106.496C256.309 107.168 255.861 108.096 255.221 109.28C254.709 110.272 254.245 111.296 253.829 112.352C253.413 113.408 253.013 114.512 252.629 115.664C252.469 116.144 252.261 116.784 252.005 117.584C251.749 118.352 251.493 119.152 251.237 119.984C251.013 120.784 250.821 121.504 250.661 122.144C250.501 122.784 250.421 123.2 250.421 123.392C250.421 123.616 250.549 123.728 250.805 123.728C251.061 123.696 251.317 123.504 251.573 123.152C251.701 122.896 251.909 122.656 252.197 122.432C252.485 122.176 252.741 121.92 252.965 121.664C253.221 121.344 253.525 120.976 253.877 120.56C254.261 120.112 254.661 119.696 255.077 119.312C255.525 118.896 255.925 118.56 256.277 118.304C256.661 118.048 256.981 117.92 257.237 117.92C257.845 117.92 258.357 118.096 258.773 118.448C259.189 118.8 259.541 119.344 259.829 120.08C259.925 120.176 260.021 120.304 260.117 120.464C260.213 120.592 260.277 120.688 260.309 120.752C260.469 120.88 260.549 121.392 260.549 122.288C260.549 123.152 260.293 124.352 259.781 125.888C259.493 127.072 259.317 127.952 259.253 128.528C259.221 129.104 259.333 129.392 259.589 129.392C259.589 129.392 259.749 129.296 260.069 129.104C260.421 128.912 260.789 128.704 261.173 128.48C262.101 127.872 262.773 127.68 263.189 127.904C263.605 128.128 263.812 128.416 263.812 128.768C263.812 129.056 263.701 129.392 263.477 129.776C263.285 130.16 263.189 130.416 263.189 130.544C263.189 130.544 263.189 130.56 263.189 130.592C263.189 130.592 263.189 130.656 263.189 130.784C263.189 130.848 262.981 131.072 262.565 131.456C262.149 131.84 261.685 132.224 261.173 132.608C260.693 132.96 260.309 133.168 260.021 133.232ZM271.535 134.432C271.119 134.464 270.783 134.416 270.527 134.288C270.271 134.192 269.951 134.032 269.567 133.808C268.863 133.264 268.271 132.592 267.791 131.792C267.343 130.992 267.135 130.32 267.167 129.776C267.231 129.488 267.231 129.232 267.167 129.008C267.135 128.784 267.119 128.672 267.119 128.672C266.927 128.512 266.863 128.416 266.927 128.384C266.991 128.32 267.039 128.224 267.071 128.096C267.327 128.032 267.359 127.856 267.167 127.568C267.071 127.312 267.119 126.736 267.311 125.84C267.535 124.912 267.823 124.048 268.175 123.248C268.335 122.896 268.559 122.432 268.847 121.856C269.167 121.28 269.519 120.704 269.903 120.128C270.287 119.52 270.639 119.04 270.959 118.688C271.663 117.888 272.287 117.232 272.831 116.72C273.407 116.208 274.047 115.824 274.751 115.568C275.391 115.312 276.031 115.2 276.671 115.232C277.343 115.264 277.935 115.488 278.447 115.904C279.215 116.128 279.903 116.48 280.511 116.96C281.119 117.408 281.535 118.048 281.759 118.88C282.015 119.808 282.095 120.912 281.999 122.192C281.935 123.44 281.391 125.056 280.367 127.04C279.759 128.288 279.151 129.296 278.543 130.064C277.967 130.832 277.263 131.568 276.431 132.272C275.823 132.784 275.039 133.232 274.079 133.616C273.119 134 272.271 134.272 271.535 134.432ZM275.711 127.184C276.127 126.608 276.447 126.048 276.671 125.504C276.927 124.96 277.167 124.208 277.391 123.248C277.487 122.896 277.535 122.464 277.535 121.952C277.567 121.44 277.551 120.976 277.487 120.56C277.455 120.112 277.343 119.872 277.151 119.84C276.735 119.68 276.303 119.68 275.855 119.84C275.439 119.968 274.943 120.352 274.367 120.992C273.855 121.568 273.439 122.112 273.119 122.624C272.831 123.104 272.559 123.696 272.303 124.4C272.079 125.072 271.823 125.952 271.535 127.04C271.279 128.096 271.263 128.944 271.487 129.584C271.743 130.224 272.223 130.4 272.927 130.112C273.631 129.824 274.559 128.848 275.711 127.184ZM295.991 133.184C295.735 132.928 295.543 132.544 295.415 132.032C295.319 131.52 295.287 131.024 295.319 130.544C295.351 130.032 295.431 129.648 295.559 129.392C295.559 129.136 295.591 128.944 295.655 128.816C295.751 128.656 295.783 128.512 295.751 128.384C295.719 128.256 295.751 128.032 295.847 127.712C295.943 127.392 296.039 127.088 296.135 126.8C296.359 126.288 296.615 125.632 296.903 124.832C297.191 124 297.479 123.168 297.767 122.336C298.055 121.472 298.295 120.736 298.487 120.128C298.679 119.488 298.791 119.104 298.823 118.976C298.823 118.592 299.079 118.384 299.591 118.352C299.975 118.224 300.439 118.384 300.983 118.832C301.527 119.28 301.959 119.76 302.279 120.272C302.535 120.528 302.631 120.864 302.567 121.28C302.503 121.696 302.295 122.288 301.943 123.056C301.815 123.312 301.655 123.744 301.463 124.352C301.303 124.928 301.191 125.408 301.127 125.792C300.999 126.048 300.839 126.416 300.647 126.896C300.487 127.344 300.343 127.776 300.215 128.192C300.151 128.352 300.087 128.656 300.023 129.104C299.959 129.52 299.879 129.952 299.783 130.4C299.687 130.848 299.559 131.2 299.399 131.456C299.111 132.768 298.599 133.536 297.863 133.76C297.159 133.984 296.535 133.792 295.991 133.184ZM301.175 113.936C300.823 113.68 300.551 113.376 300.359 113.024C300.199 112.64 300.103 112.304 300.071 112.016C300.071 111.728 300.103 111.552 300.167 111.488C300.487 111.136 300.759 110.672 300.983 110.096C301.239 109.52 301.511 108.992 301.799 108.512C301.863 108.416 301.943 108.288 302.039 108.128C302.167 107.936 302.295 107.824 302.423 107.792C302.807 107.536 303.335 107.552 304.007 107.84C304.711 108.128 305.223 108.528 305.543 109.04C305.831 109.648 305.911 110.272 305.783 110.912C305.687 111.552 305.351 112.224 304.775 112.928C304.295 113.568 303.687 113.984 302.951 114.176C302.215 114.336 301.623 114.256 301.175 113.936ZM310.021 134.336C308.325 134.336 307.077 133.792 306.277 132.704C306.053 132.192 305.941 131.68 305.941 131.168C305.973 130.624 306.101 130.24 306.325 130.016C306.549 129.76 306.821 129.808 307.141 130.16C307.557 130.416 308.149 130.544 308.917 130.544C309.301 130.544 309.637 130.544 309.925 130.544C310.245 130.512 310.613 130.48 311.029 130.448C311.765 130.384 312.229 130.16 312.421 129.776C312.645 129.392 312.597 129.072 312.277 128.816H312.325C311.461 128.592 310.613 128.272 309.781 127.856C308.949 127.44 308.245 126.976 307.669 126.464C307.093 125.92 306.757 125.408 306.661 124.928C306.405 123.872 306.469 122.784 306.853 121.664C307.237 120.544 307.797 119.568 308.533 118.736C308.821 118.544 309.221 118.272 309.733 117.92C310.245 117.536 310.613 117.328 310.837 117.296V117.344C311.445 116.704 312.133 116.192 312.901 115.808C313.669 115.392 314.565 115.008 315.589 114.656L316.357 114.56C316.741 114.496 317.077 114.464 317.365 114.464C317.333 114.464 317.413 114.496 317.605 114.56C317.797 114.624 317.957 114.672 318.085 114.704C318.277 114.8 318.469 114.848 318.661 114.848C319.109 114.912 319.541 115.152 319.957 115.568C320.405 115.952 320.757 116.416 321.013 116.96C321.301 117.472 321.413 117.952 321.349 118.4C321.253 119.136 320.981 119.872 320.533 120.608C320.085 121.312 319.605 121.712 319.093 121.808C319.157 121.776 319.093 121.712 318.901 121.616C318.709 121.52 318.533 121.424 318.373 121.328L318.181 121.424C318.181 121.424 318.165 121.376 318.133 121.28C318.133 121.184 318.101 121.072 318.037 120.944C317.909 120.72 317.813 120.48 317.749 120.224C317.717 119.968 317.717 119.68 317.749 119.36C317.813 119.008 317.829 118.8 317.797 118.736C317.765 118.672 317.573 118.624 317.221 118.592C316.805 118.496 316.277 118.544 315.637 118.736C314.997 118.896 314.405 119.184 313.861 119.6C313.221 120.016 312.741 120.352 312.421 120.608C312.133 120.864 311.909 121.12 311.749 121.376C311.589 121.6 311.413 121.936 311.221 122.384C311.093 122.608 310.981 122.816 310.885 123.008C310.789 123.168 310.741 123.328 310.741 123.488C310.741 123.808 311.013 124.144 311.557 124.496C312.101 124.816 312.917 125.2 314.005 125.648C314.869 126 315.429 126.48 315.685 127.088C315.973 127.696 316.229 128.272 316.453 128.816C316.517 128.944 316.581 129.184 316.645 129.536C316.741 129.856 316.757 130.048 316.693 130.112C316.757 130.176 316.789 130.24 316.789 130.304V130.256C317.045 130.736 316.997 131.248 316.645 131.792C316.325 132.304 315.813 132.784 315.109 133.232C314.405 133.648 313.605 133.952 312.709 134.144H312.757C312.277 134.208 311.797 134.256 311.317 134.288C310.869 134.32 310.437 134.336 310.021 134.336ZM336.219 138.368C336.219 138.368 336.059 138.304 335.739 138.176C335.419 138.08 335.067 137.984 334.683 137.888C334.331 137.792 334.059 137.744 333.867 137.744C333.355 137.616 332.987 137.328 332.763 136.88C332.539 136.464 332.491 136 332.619 135.488C332.747 135.36 332.843 135.088 332.907 134.672C332.971 134.256 333.003 133.92 333.003 133.664C333.131 133.408 333.211 133.232 333.243 133.136C333.275 133.008 333.355 132.688 333.483 132.176C333.579 131.632 333.739 130.88 333.963 129.92C334.219 128.928 334.491 127.872 334.779 126.752C335.099 125.632 335.403 124.56 335.691 123.536C335.979 122.512 336.235 121.648 336.459 120.944C336.715 120.24 336.891 119.84 336.987 119.744C336.987 119.744 336.987 119.696 336.987 119.6C336.987 119.472 336.987 119.344 336.987 119.216C336.987 119.216 337.003 119.072 337.035 118.784C337.099 118.464 337.259 118.112 337.515 117.728C337.643 117.376 337.755 116.992 337.851 116.576C337.947 116.16 337.995 115.888 337.995 115.76C338.123 115.6 338.299 115.216 338.523 114.608C338.779 113.968 339.019 113.344 339.243 112.736C339.435 112.224 339.643 111.68 339.867 111.104C340.123 110.528 340.331 110.032 340.491 109.616C340.683 109.2 340.779 108.992 340.779 108.992C340.779 108.864 340.779 108.8 340.779 108.8C340.779 108.768 340.779 108.752 340.779 108.752C340.907 108.624 341.211 107.984 341.691 106.832C342.203 105.648 342.891 104.128 343.755 102.272C343.883 102.016 344.075 101.616 344.331 101.072C344.587 100.496 344.715 100.144 344.715 100.016C345.195 99.536 345.659 99.376 346.107 99.536C346.587 99.664 347.003 99.936 347.355 100.352C347.739 100.768 348.011 101.152 348.171 101.504L348.651 102.272L346.875 105.728C346.363 106.624 345.915 107.44 345.531 108.176C345.179 108.912 345.003 109.344 345.003 109.472C345.003 109.472 344.923 109.664 344.763 110.048C344.635 110.432 344.475 110.928 344.283 111.536C344.091 112.112 343.899 112.688 343.707 113.264C343.355 114.256 343.019 115.088 342.699 115.76C342.379 116.4 342.219 116.784 342.219 116.912C342.219 116.848 342.539 116.8 343.179 116.768C343.851 116.736 344.683 116.72 345.675 116.72C346.667 116.72 347.675 116.72 348.699 116.72C349.755 116.688 350.699 116.672 351.531 116.672C352.363 116.64 352.939 116.592 353.259 116.528L355.755 116.288L357.099 112.016C357.355 111.12 357.691 110.032 358.107 108.752C358.523 107.472 358.891 106.384 359.211 105.488C359.723 104.016 360.267 102.992 360.843 102.416C361.419 101.808 361.899 101.504 362.283 101.504C362.379 101.504 362.555 101.6 362.811 101.792C363.099 101.952 363.387 102.144 363.675 102.368C363.963 102.592 364.139 102.8 364.203 102.992C364.587 103.344 364.763 103.744 364.731 104.192C364.731 104.64 364.475 105.232 363.963 105.968C363.451 106.832 363.019 107.776 362.667 108.8C362.347 109.792 362.059 110.608 361.803 111.248C361.803 111.632 361.755 111.952 361.659 112.208C361.563 112.432 361.451 112.608 361.323 112.736C361.259 112.8 361.131 113.04 360.939 113.456C360.747 113.872 360.571 114.288 360.411 114.704C360.251 115.12 360.171 115.376 360.171 115.472C360.171 115.696 360.123 115.968 360.027 116.288C359.931 116.608 359.819 116.832 359.691 116.96C359.627 117.152 359.483 117.632 359.259 118.4C359.035 119.168 358.779 120.08 358.491 121.136C358.203 122.16 357.899 123.168 357.579 124.16C357.259 125.12 356.971 125.92 356.715 126.56C356.715 126.784 356.635 127.072 356.475 127.424C356.315 127.744 356.235 128.032 356.235 128.288C356.107 128.672 355.947 129.152 355.755 129.728C355.563 130.304 355.467 130.672 355.467 130.832C355.307 131.568 355.131 132.416 354.939 133.376C354.779 134.336 354.635 135.184 354.507 135.92C354.411 136.656 354.363 137.072 354.363 137.168C353.531 137.264 352.907 137.152 352.491 136.832C352.075 136.512 351.691 136.288 351.339 136.16C350.731 135.808 350.363 135.36 350.235 134.816C350.139 134.304 350.267 133.68 350.619 132.944C350.779 132.688 350.971 132.064 351.195 131.072C351.451 130.048 351.707 129.04 351.963 128.048C352.155 127.568 352.363 126.96 352.587 126.224C352.811 125.488 353.019 124.768 353.211 124.064C353.435 123.328 353.627 122.704 353.787 122.192C353.947 121.68 354.059 121.392 354.123 121.328C354.123 121.2 354.123 121.088 354.123 120.992C354.123 120.896 354.123 120.848 354.123 120.848C354.059 120.784 353.739 120.736 353.163 120.704C352.587 120.64 351.851 120.624 350.955 120.656C350.091 120.656 349.147 120.688 348.123 120.752C347.099 120.784 346.123 120.864 345.195 120.992C344.843 120.992 344.331 120.992 343.659 120.992C343.019 120.992 342.571 120.992 342.315 120.992C341.963 120.992 341.659 120.992 341.403 120.992C341.179 120.992 341.067 120.992 341.067 120.992C341.003 121.088 340.875 121.408 340.683 121.952C340.523 122.496 340.315 123.152 340.059 123.92C339.835 124.688 339.595 125.472 339.339 126.272C339.115 127.072 338.907 127.808 338.715 128.48C338.555 129.12 338.443 129.584 338.379 129.872C338.251 130.448 338.075 131.168 337.851 132.032C337.659 132.896 337.435 133.776 337.179 134.672C336.955 135.6 336.747 136.4 336.555 137.072C336.395 137.744 336.283 138.176 336.219 138.368ZM366.086 134.864C364.326 134.864 362.966 134.352 362.006 133.328C361.078 132.304 360.614 130.736 360.614 128.624C360.614 127.472 360.822 126.208 361.238 124.832C361.686 123.456 362.262 122.112 362.966 120.8C363.702 119.488 364.502 118.352 365.366 117.392C366.23 116.4 367.094 115.712 367.958 115.328C368.278 115.168 368.614 115.056 368.966 114.992C369.35 114.896 369.718 114.848 370.07 114.848C370.454 114.848 370.87 114.88 371.318 114.944C371.798 114.976 372.246 115.072 372.662 115.232C373.398 115.456 374.038 115.888 374.582 116.528C375.158 117.168 375.446 118.096 375.446 119.312C375.446 119.632 375.414 119.984 375.35 120.368C375.286 120.72 375.174 121.072 375.014 121.424C374.598 122.48 373.958 123.488 373.094 124.448C372.262 125.408 371.382 126.08 370.454 126.464C370.198 126.592 369.942 126.688 369.686 126.752C369.462 126.784 369.222 126.8 368.966 126.8C368.294 126.8 367.686 126.704 367.142 126.512C366.63 126.32 366.15 126.064 365.702 125.744L365.318 125.408L365.078 125.888C364.854 126.496 364.694 127.008 364.598 127.424C364.534 127.84 364.502 128.144 364.502 128.336C364.502 128.72 364.518 129.12 364.55 129.536C364.582 129.92 364.678 130.24 364.838 130.496C364.966 130.656 365.126 130.784 365.318 130.88C365.542 130.976 365.814 131.024 366.134 131.024C366.326 131.024 366.502 131.024 366.662 131.024C366.854 130.992 367.014 130.96 367.142 130.928C367.718 130.8 368.182 130.592 368.534 130.304C368.918 129.984 369.318 129.712 369.734 129.488L369.926 129.392L369.878 129.248C370.422 128.96 370.79 128.784 370.982 128.72C371.174 128.624 371.318 128.544 371.414 128.48C371.542 128.352 371.686 128.288 371.846 128.288C372.294 128.224 372.726 128.352 373.142 128.672C373.59 128.96 373.814 129.328 373.814 129.776C373.814 129.968 373.67 130.272 373.382 130.688C373.126 131.104 372.79 131.52 372.374 131.936C371.99 132.32 371.59 132.624 371.174 132.848C371.078 132.88 370.982 132.928 370.886 132.992C370.79 133.024 370.694 133.072 370.598 133.136H370.646C370.358 133.52 370.07 133.712 369.782 133.712H369.398C369.27 133.936 368.854 134.176 368.15 134.432C367.446 134.72 366.758 134.864 366.086 134.864ZM368.582 123.296C368.87 123.296 369.126 123.248 369.35 123.152C369.606 123.056 369.846 122.944 370.07 122.816C370.838 122.272 371.334 121.568 371.558 120.704C371.782 119.84 371.702 119.184 371.318 118.736C371.254 118.64 371.174 118.576 371.078 118.544C370.982 118.48 370.87 118.448 370.742 118.448C370.39 118.448 369.99 118.56 369.542 118.784C369.126 119.008 368.71 119.328 368.294 119.744C367.878 120.16 367.494 120.656 367.142 121.232L366.518 122.24C366.582 122.208 366.63 122.192 366.662 122.192C366.726 122.16 366.774 122.144 366.806 122.144C367.094 122.144 367.286 122.24 367.382 122.432C367.478 122.624 367.59 122.816 367.718 123.008C367.878 123.2 368.166 123.296 368.582 123.296ZM378.181 132.704C377.893 132.48 377.573 132.192 377.221 131.84C376.901 131.488 376.789 130.992 376.885 130.352C376.981 129.456 377.109 128.672 377.269 128C377.429 127.296 377.621 126.496 377.845 125.6C377.909 125.216 378.069 124.56 378.325 123.632C378.613 122.704 378.949 121.696 379.333 120.608C379.717 119.52 380.117 118.496 380.533 117.536C380.949 116.544 381.317 115.808 381.637 115.328C381.989 115.008 382.501 114.848 383.173 114.848C383.877 114.848 384.357 114.976 384.613 115.232C384.965 115.52 385.077 116.032 384.949 116.768C384.821 117.472 384.373 118.576 383.605 120.08C383.445 120.464 383.237 120.88 382.981 121.328C382.757 121.744 382.597 122.096 382.501 122.384C382.405 122.64 382.437 122.752 382.597 122.72C382.789 122.368 383.141 121.968 383.653 121.52C384.165 121.04 384.709 120.576 385.285 120.128C385.861 119.68 386.405 119.28 386.917 118.928C387.429 118.576 387.781 118.352 387.973 118.256C388.229 118.096 388.517 117.968 388.837 117.872C389.189 117.744 389.429 117.648 389.557 117.584C390.293 117.232 391.093 117.104 391.957 117.2C392.853 117.264 393.397 117.536 393.589 118.016C393.621 118.272 393.717 118.464 393.877 118.592C394.069 118.72 394.165 118.784 394.165 118.784C394.293 118.784 394.357 118.832 394.357 118.928C394.389 119.024 394.405 119.072 394.405 119.072C394.405 119.296 394.181 119.616 393.733 120.032C393.317 120.448 392.853 120.672 392.341 120.704C391.925 120.736 391.557 120.816 391.237 120.944C390.917 121.072 390.533 121.232 390.085 121.424C388.869 122.128 387.765 122.752 386.773 123.296C385.813 123.84 384.821 124.672 383.797 125.792C383.573 126.048 383.333 126.288 383.077 126.512C382.821 126.736 382.565 127.056 382.309 127.472C382.149 127.632 381.989 127.984 381.829 128.528C381.669 129.072 381.525 129.6 381.397 130.112C381.301 130.592 381.253 130.88 381.253 130.976C381.253 130.976 381.205 131.136 381.109 131.456C381.013 131.744 380.853 132.032 380.629 132.32C380.245 132.832 379.861 133.152 379.477 133.28C379.125 133.408 378.693 133.216 378.181 132.704ZM397.782 133.568C396.534 133.056 395.67 132.224 395.19 131.072C394.71 129.92 394.582 128.384 394.806 126.464C394.87 125.472 394.838 124.816 394.71 124.496C394.582 124.144 394.342 123.808 393.99 123.488C393.894 123.36 393.67 123.152 393.318 122.864C392.966 122.544 392.806 122.304 392.838 122.144C392.806 121.92 392.854 121.648 392.982 121.328C393.11 120.976 393.222 120.784 393.318 120.752C393.542 120.656 393.766 120.544 393.99 120.416C394.246 120.288 394.438 120.256 394.566 120.32C394.694 120.32 394.886 120.4 395.142 120.56C395.43 120.72 395.574 120.864 395.574 120.992C395.702 121.216 395.894 121.12 396.15 120.704C396.438 120.288 396.742 119.76 397.062 119.12C397.382 118.608 397.782 118.128 398.262 117.68C398.742 117.232 399.222 116.832 399.702 116.48C400.214 116.096 400.646 115.808 400.998 115.616C401.158 115.552 401.462 115.456 401.91 115.328C402.39 115.2 402.886 115.104 403.398 115.04C403.91 114.944 404.294 114.912 404.55 114.944C405.126 114.976 405.734 115.216 406.374 115.664C407.014 116.112 407.51 116.528 407.862 116.912C408.278 117.2 408.55 117.648 408.678 118.256C408.838 118.832 408.902 119.44 408.87 120.08C408.838 120.72 408.71 121.264 408.486 121.712C408.39 122.032 408.054 122.48 407.478 123.056C406.902 123.632 406.262 124.192 405.558 124.736C404.886 125.248 404.31 125.6 403.83 125.792C403.414 125.888 402.918 125.968 402.342 126.032C401.766 126.064 401.222 126.064 400.71 126.032C400.23 125.968 399.894 125.888 399.702 125.792C399.478 125.664 399.286 125.712 399.126 125.936C398.998 126.128 398.886 126.672 398.79 127.568C398.758 127.92 398.758 128.224 398.79 128.48C398.854 128.736 398.918 128.928 398.982 129.056C399.206 129.44 399.43 129.728 399.654 129.92C399.878 130.08 400.294 130.128 400.902 130.064C401.51 130 402.118 129.632 402.726 128.96C403.366 128.256 403.942 127.696 404.454 127.28C404.582 127.056 404.854 126.912 405.27 126.848C405.718 126.752 406.246 126.784 406.854 126.944C407.206 127.168 407.366 127.52 407.334 128C407.334 128.48 407.078 129.184 406.566 130.112C406.47 130.336 406.198 130.672 405.75 131.12C405.334 131.536 404.87 131.968 404.358 132.416C403.878 132.832 403.478 133.136 403.158 133.328C402.198 133.84 401.254 134.08 400.326 134.048C399.398 134.016 398.55 133.856 397.782 133.568ZM401.334 122.768C401.814 122.64 402.214 122.512 402.534 122.384C402.886 122.256 403.222 122.048 403.542 121.76C403.862 121.472 404.23 121.04 404.646 120.464C404.774 120.112 404.838 119.808 404.838 119.552C404.87 119.296 404.854 119.136 404.79 119.072C404.534 118.816 404.246 118.736 403.926 118.832C403.638 118.896 403.318 119.056 402.966 119.312C402.742 119.408 402.422 119.616 402.006 119.936C401.622 120.224 401.238 120.56 400.854 120.944C400.502 121.296 400.214 121.632 399.99 121.952C399.798 122.24 399.766 122.416 399.894 122.48C399.83 122.608 400.006 122.688 400.422 122.72C400.87 122.752 401.174 122.768 401.334 122.768ZM415.349 126.272C414.453 126.432 413.749 126.064 413.237 125.168C412.725 124.24 412.757 122.624 413.333 120.32C413.525 119.936 413.685 119.568 413.813 119.216C413.941 118.832 414.005 118.528 414.005 118.304C414.133 117.888 414.293 117.408 414.485 116.864C414.709 116.288 414.933 115.76 415.157 115.28C415.381 114.768 415.541 114.432 415.637 114.272C415.765 114.272 415.893 114.16 416.021 113.936C416.181 113.712 416.261 113.488 416.261 113.264C416.261 113.008 416.309 112.72 416.405 112.4C416.533 112.08 416.661 111.856 416.789 111.728C416.789 111.568 416.853 111.392 416.981 111.2C417.109 111.008 417.173 110.848 417.173 110.72C417.173 110.592 417.205 110.48 417.269 110.384C417.365 110.288 417.413 110.176 417.413 110.048C417.701 109.536 418.069 108.784 418.517 107.792C418.997 106.768 419.461 105.696 419.909 104.576C420.389 103.456 420.789 102.464 421.109 101.6C421.429 100.736 421.589 100.208 421.589 100.016C421.653 99.76 421.749 99.52 421.877 99.296C422.005 99.072 422.197 98.992 422.453 99.056C422.581 98.96 422.773 98.912 423.029 98.912C423.285 98.88 423.477 98.864 423.605 98.864C423.605 98.864 423.749 98.928 424.037 99.056C424.325 99.184 424.581 99.376 424.805 99.632C425.061 99.856 425.205 100.16 425.237 100.544C425.269 100.928 425.285 101.312 425.285 101.696C425.253 102.304 425.029 102.992 424.613 103.76C424.197 104.528 423.733 105.376 423.221 106.304C422.901 106.912 422.581 107.488 422.261 108.032C421.973 108.576 421.829 108.912 421.829 109.04C421.829 109.168 421.765 109.36 421.637 109.616C421.509 109.872 421.365 110.192 421.205 110.576C421.013 110.896 420.821 111.28 420.629 111.728C420.469 112.176 420.325 112.592 420.197 112.976C420.069 113.328 420.005 113.552 420.005 113.648C419.973 113.776 419.925 113.904 419.861 114.032C419.829 114.16 419.749 114.288 419.621 114.416C419.493 114.416 419.413 114.512 419.381 114.704C419.381 114.864 419.381 114.944 419.381 114.944C419.381 115.072 419.301 115.376 419.141 115.856C419.013 116.304 418.789 116.848 418.469 117.488C417.861 119.184 417.429 120.544 417.173 121.568C416.917 122.56 416.757 123.408 416.693 124.112C416.629 124.88 416.453 125.408 416.165 125.696C415.877 125.952 415.605 126.144 415.349 126.272ZM412.805 133.712C412.133 133.968 411.573 134.08 411.125 134.048C410.677 134.048 410.181 133.84 409.637 133.424C408.997 132.784 408.773 132.144 408.965 131.504C409.189 130.832 409.765 130.192 410.693 129.584C411.333 129.168 411.797 128.96 412.085 128.96C412.405 128.928 412.869 129.04 413.477 129.296C414.565 129.968 415.045 130.72 414.917 131.552C414.789 132.352 414.085 133.072 412.805 133.712Z" fill="#080404"/>
<path d="M218.914 35.9318C218.914 59.6128 196.028 86.5418 187.592 95.6278C185.963 97.3956 183.082 97.3956 181.453 95.6278C172.975 86.5007 150.09 59.6128 150.09 35.9318C150.09 17.2254 165.5 2.05469 184.502 2.05469C203.503 2.05469 218.914 17.2254 218.914 35.9318Z" fill="#ED5B32"/>
<path d="M184.627 51.3493C193.852 51.3493 201.331 43.9866 201.331 34.9042C201.331 25.8217 193.852 18.459 184.627 18.459C175.401 18.459 167.922 25.8217 167.922 34.9042C167.922 43.9866 175.401 51.3493 184.627 51.3493Z" fill="white"/>
</svg>
