<svg width="852" height="636" viewBox="0 0 852 636" fill="none" xmlns="http://www.w3.org/2000/svg">
<g style="mix-blend-mode:screen" clip-path="url(#clip0_577_188)">
<path d="M74.8856 484.15C67.6511 491.073 60.6031 498.76 56.4648 507.997C54.2547 512.938 52.8893 518.273 52.3453 523.655C51.8988 528.074 51.8039 532.642 52.4765 537.044C53.2585 542.153 55.0247 547.263 58.7257 551.014C59.6411 551.943 61.377 552.755 62.4196 551.494C63.3813 550.338 63.1539 548.363 62.1108 547.307C61.7764 546.968 61.4533 546.615 61.1465 546.25C60.9953 546.07 60.85 545.881 60.7047 545.692C60.6318 545.6 60.5643 545.503 60.492 545.406C60.4153 545.304 60.0928 544.863 60.4239 545.315C60.776 545.799 60.2923 545.093 60.2303 544.992C60.1061 544.791 59.9917 544.591 59.873 544.385C59.6286 543.948 59.4049 543.504 59.1968 543.052C59.0986 542.839 59.0161 542.618 58.9126 542.409C59.3504 543.296 58.9973 542.61 58.9037 542.359C58.727 541.89 58.5708 541.415 58.4256 540.93C58.1462 539.993 57.9278 539.038 57.7398 538.076C57.6399 537.583 57.7754 538.277 57.78 538.322C57.7645 538.202 57.7387 538.086 57.7225 537.971C57.686 537.735 57.6495 537.5 57.6179 537.265C57.5482 536.765 57.4937 536.262 57.4441 535.759C57.35 534.794 57.291 533.823 57.2611 532.856C57.2313 531.888 57.2254 530.968 57.2419 530.025C57.2485 529.505 57.2648 528.985 57.2859 528.466C57.2918 528.373 57.2896 527.886 57.2951 528.261C57.2992 528.605 57.2991 528.227 57.3059 528.168C57.3306 527.788 57.3559 527.402 57.3855 527.022C57.5859 524.502 57.9616 521.998 58.525 519.531C58.6637 518.932 58.8116 518.339 58.9691 517.748C59.0479 517.452 59.1316 517.157 59.2152 516.862C59.257 516.714 59.3037 516.567 59.3455 516.419C59.4912 515.93 59.2781 516.618 59.3774 516.315C59.7839 515.108 60.1996 513.907 60.6863 512.729C61.6123 510.486 62.7306 508.324 63.9963 506.249C64.2762 505.789 64.5658 505.331 64.8598 504.879C64.9017 504.815 65.1531 504.431 64.9735 504.705C64.7939 504.979 65.0502 504.596 65.0921 504.532C65.276 504.263 65.4599 503.994 65.6438 503.726C66.3527 502.711 67.0938 501.716 67.8526 500.737C71.1906 496.463 74.9681 492.556 78.8791 488.811C79.9871 487.75 79.4971 485.622 78.5703 484.624C77.5829 483.554 76.0452 483.026 74.8764 484.144L74.8856 484.15Z" fill="white"/>
<path d="M176.241 417.413C174.072 416.004 171.75 414.862 169.432 413.726C168.221 413.133 167.011 412.539 165.814 411.917C165.155 411.575 164.497 411.223 163.851 410.857C163.685 410.764 163.514 410.67 163.348 410.572C163.283 410.535 162.721 410.209 163.057 410.405C163.394 410.602 162.827 410.27 162.763 410.228C162.556 410.106 162.349 409.978 162.143 409.851C161.536 409.48 160.909 409.166 160.171 409.287C159.539 409.39 158.908 409.862 158.656 410.463C158.09 411.818 158.603 413.831 159.907 414.632C162.561 416.26 165.311 417.702 168.109 419.071C169.217 419.614 170.331 420.152 171.426 420.722C171.95 420.995 172.469 421.272 172.982 421.558C173.106 421.626 173.225 421.709 173.356 421.769C173.151 421.666 172.844 421.468 173.226 421.699C173.488 421.858 173.744 422.021 174.001 422.183C174.586 422.566 175.25 422.865 175.973 422.748C176.605 422.644 177.236 422.172 177.488 421.572C178.067 420.188 177.527 418.237 176.237 417.402L176.241 417.413Z" fill="white"/>
<path d="M118.056 389.831C115.238 388.302 112.193 387.19 109.298 385.814C107.987 385.194 106.438 386.027 106.241 387.465C106.021 389.052 106.887 390.658 108.333 391.344C111.228 392.719 114.268 393.831 117.091 395.361C118.378 396.057 119.957 395.095 120.148 393.71C120.38 392.055 119.477 390.602 118.056 389.831Z" fill="white"/>
<path d="M231.511 510.914C236.123 508.668 241.59 507.284 246.633 507.376C247.964 507.398 249.294 507.514 250.602 507.731C251.249 507.84 251.898 507.97 252.534 508.133C252.706 508.178 252.878 508.222 253.054 508.272C252.792 508.197 253.083 508.276 253.12 508.295C253.519 508.42 253.913 508.545 254.3 508.688C254.857 508.891 255.401 509.121 255.938 509.371C256.231 509.509 256.524 509.656 256.812 509.807C256.941 509.877 257.071 509.951 257.2 510.02C257.394 510.131 257.408 510.138 257.238 510.039C257.339 510.1 257.44 510.161 257.54 510.227C258.049 510.547 258.541 510.885 259.016 511.25C259.305 511.471 259.588 511.7 259.86 511.939C259.954 512.019 260.043 512.103 260.137 512.182C260.311 512.34 260.32 512.346 260.16 512.2C260.235 512.273 260.306 512.34 260.376 512.412C261.165 513.198 261.867 514.057 262.52 514.959C262.825 515.383 262.266 514.561 262.549 515.002C262.616 515.108 262.687 515.215 262.758 515.321C262.907 515.56 263.052 515.798 263.191 516.041C263.473 516.531 263.735 517.029 263.981 517.535C264.116 517.816 264.245 518.097 264.369 518.382C264.413 518.475 264.451 518.573 264.494 518.667C264.264 518.143 264.478 518.636 264.52 518.734C264.74 519.296 264.94 519.865 265.123 520.442C265.486 521.591 265.778 522.762 266.005 523.939C266.027 524.045 266.044 524.15 266.066 524.256C266.166 524.794 266.006 523.841 266.086 524.381C266.128 524.652 266.171 524.918 266.209 525.188C266.3 525.838 266.376 526.491 266.433 527.147C266.537 528.359 266.587 529.575 266.588 530.79C266.586 531.4 266.574 532.008 266.552 532.621C266.549 532.733 266.541 532.841 266.538 532.953C266.559 532.523 266.529 533.075 266.528 533.124C266.509 533.457 266.485 533.783 266.457 534.114C266.353 535.342 266.2 536.564 266.004 537.78C265.808 538.997 265.571 540.145 265.288 541.307C265.165 541.809 265.033 542.315 264.891 542.815C264.807 543.11 264.719 543.405 264.631 543.695C264.734 543.358 264.654 543.619 264.632 543.685C264.57 543.875 264.509 544.064 264.447 544.259C263.691 546.522 262.713 548.7 261.554 550.788C260.253 553.125 258.968 554.987 257.201 557.102C255.542 559.088 253.708 560.93 251.71 562.576C250.855 563.283 249.951 563.95 248.852 564.673C247.754 565.395 246.683 566.018 245.548 566.589C244.414 567.16 243.286 567.634 242.109 568.057C242.064 568.072 241.802 568.164 242.063 568.076C241.909 568.127 241.751 568.178 241.593 568.228C241.332 568.311 241.072 568.384 240.808 568.456C240.183 568.629 239.55 568.777 238.911 568.899C236.434 569.378 234.551 569.443 232.137 569.093C231.542 569.004 230.955 568.891 230.37 568.754C230.102 568.688 229.834 568.623 229.567 568.547C229.935 568.649 229.402 568.493 229.373 568.485C229.212 568.432 229.055 568.384 228.894 568.326C227.631 567.893 226.427 567.33 225.262 566.683C225.216 566.657 224.949 566.498 225.221 566.658C225.064 566.566 224.908 566.469 224.752 566.372C224.491 566.209 224.236 566.036 223.98 565.864C223.347 565.431 222.736 564.971 222.148 564.485C221.892 564.273 221.641 564.061 221.396 563.841C221.245 563.705 221.093 563.57 220.947 563.434C221.182 563.649 220.863 563.351 220.805 563.3C220.257 562.769 219.726 562.215 219.232 561.636C218.786 561.112 218.363 560.566 217.971 559.998C218.207 560.341 218.022 560.073 217.976 559.999C217.881 559.845 217.78 559.696 217.686 559.537C217.495 559.23 217.32 558.919 217.145 558.604C216.838 558.032 216.561 557.448 216.301 556.852C216.483 557.272 216.324 556.909 216.282 556.801C216.229 556.667 216.176 556.528 216.128 556.394C216.009 556.066 215.895 555.738 215.791 555.406C215.601 554.798 215.436 554.184 215.297 553.563C215.232 553.28 215.176 552.993 215.121 552.711C215.005 552.146 215.177 553.111 215.091 552.54C215.054 552.31 215.017 552.079 214.99 551.85C214.815 550.565 214.724 549.276 214.693 547.978C214.678 547.352 214.682 546.723 214.692 546.094C214.701 545.766 214.71 545.432 214.719 545.099C214.727 544.947 214.73 544.795 214.737 544.649C214.743 544.516 214.742 544.526 214.733 544.687C214.737 544.565 214.747 544.443 214.755 544.326C214.838 542.983 214.96 541.645 215.101 540.308C215.242 538.972 215.41 537.619 215.571 536.276C215.697 535.243 215.165 534.108 214.175 533.688C213.298 533.315 212.26 533.784 212.138 534.788C211.442 540.413 210.687 546.212 211.568 551.864C212.03 554.82 212.886 557.694 214.342 560.318C215.895 563.121 218.043 565.501 220.496 567.548C224.881 571.217 230.304 573.326 236.041 573.252C241.251 573.186 246.349 571.242 250.673 568.427C259.743 562.524 266.297 552.989 268.782 542.492C271.119 532.617 270.766 520.879 264.683 512.359C261.346 507.685 256.123 504.789 250.518 503.81C244.745 502.807 238.754 503.712 233.28 505.666C232.001 506.122 230.748 506.654 229.527 507.25C227.586 508.194 229.546 511.861 231.502 510.908L231.511 510.914Z" fill="white"/>
<path d="M59.0668 551.066C63.8206 554.99 70.4745 555.112 76.2096 553.744C82.2037 552.309 87.5807 549.286 92.3082 545.376C97.1068 541.406 101.151 536.565 104.588 531.393C108.265 525.86 111.279 519.896 113.311 513.567C115.623 506.365 116.74 498.812 116.185 491.246C116.11 490.249 115.365 489.168 114.319 489.021C113.273 488.875 112.629 489.793 112.701 490.741C112.936 493.961 112.883 496.94 112.532 500.033C112.182 503.125 111.552 506.332 110.688 509.394C109.048 515.229 106.368 521.074 103.14 526.345C99.9121 531.615 96.1908 536.306 91.7505 540.412C89.5555 542.438 87.3802 544.127 84.8158 545.693C83.5816 546.444 82.3056 547.131 80.9944 547.741C80.3964 548.015 79.7953 548.275 79.1813 548.518C78.6447 548.731 77.8946 549.002 77.5728 549.102C76.0816 549.568 74.5788 549.963 73.0379 550.221C72.2297 550.358 71.4157 550.46 70.5965 550.522C69.8318 550.58 69.2342 550.599 68.6065 550.58C67.8072 550.556 67.0087 550.482 66.2213 550.356C65.8637 550.299 65.503 550.228 65.1482 550.147C64.9708 550.107 64.7989 550.062 64.6221 550.017C64.4124 549.958 64.3881 549.955 64.5504 549.999C64.4647 549.974 64.3796 549.944 64.2944 549.915C63.5832 549.684 62.8938 549.392 62.2355 549.045C62.2124 549.032 61.7006 548.737 62.0364 548.938C61.8798 548.846 61.7286 548.75 61.578 548.649C61.2268 548.411 60.8876 548.155 60.5598 547.885C59.8284 547.279 58.6629 547.399 58.2338 548.293C57.7654 549.271 58.294 550.435 59.0663 551.071L59.0668 551.066Z" fill="white"/>
<path d="M224.02 510.894C219.643 513.994 216.531 518.736 214.149 523.461C213.22 525.305 216.2 528.028 217.307 525.831C218.415 523.634 219.627 521.596 221.022 519.718C221.776 518.704 222.579 517.725 223.448 516.808C223.88 516.357 224.325 515.917 224.791 515.504C224.995 515.321 225.202 515.149 225.414 514.972C225.507 514.899 225.507 514.894 225.415 514.967L225.555 514.86C225.696 514.754 225.84 514.652 225.98 514.551C226.817 513.955 226.95 512.819 226.436 511.948C226.026 511.246 224.884 510.276 224.01 510.897L224.02 510.894Z" fill="white"/>
<path d="M159.678 413.99C153.432 411.25 147.168 408.547 140.936 405.779C136.323 403.726 131.743 401.603 127.223 399.349C124.237 397.86 121.277 396.324 118.328 394.77C118.013 394.605 117.676 394.837 117.609 395.158C117.53 395.538 117.783 395.902 118.103 396.072C122.989 398.648 127.907 401.165 132.908 403.519C137.801 405.826 142.76 407.993 147.718 410.16C151.628 411.871 155.543 413.577 159.452 415.292C160.295 415.661 160.361 414.291 159.678 413.99Z" fill="white"/>
<path d="M111.599 468.659C116.569 461.747 121.507 454.763 125.524 447.244C129.541 439.724 132.414 431.8 134.355 423.557C135.738 417.688 136.674 411.727 137.377 405.744C137.419 405.38 137.235 404.98 136.883 404.831C136.573 404.701 136.205 404.865 136.164 405.219C135.021 414.972 133.25 424.717 129.935 433.981C127.221 441.559 123.435 448.657 119.07 455.408C116.393 459.543 113.537 463.563 110.665 467.561C110.236 468.156 111.14 469.304 111.604 468.659L111.599 468.659Z" fill="white"/>
<path d="M130.166 450.023C139.25 454.24 148.396 458.313 157.561 462.352C166.786 466.419 176.024 470.458 185.224 474.575C190.364 476.877 195.496 479.202 200.603 481.573C201.434 481.96 201.5 480.586 200.829 480.271C191.744 476.054 182.598 471.982 173.434 467.942C164.209 463.875 154.97 459.837 145.771 455.719C140.631 453.418 135.499 451.093 130.392 448.721C129.561 448.334 129.494 449.709 130.166 450.023Z" fill="white"/>
<path d="M205.063 434.471C206.261 437.193 208.652 439.1 211.175 440.545C213.989 442.157 217.07 443.254 220.111 444.347C221.764 444.943 223.418 445.529 225.042 446.206C225.891 446.56 225.957 445.196 225.268 444.904C222.457 443.73 219.552 442.811 216.72 441.698C213.887 440.586 211.087 439.364 208.774 437.417C207.627 436.452 206.69 435.29 206.082 433.916C205.95 433.615 205.535 433.38 205.225 433.545C204.879 433.731 204.936 434.17 205.064 434.466L205.063 434.471Z" fill="white"/>
<path d="M120.156 392.972C130.707 398.246 141.61 402.828 152.486 407.377C155.367 408.584 158.254 409.777 161.142 410.969C161.992 411.319 162.057 409.955 161.367 409.667C150.389 405.146 139.422 400.571 128.638 395.609C125.868 394.337 123.112 393.032 120.387 391.671C120.066 391.511 119.735 391.733 119.667 392.059C119.59 392.429 119.836 392.812 120.161 392.973L120.156 392.972Z" fill="white"/>
<path d="M178.472 514.119C171.176 506.972 164.208 499.504 157.278 492.001C150.532 484.697 143.819 477.357 136.83 470.281C132.935 466.339 128.951 462.48 124.837 458.764C124.584 458.533 124.171 458.607 124.018 458.909C123.84 459.257 124.054 459.656 124.312 459.888C131.613 466.485 138.483 473.538 145.214 480.712C151.946 487.887 158.807 495.475 165.703 502.762C169.624 506.904 173.596 510.992 177.673 514.985C178.348 515.649 179.082 514.716 178.468 514.113L178.472 514.119Z" fill="white"/>
<path d="M237.096 538.653C222.316 533.687 207.032 530.517 192.026 526.352C187.727 525.157 183.452 523.876 179.218 522.453C178.347 522.16 178.278 523.514 178.993 523.755C193.772 528.72 209.057 531.89 224.063 536.055C228.362 537.25 232.637 538.531 236.865 539.954C237.737 540.247 237.806 538.893 237.091 538.652L237.096 538.653Z" fill="white"/>
<path d="M128.49 453.356C137.557 457.641 146.705 461.738 155.879 465.778C164.865 469.739 173.872 473.657 182.831 477.682C188.054 480.033 193.262 482.421 198.444 484.87C199.274 485.262 199.341 483.887 198.67 483.568C189.602 479.289 180.455 475.187 171.281 471.146C162.107 467.105 153.287 463.273 144.329 459.242C139.106 456.892 133.897 454.504 128.716 452.055C127.885 451.663 127.819 453.037 128.49 453.356Z" fill="white"/>
<path d="M182.694 518.333C191.765 505.623 200.362 492.588 209.169 479.695C211.638 476.078 214.13 472.473 216.65 468.886C217.069 468.29 216.165 467.137 215.71 467.787C206.73 480.562 198.156 493.61 189.295 506.467C186.807 510.072 184.302 513.666 181.754 517.235C181.331 517.83 182.235 518.978 182.694 518.333Z" fill="white"/>
<path d="M230.969 446.922C227.03 452.001 223.223 457.174 219.492 462.411C219.068 463.005 219.973 464.154 220.432 463.509C224.162 458.277 227.965 453.099 231.908 448.02C232.36 447.443 231.456 446.29 230.969 446.922Z" fill="white"/>
<path d="M212.742 463.758C203.465 476.753 194.462 489.943 185.321 503.038C182.763 506.704 180.19 510.364 177.6 514.011C177.176 514.606 178.08 515.754 178.539 515.109C187.771 502.119 196.753 488.946 205.889 475.89C208.47 472.202 211.064 468.525 213.676 464.86C214.1 464.265 213.195 463.117 212.736 463.762L212.742 463.758Z" fill="white"/>
<path d="M225.21 446.34C221.7 451.115 218.282 455.95 214.849 460.783C214.426 461.378 215.33 462.526 215.789 461.882C219.217 457.053 222.64 452.213 226.15 447.438C226.583 446.849 225.679 445.696 225.21 446.34Z" fill="white"/>
<path d="M167.051 508.833C161.295 502.825 155.711 496.654 150.099 490.511C144.492 484.367 138.853 478.245 132.992 472.337C129.685 469.005 126.301 465.743 122.825 462.588C122.572 462.357 122.16 462.432 122.006 462.734C121.827 463.087 122.042 463.48 122.301 463.712C128.441 469.293 134.267 475.206 139.949 481.25C145.597 487.256 151.112 493.388 156.687 499.464C159.844 502.906 163.027 506.332 166.256 509.704C166.914 510.391 167.648 509.453 167.051 508.833Z" fill="white"/>
<path d="M182.416 518.937C197.267 524.559 212.727 528.286 227.847 533.079C232.142 534.441 236.411 535.893 240.624 537.491C241.487 537.818 241.552 536.458 240.85 536.19C225.999 530.567 210.539 526.84 195.419 522.047C191.124 520.685 186.855 519.233 182.642 517.635C181.779 517.308 181.714 518.668 182.416 518.937Z" fill="white"/>
<path d="M172.701 520.38C167.662 528.1 161.492 535.01 156.452 542.735C156.057 543.343 157.092 544.3 157.565 543.573C162.604 535.853 168.77 528.938 173.814 521.218C174.21 520.61 173.175 519.653 172.701 520.38Z" fill="white"/>
<path d="M178.447 522.121C173.878 528.298 168.657 533.95 163.8 539.896C162.446 541.553 161.123 543.234 159.849 544.954C159.411 545.543 160.315 546.696 160.789 546.053C165.358 539.876 170.579 534.224 175.436 528.278C176.79 526.621 178.113 524.94 179.387 523.22C179.824 522.631 178.92 521.478 178.447 522.121Z" fill="white"/>
<path d="M191.032 520.188C191.632 518.079 192.029 515.897 192.108 513.703C192.181 511.685 191.954 509.533 190.738 507.857C190.542 507.588 190.111 507.494 189.87 507.746C189.596 508.024 189.751 508.465 189.941 508.733C190.955 510.13 190.959 512.201 190.861 513.848C190.744 515.816 190.358 517.778 189.817 519.673C189.61 520.396 190.775 521.083 191.03 520.198L191.032 520.188Z" fill="white"/>
<path d="M168.275 537.818C171.445 539.083 174.85 539.215 178.071 538.051C181.292 536.887 183.803 534.725 185.827 532.177C186.999 530.701 187.994 529.085 188.803 527.379C189.116 526.722 188.062 525.758 187.691 526.541C185.128 531.933 180.247 537.07 173.952 537.457C172.088 537.574 170.232 537.205 168.501 536.516C167.645 536.176 167.579 537.54 168.275 537.818Z" fill="white"/>
<path d="M164.921 509.361C162.941 511.653 161.568 514.483 160.658 517.348C159.617 520.616 159.102 524.147 159.624 527.562C159.92 529.495 160.529 531.362 161.538 533.048C162.008 533.831 163.03 533.291 162.557 532.498C159.268 526.989 160.62 519.7 163.375 514.261C164.06 512.905 164.87 511.612 165.866 510.46C166.344 509.9 165.45 508.749 164.926 509.361L164.921 509.361Z" fill="white"/>
<path d="M184.342 503.311C180.132 501.851 174.93 502.528 171.254 505.061C170.623 505.494 171.329 506.781 171.95 506.352C175.348 504.013 180.199 503.256 184.111 504.612C184.981 504.916 185.046 503.556 184.337 503.311L184.342 503.311Z" fill="white"/>
<path d="M153.06 545.22C151.988 546.098 151.08 547.301 150.316 548.446C150.084 548.793 150.151 549.312 150.526 549.558C152.213 550.664 153.841 551.853 155.474 553.037C156.64 553.886 157.814 554.751 159.099 555.417C160.12 555.95 161.226 556.295 162.384 556.282C163.651 556.268 164.867 555.834 165.992 555.267C168.067 554.225 169.929 552.77 171.745 551.339C172.021 551.12 171.875 550.557 171.673 550.352C170.161 548.842 168.391 547.608 166.467 546.68C164.776 545.863 162.88 545.239 160.975 545.366C160.182 545.421 160.645 546.808 161.374 546.755C163.051 546.641 164.75 547.262 166.236 547.981C167.932 548.799 169.537 549.891 170.873 551.222L170.801 550.235C169.224 551.478 167.604 552.71 165.837 553.685C164.758 554.282 163.596 554.791 162.352 554.872C160.04 555.03 157.983 553.344 156.232 552.073C154.48 550.801 152.816 549.584 151.052 548.424L151.262 549.535C152.025 548.39 152.933 547.187 154.005 546.309C154.566 545.848 153.692 544.693 153.066 545.211L153.06 545.22Z" fill="white"/>
<path d="M151.841 549.786C153.711 550.334 155.521 551.106 157.251 552.006C158.833 552.83 160.401 553.78 161.71 555.005C161.87 555.151 162.132 555.182 162.32 555.086C164.075 554.218 166.014 554.007 167.846 553.365C168.549 553.117 167.873 551.823 167.15 552.073C165.318 552.716 163.39 552.919 161.624 553.795L162.235 553.876C160.891 552.617 159.271 551.651 157.649 550.793C155.869 549.853 153.999 549.049 152.063 548.479C151.183 548.219 151.114 549.568 151.837 549.781L151.841 549.786Z" fill="white"/>
<path d="M231.141 543.251C231.558 544.746 232.344 546.185 233.653 547.076C234.811 547.865 236.186 548.139 237.572 548.069C240.562 547.921 243.495 546.271 245.609 544.225C247.722 542.18 249.065 539.188 248.743 536.17C248.421 533.152 246.59 530.41 243.906 529.079C242.585 528.423 241.023 528.187 239.599 528.626C237.853 529.165 236.612 530.525 235.75 532.087C235.4 532.725 236.445 533.683 236.863 532.925C238.093 530.693 240.373 529.163 242.954 530.07C245.261 530.88 246.943 533.043 247.42 535.406C248.507 540.771 243.392 545.467 238.539 546.49C237.267 546.76 235.891 546.791 234.686 546.232C233.384 545.628 232.671 544.394 232.301 543.057C232.072 542.233 230.876 542.32 231.138 543.241L231.141 543.251Z" fill="white"/>
<path d="M235.728 531.878C232.114 525.185 229.032 518.234 225.97 511.281C222.981 504.499 219.969 497.713 216.36 491.228C214.257 487.446 211.948 483.783 209.42 480.271C209.225 480.002 208.793 479.907 208.552 480.16C208.283 480.443 208.429 480.873 208.624 481.147C213.029 487.258 216.657 493.869 219.896 500.661C223.134 507.453 225.885 514.114 228.963 520.808C230.768 524.737 232.658 528.622 234.714 532.428C235.151 533.237 236.169 532.691 235.732 531.878L235.728 531.878Z" fill="white"/>
<path d="M237.142 529.302C235.308 523.972 233.423 518.657 231.353 513.413C231.231 513.103 230.954 512.741 230.572 512.81C230.23 512.873 230.068 513.292 230.19 513.597C232.26 518.841 234.14 524.156 235.979 529.486C236.089 529.804 236.388 530.158 236.76 530.088C237.112 530.026 237.248 529.614 237.142 529.302Z" fill="white"/>
<path d="M229.482 508.77C225.765 499.802 221.429 491.072 216.23 482.861C214.775 480.567 213.256 478.314 211.674 476.103C211.484 475.835 211.047 475.739 210.806 475.992C210.537 476.275 210.683 476.705 210.878 476.979C216.456 484.767 221.161 493.151 225.183 501.835C226.327 504.304 227.418 506.802 228.458 509.319C228.586 509.619 229.011 509.856 229.316 509.69C229.668 509.5 229.6 509.069 229.477 508.769L229.482 508.77Z" fill="white"/>
<path d="M212.418 463.828C214.467 465.882 217.782 468.221 220.741 466.599C221.414 466.23 220.718 464.939 220.045 465.308C217.638 466.626 214.875 464.621 213.214 462.957C212.984 462.728 212.61 462.562 212.346 462.846C212.104 463.103 212.185 463.594 212.418 463.833L212.418 463.828Z" fill="white"/>
<path d="M219.119 552.274C220.593 557.532 223.171 564.035 228.818 565.997C234.068 567.82 239.694 565.018 244.024 562.198C249.169 558.844 253.624 554.572 257.226 549.597C260.803 544.662 263.683 539.002 264.69 532.942C265.669 527.04 264.544 521.031 260.919 516.201C260.434 515.554 259.91 514.937 259.354 514.346C258.702 513.65 257.972 514.593 258.559 515.217C260.532 517.326 262.075 519.794 262.939 522.555C263.753 525.154 263.973 527.905 263.712 530.609C263.161 536.388 260.689 541.885 257.53 546.695C254.37 551.506 250.521 555.696 245.98 559.057C243.432 560.944 240.724 562.689 237.783 563.895C235.607 564.787 233.205 565.388 230.841 565.102C225.514 564.451 222.683 559.276 221.091 554.693C220.792 553.837 220.53 552.965 220.283 552.09C220.054 551.267 218.858 551.353 219.119 552.274Z" fill="white"/>
<path d="M225.272 519.354C222.62 521.464 220.542 524.168 218.484 526.84C218.037 527.423 218.937 528.57 219.424 527.938C221.482 525.272 223.559 522.567 226.212 520.452C226.781 520.002 225.907 518.847 225.272 519.354Z" fill="white"/>
<path d="M253.898 510.699C246.596 508.622 238.306 510.169 231.909 514.13C231.257 514.536 231.958 515.823 232.605 515.421C238.854 511.551 246.856 510.064 253.987 512.087C254.345 512.187 254.57 511.776 254.56 511.479C254.547 511.089 254.261 510.795 253.904 510.695L253.898 510.699Z" fill="white"/>
<path d="M172.764 530.943C175.106 532.087 177.687 532.024 179.95 530.719C182.214 529.414 183.77 527.461 185.097 525.373C185.488 524.759 184.448 523.802 183.984 524.535C182.797 526.398 181.301 528.211 179.381 529.354C177.355 530.564 175.118 530.677 172.99 529.642C172.668 529.486 172.338 529.703 172.27 530.03C172.193 530.4 172.438 530.783 172.764 530.943Z" fill="white"/>
<path d="M169.404 512.412C167.627 514.438 166.222 516.906 165.848 519.607C165.474 522.308 166.25 524.936 167.977 527.051C168.584 527.796 169.311 526.838 168.772 526.18C165.517 522.19 167.272 517.018 170.348 513.511C170.831 512.957 169.942 511.806 169.408 512.413L169.404 512.412Z" fill="white"/>
<path d="M115.912 472.861C118.858 468.36 121.827 463.876 124.622 459.278C127.417 454.681 130.116 450.067 132.073 445.101C134.45 439.067 136.38 432.814 138.007 426.541C139.536 420.645 140.769 414.63 141.189 408.545C141.212 408.179 141.056 407.782 140.695 407.632C140.399 407.509 140.003 407.659 139.975 408.02C139.606 413.427 138.578 418.777 137.296 424.033C136.174 428.629 134.832 433.17 133.325 437.652C132.592 439.844 131.831 442.028 130.99 444.178C129.279 448.553 126.936 452.687 124.542 456.716C121.451 461.914 118.111 466.96 114.795 472.018C114.394 472.625 115.434 473.583 115.908 472.856L115.912 472.861Z" fill="white"/>
<path d="M90.3093 519.384C100.023 509.558 109.108 498.208 113.492 484.922C114.708 481.242 115.535 477.448 115.862 473.585C115.895 473.22 115.73 472.822 115.368 472.672C115.068 472.548 114.681 472.7 114.649 473.06C113.461 486.96 105.913 499.395 97.1056 509.848C94.644 512.768 92.0487 515.569 89.3647 518.285C88.8458 518.81 89.7351 519.962 90.3045 519.384L90.3093 519.384Z" fill="white"/>
<path d="M108.406 475.879C108.158 479.313 106.723 482.623 105.226 485.675C103.379 489.439 101.174 493.033 98.8429 496.52C95.3623 501.721 91.5922 506.746 87.5912 511.557C86.9158 512.369 86.0613 512.987 85.4665 513.867C84.8299 514.811 84.4561 515.948 84.7469 517.084C85.0778 518.381 86.1641 519.236 87.3189 519.799C88.1431 520.2 88.2105 518.821 87.5445 518.497C86.7063 518.089 85.8061 517.453 85.8733 516.413C85.9404 515.373 86.6668 514.504 87.3603 513.832C87.8101 513.393 88.199 513.055 88.5989 512.58C90.099 510.772 91.5594 508.926 92.9869 507.066C97.7806 500.818 102.405 494.294 105.972 487.253C107.672 483.9 109.338 480.208 109.613 476.409C109.641 476.043 109.481 475.646 109.12 475.495C108.824 475.372 108.427 475.523 108.4 475.884L108.406 475.879Z" fill="white"/>
<path d="M108.315 468.359C104.475 469.766 100.887 472.087 97.9696 474.949C97.447 475.463 98.3308 476.619 98.9093 476.047C101.755 473.255 105.263 471.023 109.006 469.65C109.71 469.392 109.029 468.098 108.31 468.359L108.315 468.359Z" fill="white"/>
<path d="M99.0745 480.691C97.8222 482.483 96.321 484.089 94.9338 485.771C92.5953 488.607 90.4867 491.623 88.5434 494.741C86.8064 497.524 85.1986 500.381 83.6554 503.275C83.3145 503.919 84.3592 504.877 84.7682 504.113C87.1752 499.593 89.7466 495.142 92.7234 490.969C94.341 488.703 96.1198 486.574 97.918 484.447C98.6481 483.588 99.3696 482.718 100.014 481.79C100.434 481.189 99.5293 480.041 99.0745 480.691Z" fill="white"/>
<path d="M92.7097 482.021C86.6311 487.726 82.4887 495.226 79.4142 502.895C78.5321 505.099 77.7346 507.338 76.9991 509.593C76.8839 509.949 76.9805 510.344 77.2934 510.572C77.5289 510.747 77.9973 510.782 78.1125 510.427C80.6617 502.578 83.9917 494.787 89.0505 488.205C90.4482 486.391 91.9764 484.681 93.6452 483.114C94.1813 482.611 93.2968 481.46 92.7054 482.016L92.7097 482.021Z" fill="white"/>
<path d="M88.6809 508.841C88.9777 507.646 89.1913 506.279 88.6729 505.112C88.3066 504.287 87.5441 503.736 86.6437 503.651C84.5218 503.447 82.3422 504.92 80.7647 506.167C78.8619 507.672 77.4403 509.522 76.5983 511.805C75.69 514.276 75.3785 517.58 76.8125 519.926C77.4947 521.039 78.594 521.782 79.9323 521.657C81.7529 521.491 83.3033 519.97 84.4696 518.704C84.9659 518.162 84.0766 517.011 83.5298 517.606C82.5823 518.641 81.3973 519.856 79.9748 520.197C79.1089 520.405 78.4381 520.165 77.9578 519.558C77.4345 518.897 77.1909 517.821 77.1188 516.878C77.023 515.632 77.1804 514.367 77.5367 513.169C78.1496 511.12 79.2963 509.39 80.8748 507.965C82.2661 506.711 84.043 505.443 85.9239 505.096C86.3464 505.018 86.6197 504.995 87.0224 505.087C87.0989 505.105 87.0095 505.07 87.1598 505.132C87.2018 505.152 87.4004 505.264 87.2772 505.18C87.3229 505.21 87.5196 505.381 87.3961 505.258C87.4267 505.291 87.5645 505.46 87.5179 505.395C87.5854 505.492 87.6226 505.595 87.667 505.762C87.7083 505.914 87.7305 506.104 87.7416 506.346C87.7629 507.008 87.6211 507.675 87.4627 508.316C87.2796 509.042 88.4536 509.735 88.676 508.841L88.6809 508.841Z" fill="white"/>
<path d="M98.3943 474.802C90.8995 473.958 83.105 476.147 77.1734 480.802C76.8216 481.076 77.1162 481.715 77.3834 481.914C79.8245 483.768 82.8183 484.85 85.0784 486.948C85.2245 487.088 85.5141 487.137 85.689 487.029C88.8436 485.129 92.2487 483.613 95.7584 482.508C99.3196 481.383 103.081 480.607 106.828 480.715C107.697 480.737 107.471 479.343 106.74 479.322C102.875 479.211 99.0331 479.958 95.3595 481.118C91.6859 482.278 88.2376 483.785 84.9932 485.738L85.6038 485.819C83.3443 483.716 80.3548 482.639 77.9087 480.785L78.1186 481.896C83.7791 477.456 91.3436 475.382 98.4834 476.19C99.3428 476.29 99.1231 474.882 98.3949 474.797L98.3943 474.802Z" fill="white"/>
<path d="M190.281 492.23C190.027 491.925 189.669 491.696 189.334 491.49C188.811 491.168 188.269 490.874 187.721 490.594C186.64 490.035 185.534 489.517 184.433 489C184.116 488.85 183.772 489.051 183.713 489.388C183.646 489.754 183.876 490.145 184.207 490.302C185.262 490.794 186.316 491.291 187.356 491.825C187.621 491.959 187.881 492.098 188.14 492.236C188.265 492.305 188.39 492.374 188.515 492.442C188.566 492.468 188.611 492.498 188.662 492.528C188.703 492.553 188.699 492.552 188.652 492.527C188.68 492.545 188.708 492.558 188.735 492.576C188.914 492.686 189.094 492.795 189.266 492.918C189.334 492.966 189.396 493.027 189.469 493.075C189.564 493.145 189.356 492.993 189.425 493.03C189.453 493.044 189.473 493.085 189.495 493.107C189.702 493.358 190.115 493.49 190.363 493.219C190.611 492.947 190.502 492.492 190.291 492.231L190.281 492.23Z" fill="white"/>
<path d="M183.133 490.202C181.709 491.354 180.924 493.107 180.169 494.726C180.006 495.076 180.19 495.476 180.464 495.705C181.467 496.555 182.505 497.359 183.63 498.046C184.756 498.734 186.062 499.393 187.434 499.572C188.292 499.682 188.072 498.274 187.345 498.18C186.123 498.022 184.98 497.442 183.949 496.795C182.917 496.148 181.929 495.379 180.988 494.58L181.283 495.559C182.004 494.02 182.725 492.392 184.073 491.295C184.356 491.063 184.196 490.538 184.001 490.308C183.763 490.03 183.421 489.965 183.134 490.197L183.133 490.202Z" fill="white"/>
<path d="M181.381 492.859C183.58 494.296 185.779 495.738 187.974 497.175C188.774 497.696 189.166 496.487 188.499 496.05C186.299 494.613 184.1 493.172 181.906 491.735C181.105 491.214 180.713 492.422 181.381 492.859Z" fill="white"/>
<path d="M174.68 517.804C173.273 516.031 171.767 514.341 170.36 512.568C170.159 512.314 169.735 512.19 169.492 512.457C169.233 512.737 169.354 513.179 169.564 513.444C170.971 515.217 172.478 516.903 173.884 518.68C174.086 518.935 174.51 519.058 174.752 518.791C175.011 518.512 174.891 518.07 174.68 517.804Z" fill="white"/>
<path d="M177.812 515.94C176.89 516.674 176.005 517.505 175.412 518.538C175.053 519.17 174.817 519.973 175.068 520.687C175.32 521.4 175.922 521.893 176.67 521.975C177.418 522.057 178.146 521.808 178.774 521.448C179.812 520.856 180.607 519.945 181.259 518.959C181.343 518.831 181.322 518.583 181.284 518.445C181.236 518.273 181.116 518.077 180.965 517.975C180.833 517.886 180.665 517.808 180.503 517.843C180.342 517.878 180.242 517.975 180.146 518.121C180.242 517.975 180.117 518.162 180.093 518.193C180.057 518.248 180.017 518.303 179.976 518.357C179.9 518.461 179.819 518.565 179.738 518.668C179.582 518.862 179.417 519.054 179.239 519.23C179.083 519.389 178.917 519.542 178.748 519.689C178.71 519.719 178.672 519.749 178.639 519.78C178.546 519.858 178.757 519.69 178.66 519.763C178.644 519.775 178.628 519.788 178.611 519.801C178.525 519.865 178.434 519.933 178.343 519.991C178.045 520.188 177.731 520.348 177.397 520.471C177.314 520.501 177.565 520.417 177.422 520.464C177.386 520.475 177.351 520.485 177.31 520.495C177.234 520.516 177.158 520.532 177.083 520.548C176.947 520.571 176.812 520.585 176.679 520.594C176.604 520.6 176.782 520.596 176.777 520.596C176.772 520.595 176.728 520.59 176.718 520.594C176.689 520.59 176.665 520.587 176.635 520.584C176.572 520.577 176.514 520.57 176.451 520.562C176.422 520.559 176.393 520.551 176.369 520.543C176.254 520.52 176.545 520.603 176.431 520.56C176.38 520.539 176.332 520.524 176.281 520.498C176.258 520.486 176.235 520.473 176.212 520.461C176.427 520.56 176.345 520.54 176.286 520.499C176.245 520.47 176.21 520.436 176.169 520.407C176.389 520.585 176.253 520.485 176.193 520.409C176.115 520.317 176.318 520.606 176.252 520.5C176.239 520.479 176.227 520.458 176.215 520.437C176.202 520.415 176.195 520.39 176.183 520.369C176.312 520.615 176.247 520.539 176.226 520.463C176.219 520.437 176.213 520.412 176.206 520.386C176.207 520.377 176.203 520.366 176.199 520.356C176.172 520.254 176.22 520.472 176.22 520.472C176.227 520.418 176.204 520.357 176.206 520.303C176.209 520.274 176.208 520.244 176.206 520.214C176.205 520.135 176.191 520.429 176.204 520.273C176.212 520.205 176.219 520.142 176.237 520.075C176.241 520.041 176.255 520.008 176.264 519.97C176.266 519.956 176.267 519.941 176.274 519.927C176.309 519.798 176.236 520.041 176.258 519.984C176.315 519.828 176.377 519.673 176.454 519.525C176.505 519.428 176.56 519.331 176.615 519.239C176.627 519.221 176.634 519.207 176.646 519.188C176.658 519.17 176.735 519.051 176.67 519.152C176.604 519.252 176.67 519.152 176.681 519.138C176.699 519.111 176.717 519.083 176.735 519.056C176.888 518.838 177.06 518.632 177.241 518.431C177.705 517.915 178.221 517.454 178.763 517.025C178.877 516.935 178.914 516.698 178.905 516.565C178.897 516.386 178.809 516.17 178.686 516.037C178.573 515.916 178.419 515.795 178.244 515.779C178.069 515.764 177.954 515.819 177.818 515.926L177.812 515.94Z" fill="white"/>
<path d="M104.132 484.893C103.673 483.891 102.954 482.961 101.931 482.492C100.992 482.063 99.9183 482.115 98.9383 482.374C98.5929 482.467 98.4473 482.829 98.5562 483.161C98.6502 483.452 98.9767 483.859 99.3373 483.764C99.5659 483.702 99.7983 483.65 100.033 483.619C100.148 483.603 100.263 483.586 100.382 483.581C100.432 483.577 100.486 483.573 100.536 483.574C100.565 483.572 100.673 483.575 100.59 483.57C100.791 483.574 100.996 483.593 101.193 483.631C101.242 483.637 101.284 483.651 101.332 483.662C101.448 483.685 101.295 483.648 101.361 483.665C101.456 483.696 101.555 483.732 101.649 483.773C101.734 483.807 101.817 483.851 101.896 483.895C101.771 483.826 101.886 483.894 101.914 483.907C101.955 483.931 101.991 483.96 102.033 483.985C102.119 484.049 102.194 484.122 102.281 484.181C102.344 484.228 102.207 484.098 102.298 484.198C102.333 484.236 102.369 484.27 102.404 484.308C102.482 484.391 102.555 484.483 102.623 484.575C102.636 484.591 102.738 484.731 102.683 484.651C102.629 484.571 102.73 484.72 102.738 484.736C102.879 484.959 103.003 485.2 103.113 485.439C103.251 485.735 103.655 485.979 103.971 485.809C104.312 485.623 104.265 485.184 104.132 484.889L104.132 484.893Z" fill="white"/>
<path d="M66.1871 546.913C69.7727 547.14 73.2804 545.926 76.4126 544.259C80.2741 542.206 83.7346 539.413 86.8866 536.396C90.3538 533.082 93.4887 529.409 96.2994 525.522C98.9452 521.866 101.341 517.994 103.269 513.91C104.949 510.343 106.427 506.452 106.571 502.47C106.601 501.672 105.374 501.342 105.342 502.293C105.22 505.623 104.008 508.92 102.673 511.932C100.922 515.884 98.7084 519.635 96.2381 523.178C93.5491 527.036 90.5443 530.689 87.2319 534.026C84.1936 537.081 80.8802 539.921 77.1723 542.135C73.871 544.111 70.0269 545.763 66.0991 545.516C65.2346 545.459 65.4548 546.862 66.1876 546.908L66.1871 546.913Z" fill="white"/>
<path d="M85.4466 511.322C85.3311 510.329 84.9959 508.731 83.7447 508.615C82.7757 508.526 82.0395 509.523 81.5731 510.231C80.9145 511.236 80.4597 512.393 80.2093 513.569C79.959 514.745 79.9178 516.068 80.457 517.183C81.1633 518.638 82.7303 519.042 84.2275 518.863C85.0259 518.769 84.5572 517.386 83.8286 517.473C83.6638 517.493 83.4997 517.509 83.3318 517.514C83.1984 517.518 83.3506 517.521 83.1887 517.517C83.1104 517.513 83.0371 517.509 82.9588 517.505C82.8229 517.489 82.6918 517.474 82.557 517.448C82.4993 517.436 82.4421 517.42 82.3845 517.408C82.5564 517.453 82.3419 517.393 82.2999 517.374C82.2008 517.338 82.1033 517.287 82.0053 517.241C81.9305 517.208 82.1225 517.333 81.9736 517.218C81.9236 517.182 81.8736 517.147 81.8242 517.107C81.8016 517.089 81.6684 516.966 81.7656 517.061C81.8628 517.155 81.7264 517.017 81.7044 516.994C81.6744 516.956 81.6443 516.919 81.6095 516.88C81.4877 516.743 81.6859 517.027 81.5966 516.864C81.5474 516.779 81.5036 516.691 81.4544 516.606C81.3651 516.443 81.4894 516.728 81.4533 516.616C81.4358 516.555 81.408 516.497 81.3905 516.436C81.3587 516.329 81.3366 516.224 81.3103 516.112C81.269 515.96 81.3261 516.271 81.3045 516.077C81.2967 516.017 81.289 515.957 81.2818 515.892C81.2566 515.644 81.2564 515.393 81.2604 515.147C81.2523 515.343 81.2791 514.987 81.2822 514.919C81.2991 514.773 81.3155 514.632 81.3422 514.488C81.3885 514.218 81.4439 513.954 81.5144 513.686C81.5315 513.625 81.5486 513.563 81.5651 513.505C81.581 513.453 81.6283 513.301 81.5833 513.434C81.624 513.296 81.6689 513.163 81.7188 513.032C81.9002 512.531 82.1198 512.04 82.3755 511.578C82.4316 511.477 82.4872 511.38 82.5476 511.284C82.5787 511.228 82.6141 511.178 82.6446 511.128C82.687 511.059 82.5793 511.223 82.6266 511.155C82.65 511.123 82.6734 511.092 82.6925 511.055C82.8165 510.877 82.9497 510.706 83.0963 510.546C83.1582 510.479 83.2195 510.418 83.2814 510.351C83.3373 510.294 83.5579 510.132 83.3921 510.246C83.5205 510.158 83.6558 510.095 83.7928 510.017C83.7191 510.058 83.6626 510.036 83.7771 510.025C83.8019 510.023 83.8516 510.019 83.8727 510.007C83.9809 509.965 83.7308 510 83.8436 510.003C83.8727 510.007 83.9196 510.027 83.9455 510.015C83.8342 510.042 83.7953 509.954 83.9067 510.011C84.0273 510.074 83.7512 509.909 83.8701 509.987C83.9615 510.047 83.9251 510.106 83.8444 509.954C83.8604 509.986 83.9013 510.015 83.9227 510.042C84.0391 510.184 83.8571 509.887 83.9055 510.021C83.9204 510.062 83.9499 510.104 83.9751 510.142C84.0317 510.247 84.0303 510.301 83.9842 510.148C84.0017 510.209 84.0295 510.266 84.0469 510.327C84.0899 510.465 84.1226 510.607 84.1548 510.753C84.1975 510.935 84.1481 510.683 84.1688 510.843C84.1818 510.943 84.1948 511.043 84.2077 511.143C84.2501 511.497 84.4866 511.874 84.8642 511.928C85.2132 511.973 85.4767 511.655 85.4369 511.321L85.4466 511.322Z" fill="white"/>
<path d="M108.656 475.418C108.117 474.765 107.256 474.557 106.444 474.555C105.46 474.554 104.51 474.768 103.585 475.098C103.241 475.22 103.28 475.77 103.424 476.018C103.613 476.34 103.921 476.519 104.281 476.389C104.964 476.144 105.787 475.969 106.557 475.946C106.666 475.944 106.489 475.943 106.592 475.945C106.63 475.95 106.675 475.945 106.719 475.95C106.812 475.956 106.9 475.961 106.993 475.967C107.07 475.976 107.148 475.985 107.225 475.999C107.264 476.004 107.298 476.008 107.336 476.022C107.336 476.022 107.498 476.061 107.417 476.041C107.345 476.023 107.45 476.05 107.464 476.057C107.497 476.07 107.531 476.079 107.559 476.092C107.629 476.12 107.694 476.152 107.76 476.185C107.629 476.12 107.749 476.188 107.804 476.224C107.918 476.301 107.749 476.144 107.787 476.202C107.808 476.23 107.84 476.258 107.861 476.285C108.068 476.535 108.481 476.667 108.729 476.396C108.977 476.125 108.868 475.669 108.657 475.409L108.656 475.418Z" fill="white"/>
<path d="M235.112 538.932C235.016 540.057 234.982 541.194 235.221 542.304C235.378 543.026 235.705 543.767 236.307 544.221C237.351 545.012 238.683 544.479 239.629 543.797C240.853 542.917 241.851 541.745 242.645 540.47C243.31 539.401 243.965 538.051 243.707 536.757C243.583 536.133 243.151 535.58 242.559 535.334C241.907 535.062 241.151 535.131 240.475 535.278C240.252 535.326 240.034 535.384 239.82 535.448C239.478 535.55 239.325 535.897 239.438 536.234C239.528 536.515 239.862 536.943 240.219 536.837C240.611 536.721 241.012 536.62 241.421 536.574C241.496 536.563 241.57 536.557 241.644 536.556C241.689 536.551 241.729 536.551 241.773 536.551C241.926 536.544 241.636 536.545 241.758 536.549C241.891 536.555 242.023 536.561 242.153 536.585C242.211 536.592 242.268 536.614 242.325 536.625C242.07 536.576 242.258 536.608 242.339 536.637C242.386 536.657 242.431 536.687 242.479 536.702C242.248 536.611 242.378 536.641 242.459 536.7C242.477 536.717 242.5 536.734 242.517 536.751C242.554 536.775 242.359 536.585 242.437 536.678C242.467 536.716 242.502 536.754 242.532 536.792C242.589 536.853 242.4 536.575 242.465 536.691C242.473 536.711 242.486 536.728 242.498 536.744C242.511 536.765 242.518 536.786 242.53 536.807C242.591 536.922 242.454 536.576 242.492 536.714C242.507 536.755 242.522 536.796 242.532 536.836C242.539 536.862 242.546 536.887 242.548 536.912C242.574 537.023 242.52 536.682 242.533 536.827C242.545 536.931 242.548 537.04 242.55 537.143C242.55 537.271 242.549 537.114 242.56 537.061C242.556 537.09 242.552 537.124 242.549 537.153C242.542 537.211 242.536 537.27 242.528 537.333C242.509 537.458 242.479 537.583 242.45 537.707C242.432 537.774 242.41 537.835 242.393 537.902C242.453 537.639 242.392 537.907 242.364 537.982C242.313 538.119 242.258 538.255 242.203 538.392C242.076 538.682 241.934 538.965 241.779 539.237C241.699 539.381 241.613 539.528 241.523 539.665C241.487 539.72 241.32 539.971 241.456 539.77C241.404 539.843 241.355 539.921 241.307 539.994C241.107 540.28 240.892 540.56 240.668 540.834C240.233 541.354 239.762 541.85 239.239 542.281C239.185 542.324 238.965 542.48 239.168 542.342C239.099 542.388 239.033 542.444 238.968 542.495C238.85 542.58 238.727 542.664 238.6 542.743C238.372 542.883 238.131 543.012 237.879 543.106C237.848 543.117 237.817 543.124 237.791 543.14C237.843 543.117 237.949 543.09 237.837 543.126C237.781 543.144 237.725 543.157 237.664 543.174C237.553 543.201 237.437 543.217 237.323 543.228C237.299 543.225 237.268 543.232 237.244 543.234C237.174 543.24 237.444 543.242 237.313 543.232C237.254 543.225 237.2 543.224 237.143 543.212C237.099 543.207 237.052 543.192 237.008 543.187C236.897 543.169 237.197 543.253 237.075 543.204C237.051 543.196 237.022 543.188 236.999 543.176C236.952 543.155 236.911 543.131 236.869 543.111C236.78 543.071 237.052 543.231 236.943 543.154C236.92 543.137 236.897 543.124 236.874 543.107C236.798 543.049 236.696 542.904 236.873 543.122C236.838 543.078 236.794 543.039 236.759 543C236.742 542.978 236.725 542.952 236.703 542.93C236.6 542.804 236.79 543.068 236.754 543.004C236.72 542.951 236.687 542.898 236.655 542.84C236.623 542.778 236.595 542.715 236.563 542.653C236.5 542.522 236.643 542.859 236.594 542.725C236.579 542.684 236.564 542.643 236.55 542.597C236.495 542.433 236.451 542.266 236.416 542.099C236.406 542.059 236.401 542.019 236.392 541.973C236.375 541.903 236.427 542.179 236.398 541.999C236.382 541.889 236.365 541.779 236.353 541.669C236.301 541.186 236.294 540.698 236.311 540.213C236.315 540.145 236.318 540.071 236.321 540.003C236.327 539.954 236.338 539.857 236.317 540.037C236.322 539.998 236.326 539.959 236.327 539.915C236.334 539.763 236.348 539.607 236.36 539.456C236.392 539.101 236.23 538.679 235.867 538.543C235.565 538.429 235.18 538.566 235.147 538.931L235.112 538.932Z" fill="white"/>
<path d="M214.939 462.092C216.747 463.257 219.075 463.844 221.192 463.294C221.547 463.202 221.667 462.842 221.574 462.507C221.49 462.212 221.148 461.813 220.793 461.904C219.006 462.37 216.997 461.958 215.469 460.968C215.19 460.788 214.813 460.769 214.65 461.114C214.5 461.431 214.651 461.906 214.944 462.093L214.939 462.092Z" fill="white"/>
<path d="M220.707 466.858C220.6 467.022 220.708 466.853 220.737 466.812C220.773 466.762 220.809 466.707 220.844 466.657C220.92 466.553 220.996 466.453 221.072 466.349C221.241 466.123 221.409 465.902 221.583 465.681C221.925 465.234 222.268 464.787 222.579 464.316C222.662 464.188 222.642 463.94 222.604 463.803C222.555 463.63 222.435 463.434 222.285 463.333C222.153 463.244 221.985 463.165 221.823 463.2C221.661 463.236 221.562 463.332 221.466 463.478C221.573 463.314 221.465 463.483 221.436 463.524C221.4 463.574 221.365 463.629 221.329 463.679C221.253 463.783 221.177 463.882 221.101 463.987C220.932 464.213 220.764 464.434 220.59 464.655C220.248 465.102 219.905 465.549 219.595 466.019C219.511 466.147 219.531 466.396 219.569 466.533C219.618 466.706 219.738 466.902 219.888 467.003C220.021 467.092 220.189 467.171 220.35 467.136C220.512 467.1 220.612 467.004 220.707 466.858Z" fill="white"/>
<path d="M105.678 393.829C109.252 394.28 111.97 396.456 114.626 398.709C115.042 399.063 115.502 398.708 115.503 398.236C115.506 397.41 115.526 396.227 116.581 396.212C117.34 396.197 118.066 396.469 118.826 396.326C119.586 396.184 119.151 394.805 118.427 394.937C117.552 395.1 116.668 394.658 115.787 394.875C114.394 395.209 114.277 396.888 114.273 398.063L115.15 397.59C112.32 395.189 109.381 392.918 105.584 392.44C104.726 392.331 104.945 393.738 105.672 393.833L105.678 393.829Z" fill="white"/>
<path d="M160.187 413.899C159.828 414.531 160.152 415.208 160.418 415.804C160.78 416.619 160.505 417.084 159.823 417.653C159.387 418.016 159.876 418.84 160.337 418.899C162.708 419.2 164.894 420.38 166.851 421.7C168.963 423.122 170.905 424.785 172.753 426.535C173.44 427.185 174.173 426.258 173.549 425.664C171.563 423.784 169.49 421.978 167.212 420.463C165.116 419.068 162.78 417.831 160.248 417.511L160.762 418.757C161.541 418.11 162.015 417.255 161.79 416.23C161.713 415.877 161.56 415.549 161.411 415.217C161.306 414.983 161.231 414.866 161.299 414.742C161.659 414.11 160.614 413.147 160.187 413.903L160.187 413.899Z" fill="white"/>
<path d="M203.233 431.619C203.233 431.619 235.023 424.958 242.084 434.04C249.144 443.122 237.081 444.617 236.502 445.312C235.924 446.007 203.907 438.077 203.233 431.619Z" fill="white"/>
</g>
<g style="mix-blend-mode:screen" clip-path="url(#clip1_577_188)">
<path d="M670.864 158.578C668.075 158.876 665.518 159.884 662.995 161.003C661.35 161.356 659.737 161.837 658.21 162.601C658.133 162.638 658.067 162.698 658.004 162.77C657.729 162.353 657.865 161.469 658.418 161.242C662.342 159.603 666.084 157.52 670.336 156.905C672.119 144.235 664.585 132.269 655.653 123.807C651.899 120.253 647.719 116.933 643.224 114.135C643.002 113.929 642.775 113.717 642.548 113.515C639.631 110.911 636.332 108.744 632.674 107.378C630.786 106.672 627.001 105.413 625.019 106.587C624.658 106.512 624.299 106.428 623.937 106.361C623.918 106.376 623.906 106.408 623.888 106.423C621.973 108.451 620.494 110.747 619.319 113.208C617.726 115.281 616.453 117.598 616.941 119.441C616.488 120.131 615.438 119.697 615.727 118.739C617.215 113.746 619.384 109.004 622.976 105.195C623.121 105.043 623.266 104.968 623.401 104.938C623.578 104.692 623.843 104.53 624.155 104.582C636.76 106.801 648.805 114.435 657.733 123.479C666.615 132.474 673.892 144.65 671.648 157.674C671.571 158.115 671.345 158.528 670.864 158.578ZM621.242 205.286C620.917 205.564 620.652 205.466 620.494 205.217C608.72 203.52 598.539 195.955 590.723 187.243C582.599 178.186 575.917 167.335 572.502 155.612C572.372 155.157 572.481 154.691 572.863 154.399C575.587 152.345 578.542 150.712 581.546 149.11C582.536 148.585 582.941 150.187 582.14 150.617C579.354 152.102 576.611 153.622 574.055 155.467C577.405 166.472 583.627 176.815 591.289 185.359C592.797 187.041 594.394 188.692 596.071 190.271C599.398 194.214 603.792 197.191 608.194 200.054C611.085 201.931 616.73 205.541 620.155 203.372C620.414 203.413 620.675 203.467 620.938 203.505C623.141 201.364 624.559 197.54 625.623 194.784C625.671 194.662 625.734 194.56 625.803 194.475C617.022 188.837 610.318 180.274 603.011 172.931C596.03 165.918 588.727 158.724 584.44 149.666C584.126 149.006 584.837 148.174 585.383 148.37C585.599 148.155 585.888 148.081 586.176 148.304C592.537 153.288 598.733 158.524 605.072 163.556C603.917 161.604 602.749 159.663 601.558 157.732C597.93 154.703 594.264 151.712 590.538 148.799C589.829 148.242 590.607 146.649 591.39 147.261C593.796 149.146 596.175 151.074 598.537 153.008C597.807 151.904 597.064 150.803 596.302 149.717C593.943 148.238 591.497 146.88 588.952 145.692C588.904 145.669 588.868 145.643 588.829 145.613C588.174 146.287 587.515 146.964 586.863 147.643C586.058 148.481 585.29 147.117 585.956 146.419C588.576 143.685 591.233 140.998 593.929 138.342C594.015 138.221 594.111 138.123 594.217 138.055C600.541 131.836 607.058 125.823 613.755 120.012C614.595 119.285 615.015 120.936 614.35 121.519C612.845 122.83 611.347 124.15 609.857 125.479C613.367 128.646 616.934 131.837 620.485 135.086C617.616 131.698 614.988 128.128 612.737 124.278C612.294 123.521 613.331 122.105 613.86 123.009C623.506 139.513 640.091 150.886 652.751 164.888C652.958 165.114 652.969 165.425 652.878 165.703C653.571 164.876 654.253 164.044 654.904 163.183C655.606 162.251 656.382 163.654 655.811 164.407C647.487 175.419 635.326 182.819 627.439 194.205C627.338 194.345 627.233 194.443 627.119 194.509C627.085 194.552 627.05 194.594 627.012 194.632C627.058 194.786 627.049 194.976 626.964 195.195C625.73 198.388 624.193 202.368 621.678 204.852C621.586 205.061 621.432 205.22 621.226 205.275L621.242 205.286ZM640.462 154.991C644.145 159.157 647.602 163.486 650.702 168.042C650.724 168.071 650.737 168.106 650.751 168.133C651.289 167.551 651.82 166.959 652.335 166.357C652.113 166.448 651.858 166.411 651.64 166.163C648.143 162.292 644.335 158.62 640.463 154.983L640.462 154.991ZM604.789 130.11C618.396 140.177 630.668 151.908 644.275 161.975C633.886 148.926 620.668 137.846 608.761 126.514L608.754 126.505C607.428 127.697 606.087 128.91 604.789 130.11ZM598.549 135.975C606.886 143.958 616.41 150.408 625.902 156.913C619.434 149.986 613.09 142.938 607.217 135.491C606.961 135.166 607.041 134.691 607.267 134.354C605.976 133.363 604.676 132.378 603.366 131.41C601.749 132.915 600.143 134.442 598.545 135.97L598.549 135.975ZM595.399 139.033C605.983 155.914 624.717 166.194 639.542 178.841C639.565 178.861 639.579 178.888 639.602 178.908C642.994 175.775 646.424 172.679 649.613 169.354C649.602 169.34 649.59 169.326 649.579 169.312C648.16 167.225 646.664 165.183 645.107 163.189C645.078 163.806 644.531 164.463 643.967 164.052C632.344 155.523 621.69 145.769 610.404 136.815C617.374 145.391 624.924 153.466 632.517 161.499C636.416 164.239 640.251 167.052 643.95 170.056C644.653 170.624 643.867 172.217 643.098 171.593C641.774 170.521 640.43 169.48 639.076 168.446C640.377 169.826 641.674 171.209 642.961 172.6C643.573 173.255 642.567 174.654 641.838 173.869C638.458 170.234 635.037 166.624 631.625 163.015C619.897 154.766 607.665 147.172 597.316 137.171C596.675 137.796 596.034 138.42 595.401 139.046L595.399 139.033ZM593.75 146.195C592.958 145.147 592.147 144.114 591.318 143.096C590.919 143.5 590.517 143.9 590.118 144.305C591.352 144.898 592.562 145.526 593.75 146.195ZM607.326 155.531C602.323 150.952 597.797 145.953 594.208 140.196C593.633 140.761 593.066 141.336 592.495 141.906C594.203 143.995 595.809 146.148 597.352 148.345C600.813 150.536 604.11 152.979 607.329 155.536L607.326 155.531ZM608.544 166.28C613.459 170.075 618.491 173.701 623.783 176.948C617.698 171.595 611.605 166.241 605.426 160.999C606.472 162.755 607.508 164.517 608.548 166.285L608.544 166.28ZM621.229 188.904C616.067 182.21 611.768 174.944 607.489 167.664C600.567 162.312 593.871 156.631 587.019 151.194C591.494 159.281 598.388 165.896 604.844 172.384C610.264 177.832 615.313 183.921 621.221 188.903L621.229 188.904ZM626.62 192.912C630.001 188.14 634.103 184.046 638.346 180.085C632.02 174.722 625.005 169.771 618.222 164.546C620.541 166.484 622.875 168.401 625.257 170.236C625.975 170.786 625.192 172.383 624.405 171.773C616.164 165.422 608.483 158.082 599.918 152.115C600.842 153.524 601.748 154.947 602.631 156.38C612.701 164.794 622.481 173.55 632.365 182.178C633.044 182.774 632.258 184.366 631.513 183.715C630.7 183.005 629.887 182.286 629.073 181.576C628.871 181.712 628.619 181.757 628.36 181.618C622.219 178.289 616.458 174.397 610.885 170.235C614.486 176.294 618.199 182.275 622.525 187.857C622.97 188.423 622.399 189.434 621.819 189.378C623.351 190.638 624.946 191.825 626.621 192.904L626.62 192.912ZM616.671 120.826C615.951 120.034 614.95 121.429 615.548 122.095C627.036 134.747 639.293 146.65 651.205 158.892C651.949 159.657 652.954 158.266 652.328 157.622C640.415 145.38 628.158 133.477 616.671 120.826Z" fill="white"/>
</g>
<g style="mix-blend-mode:screen" clip-path="url(#clip2_577_188)">
<path d="M771.292 225.088C771.263 225.192 771.213 225.287 771.128 225.364C768.065 228.198 763.348 228.154 759.467 227.517C753.703 226.572 748.096 224.349 743.031 221.487C736.22 217.641 724.152 209.61 726.656 200.18C726.919 199.195 728.167 200.045 727.96 200.838C726.893 204.852 729.464 208.717 732.099 211.545C735.703 215.403 740.198 218.476 744.882 220.894C749.44 223.246 754.359 225.231 759.465 225.988C762.294 226.405 765.627 226.606 768.288 225.35C768.268 225.089 768.361 224.849 768.623 224.732C781.096 219.132 768.392 206.909 761.674 202.545C757.247 199.67 751.154 196.602 745.035 195.37C744.984 195.29 744.873 195.232 744.683 195.22C744.451 195.2 744.211 195.19 743.978 195.176C738.425 194.252 732.931 194.932 728.729 198.742C728.062 199.344 727.162 198.021 727.764 197.473C737.736 188.418 754.615 195.718 763.817 202.37C768.319 205.624 773.331 210.017 774.942 215.54C776.15 219.664 774.493 222.956 771.291 225.093L771.292 225.088ZM763.565 208.5C763.303 208.213 763.026 208.164 762.802 208.255C764.256 209.639 765.425 211.392 765.685 213.169C765.699 213.275 765.699 213.368 765.708 213.468C766.438 214.947 766.539 216.412 764.827 217.275C762.33 218.539 758.714 217.796 756.118 217.306C748.824 215.924 741.953 211.189 739.07 204.298C738.678 203.36 737.522 203.902 737.91 204.834C741.499 213.395 750.368 218.405 759.392 219.32C761.952 219.58 765.506 219.683 767.163 217.342C769.129 214.564 765.153 210.273 763.559 208.499L763.565 208.5ZM749.841 209.756C750.252 209.359 749.948 208.694 749.761 208.267C749.636 207.983 749.32 207.724 749.001 207.76C748.771 207.446 748.542 207.133 748.319 206.814C748.113 206.521 747.655 206.352 747.368 206.634C747.063 206.929 747.169 207.412 747.384 207.718C747.782 208.286 748.176 208.875 748.639 209.388C748.923 209.701 749.419 210.155 749.836 209.755L749.841 209.756ZM755.114 211.793C755.405 212.068 755.839 212.495 756.277 212.289C756.808 212.046 756.619 211.351 756.409 210.959C756.056 210.295 755.607 209.675 755.173 209.057C754.968 208.764 754.509 208.595 754.223 208.877C753.918 209.172 754.024 209.655 754.239 209.961C754.431 210.235 754.623 210.515 754.813 210.8C754.691 211.15 754.856 211.545 755.12 211.788L755.114 211.793Z" fill="white"/>
<path d="M759.614 145.225C759.506 144.321 759.46 143.412 759.441 142.502C757.621 132.269 748.155 127.617 738.33 130.25C728.982 132.755 722.672 141.496 727.465 150.752C727.661 151.131 727.979 151.254 728.246 151.203C728.285 151.232 728.329 151.261 728.375 151.28C732.044 153.015 736.26 153.472 740.376 153.25C740.26 153.382 740.201 153.585 740.266 153.869C740.926 156.788 742.248 159.218 744.791 160.9C744.968 161.019 745.305 161.003 745.44 160.83C747.409 158.375 747.356 155.1 749.065 152.561C749.208 152.346 749.195 152.081 749.087 151.855C753.173 150.699 757.229 148.66 759.609 145.224L759.614 145.225ZM742.622 154.628C742.574 154.838 742.519 155.052 742.435 155.25C742.414 155.301 742.384 155.35 742.359 155.395C742.243 155.401 742.149 155.434 742.08 155.487C741.871 154.931 741.706 154.35 741.572 153.747C741.513 153.491 741.365 153.306 741.192 153.199C741.781 153.157 742.362 153.102 742.945 153.031C742.85 153.566 742.755 154.1 742.628 154.624L742.622 154.628ZM744.742 159.204C743.902 158.563 743.247 157.802 742.753 156.944C743.967 156.964 744.119 154.36 744.256 153.587C744.3 153.344 744.241 153.087 744.108 152.878C744.695 152.792 745.275 152.704 745.848 152.599C746.387 152.504 746.934 152.388 747.483 152.262C746.323 154.463 746.183 157.124 744.737 159.203L744.742 159.204ZM745.499 151.051C740.133 152.121 733.76 152.257 728.708 149.871C728.597 149.819 728.502 149.796 728.414 149.797C724.46 141.531 730.394 134.41 738.4 131.889C742.382 130.639 746.903 130.67 750.762 132.329C755.247 134.259 757.547 138.534 758.236 143.167C758.286 143.503 758.49 143.714 758.721 143.799C758.584 144.015 758.436 144.229 758.279 144.435C758.194 143.956 757.752 143.479 757.27 143.693C756.042 144.239 754.798 144.754 753.555 145.231C749.468 147.653 744 149.206 738.852 149.026C735.459 149.371 732.056 149.256 728.752 148.427C728.728 148.837 728.967 149.344 729.4 149.438C739.16 151.548 748.589 149.26 757.543 145.331C754.542 148.623 749.754 150.205 745.493 151.05L745.499 151.051Z" fill="white"/>
<path d="M682.928 185.263C676.421 185.654 668.121 184.966 664.968 178.3C664.533 177.382 665.693 176.852 666.128 177.765C669.387 184.663 679.463 184.263 685.815 183.381C691.47 182.598 709.863 179.587 709.67 171.096C709.609 168.481 707.768 166.312 705.678 164.892C701.039 161.733 695.896 161.8 690.536 162.253C681.609 163.015 669.243 165.184 666.733 175.356C666.491 176.344 665.238 175.493 665.429 174.697C668.406 162.616 683.847 160.837 694.242 160.457C700.146 160.242 706.453 162.082 709.803 167.303C717.684 179.583 689.831 184.834 682.925 185.252L682.928 185.263ZM705.327 170.491C703.758 172.679 701.203 174.205 698.592 175.307C695.153 177.205 691.244 178.414 687.567 179.217C681.516 180.529 673.692 180.986 668.562 176.888C667.736 176.228 667.222 177.539 667.909 178.088C673.237 182.34 680.879 182.075 687.221 180.913C693.767 179.716 701.166 177 705.586 171.809C705.912 171.43 705.682 170.778 705.327 170.496L705.327 170.491ZM680.158 166.627C687.367 163.899 696.271 163.422 703.439 166.032C703.46 166.036 703.476 166.039 703.497 166.043C703.642 165.664 703.504 165.11 703.057 164.943C692.341 160.991 678.229 164.4 669.229 170.958C668.844 171.239 669 171.812 669.339 172.129C670.396 171.275 671.532 170.598 672.738 170.054C674.041 168.993 675.597 168.238 677.246 167.664C678.205 167.273 679.176 166.938 680.158 166.627ZM686.919 167.182C685.879 167.352 685.01 167.885 684.022 168.195C683.226 168.446 683.897 169.914 684.705 169.66C685.583 169.385 686.352 168.888 687.273 168.736C688.161 168.589 687.727 167.053 686.924 167.183L686.919 167.182ZM680.553 171.218C679.708 171.466 678.91 171.755 678.174 172.252C677.83 172.485 677.76 172.877 677.935 173.252C678.066 173.532 678.513 173.95 678.856 173.717C679.592 173.225 680.39 172.931 681.236 172.683C681.63 172.567 681.605 171.968 681.474 171.683C681.304 171.314 680.952 171.104 680.553 171.218ZM691.3 168.405C690.503 168.657 691.174 170.125 691.982 169.87C692.587 169.678 693.308 169.146 693.958 169.223C694.914 169.339 694.752 167.787 693.952 167.688C692.98 167.569 692.185 168.121 691.294 168.405L691.3 168.405ZM685.077 173.728C685.959 173.154 686.983 173.014 688.002 172.868C688.892 172.737 688.459 171.197 687.653 171.315C686.538 171.477 685.362 171.638 684.4 172.264C683.692 172.728 684.388 174.178 685.083 173.729L685.077 173.728Z" fill="white"/>
</g>
<g style="mix-blend-mode:screen" clip-path="url(#clip3_577_188)">
<path d="M351.562 144.493C357.085 137.644 364.401 134.529 373.054 134.554C379.245 134.57 382.722 138.674 382.056 144.924C381.499 150.214 379.249 154.94 376.198 159.16C372.676 164.038 368.676 168.569 365.003 173.337C364.061 174.564 363.616 176.158 362.829 177.517C362.407 178.244 361.859 179.055 361.151 179.412C358.988 180.524 358.257 179.921 358.359 177.512C358.579 172.025 361.188 167.633 364.591 163.614C369.163 158.222 373.487 152.65 376.088 145.993C376.745 144.31 376.92 142.399 377.07 140.578C377.198 139.004 376.213 138.521 374.742 138.893C368.169 140.569 362.271 143.612 356.879 147.702C356.615 147.901 356.443 148.29 356.158 148.407C352.09 150.062 352.117 153.172 352.625 156.933C354.238 168.814 355.552 180.728 356.943 192.637C357.073 193.73 357.118 194.875 356.9 195.938C356.8 196.433 355.611 197.198 355.512 197.112C354.188 196.033 353.493 197.189 352.731 197.838C344.558 204.873 335.03 208.08 324.357 207.448C321.328 207.273 318.361 205.934 315.409 204.977C314.948 204.832 314.742 203.9 314.415 203.326C315.016 203.323 315.659 203.195 316.215 203.348C317.327 203.654 318.401 204.107 319.862 204.639C316.079 190.647 311.278 177.369 308.685 163.537C309.029 163.395 309.373 163.253 309.717 163.111C310.075 163.633 310.589 164.099 310.76 164.675C313.467 173.618 316.101 182.588 318.808 191.53C320.015 195.508 321.269 199.485 322.714 203.385C322.992 204.14 324.243 205.012 325.058 205.029C336.025 205.204 345.426 201.359 353.189 193.582C353.64 193.133 353.924 192.232 353.858 191.584C352.315 176.185 350.711 160.789 349.107 145.4C349.06 144.914 348.859 144.444 348.687 143.821C344.034 145.673 339.608 147.818 334.955 149.192C327.581 151.368 320.066 153.111 312.562 154.821C311.145 155.145 309.496 154.322 307.944 154.244C306.086 154.153 304.097 153.934 302.425 154.511C301.833 154.717 301.556 157.201 301.862 158.462C303.825 166.38 305.886 174.274 308.133 182.114C309.748 187.743 311.738 193.272 313.465 198.867C313.664 199.518 313.276 200.349 313.163 201.097C312.408 200.584 311.233 200.233 310.971 199.53C309.461 195.563 307.969 191.561 306.83 187.479C304.345 178.555 302.069 169.574 299.717 160.605C299.498 159.786 299.261 158.946 299.211 158.107C299.054 155.599 298.526 153.786 295.544 152.936C292.398 152.034 291.763 148.356 294.477 146.253C297.726 143.742 301.381 141.612 305.144 139.952C317.866 134.329 331.256 133.115 344.964 134.682C346.97 134.914 348.99 135.371 350.9 136.019C353.605 136.945 353.976 138.901 352.239 141.198C351.583 142.065 351.248 143.179 350.762 144.183C351.029 144.289 351.29 144.403 351.557 144.509L351.562 144.493ZM350.361 139.542C350.263 139.228 350.165 138.907 350.067 138.593C349.109 138.325 348.163 137.937 347.188 137.797C331.919 135.612 317.126 136.943 303.149 143.938C300.886 145.065 298.745 146.463 296.655 147.885C296.163 148.223 295.792 149.209 295.897 149.812C295.969 150.255 296.899 150.834 297.466 150.86C300.543 150.996 303.638 151.2 306.703 150.97C312.478 150.544 318.104 148.425 324.023 149.615C324.645 149.741 325.384 149.527 326.006 149.317C330.567 147.762 335.176 146.309 339.654 144.532C343.309 143.077 346.805 141.224 350.37 139.548L350.361 139.542ZM354.304 146.127C358.939 143.391 363.396 140.763 368.045 138.017C362.442 138.156 354.833 142.55 354.304 146.127ZM376.206 152.939C372.098 158.397 367.984 163.865 363.876 169.323C364.053 169.451 364.221 169.573 364.398 169.701C368.898 164.54 373.461 159.431 376.206 152.939Z" fill="white"/>
<mask id="mask0_577_188" style="mask-type:luminance" maskUnits="userSpaceOnUse" x="292" y="134" width="91" height="74">
<path d="M351.562 144.493C357.085 137.644 364.401 134.529 373.054 134.554C379.245 134.57 382.722 138.674 382.056 144.924C381.499 150.214 379.249 154.94 376.198 159.16C372.676 164.038 368.676 168.569 365.003 173.337C364.061 174.564 363.616 176.158 362.829 177.517C362.407 178.244 361.859 179.055 361.151 179.412C358.988 180.524 358.257 179.921 358.359 177.512C358.579 172.025 361.188 167.633 364.591 163.614C369.163 158.222 373.487 152.65 376.088 145.993C376.745 144.31 376.92 142.399 377.07 140.578C377.198 139.004 376.213 138.521 374.742 138.893C368.169 140.569 362.271 143.612 356.879 147.702C356.615 147.901 356.443 148.29 356.158 148.407C352.09 150.062 352.117 153.172 352.625 156.933C354.238 168.814 355.552 180.728 356.943 192.637C357.073 193.73 357.118 194.875 356.9 195.938C356.8 196.433 355.611 197.198 355.512 197.112C354.188 196.033 353.493 197.189 352.731 197.838C344.558 204.873 335.03 208.08 324.357 207.448C321.328 207.273 318.361 205.934 315.409 204.977C314.948 204.832 314.742 203.9 314.415 203.326C315.016 203.323 315.659 203.195 316.215 203.348C317.327 203.654 318.401 204.107 319.862 204.639C316.079 190.647 311.278 177.369 308.685 163.537C309.029 163.395 309.373 163.253 309.717 163.111C310.075 163.633 310.589 164.099 310.76 164.675C313.467 173.618 316.101 182.588 318.808 191.53C320.015 195.508 321.269 199.485 322.714 203.385C322.992 204.14 324.243 205.012 325.058 205.029C336.025 205.204 345.426 201.359 353.189 193.582C353.64 193.133 353.924 192.232 353.858 191.584C352.315 176.185 350.711 160.789 349.107 145.4C349.06 144.914 348.859 144.444 348.687 143.821C344.034 145.673 339.608 147.818 334.955 149.192C327.581 151.368 320.066 153.111 312.562 154.821C311.145 155.145 309.496 154.322 307.944 154.244C306.086 154.153 304.097 153.934 302.425 154.511C301.833 154.717 301.556 157.201 301.862 158.462C303.825 166.38 305.886 174.274 308.133 182.114C309.748 187.743 311.738 193.272 313.465 198.867C313.664 199.518 313.276 200.349 313.163 201.097C312.408 200.584 311.233 200.233 310.971 199.53C309.461 195.563 307.969 191.561 306.83 187.479C304.345 178.555 302.069 169.574 299.717 160.605C299.498 159.786 299.261 158.946 299.211 158.107C299.054 155.599 298.526 153.786 295.544 152.936C292.398 152.034 291.763 148.356 294.477 146.253C297.726 143.742 301.381 141.612 305.144 139.952C317.866 134.329 331.256 133.115 344.964 134.682C346.97 134.914 348.99 135.371 350.9 136.019C353.605 136.945 353.976 138.901 352.239 141.198C351.583 142.065 351.248 143.179 350.762 144.183C351.029 144.289 351.29 144.403 351.557 144.509L351.562 144.493ZM350.361 139.542C350.263 139.228 350.165 138.907 350.067 138.593C349.109 138.325 348.163 137.937 347.188 137.797C331.919 135.612 317.126 136.943 303.149 143.938C300.886 145.065 298.745 146.463 296.655 147.885C296.163 148.223 295.792 149.209 295.897 149.812C295.969 150.255 296.899 150.834 297.466 150.86C300.543 150.996 303.638 151.2 306.703 150.97C312.478 150.544 318.104 148.425 324.023 149.615C324.645 149.741 325.384 149.527 326.006 149.317C330.567 147.762 335.176 146.309 339.654 144.532C343.309 143.077 346.805 141.224 350.37 139.548L350.361 139.542ZM354.304 146.127C358.939 143.391 363.396 140.763 368.045 138.017C362.442 138.156 354.833 142.55 354.304 146.127ZM376.206 152.939C372.098 158.397 367.984 163.865 363.876 169.323C364.053 169.451 364.221 169.573 364.398 169.701C368.898 164.54 373.461 159.431 376.206 152.939Z" fill="white"/>
</mask>
<g mask="url(#mask0_577_188)">
<path d="M351.561 144.492C351.294 144.387 351.033 144.272 350.766 144.166C351.244 143.163 351.579 142.05 352.243 141.181C353.989 138.89 353.616 136.927 350.904 136.002C348.993 135.347 346.973 134.89 344.968 134.666C331.259 133.091 317.87 134.312 305.148 139.935C301.385 141.596 297.73 143.725 294.481 146.237C291.759 148.341 292.394 152.018 295.548 152.919C298.531 153.777 299.059 155.59 299.215 158.09C299.265 158.929 299.51 159.768 299.721 160.589C302.072 169.55 304.348 178.531 306.834 187.462C307.974 191.552 309.457 195.548 310.975 199.514C311.245 200.215 312.412 200.567 313.167 201.08C313.28 200.333 313.669 199.501 313.469 198.851C311.741 193.248 309.752 187.727 308.137 182.098C305.89 174.257 303.829 166.363 301.866 158.445C301.553 157.186 301.837 154.7 302.429 154.494C304.109 153.916 306.098 154.135 307.949 154.227C309.5 154.305 311.149 155.128 312.566 154.805C320.07 153.094 327.577 151.352 334.96 149.175C339.612 147.802 344.038 145.657 348.692 143.804C348.863 144.428 349.056 144.898 349.112 145.383C350.716 160.78 352.319 176.169 353.862 191.567C353.928 192.215 353.644 193.116 353.194 193.566C345.43 201.342 336.029 205.188 325.062 205.012C324.248 205.003 323.005 204.129 322.718 203.368C321.273 199.469 320.013 195.5 318.812 191.514C316.097 182.572 313.464 173.602 310.764 164.658C310.593 164.082 310.078 163.609 309.721 163.094C309.377 163.236 309.033 163.378 308.689 163.52C311.282 177.352 316.084 190.638 319.866 204.623C318.405 204.091 317.331 203.637 316.219 203.331C315.655 203.179 315.02 203.306 314.419 203.309C314.745 203.876 314.951 204.807 315.413 204.96C318.364 205.909 321.338 207.247 324.361 207.432C335.034 208.063 344.563 204.864 352.735 197.821C353.489 197.173 354.192 196.016 355.516 197.096C355.623 197.18 356.804 196.416 356.904 195.922C357.123 194.866 357.077 193.713 356.947 192.62C355.548 180.712 354.242 168.797 352.629 156.917C352.121 153.155 352.085 150.039 356.162 148.39C356.447 148.273 356.619 147.885 356.883 147.685C362.268 143.596 368.174 140.553 374.746 138.876C376.225 138.503 377.209 138.986 377.074 140.561C376.925 142.39 376.75 144.301 376.092 145.976C373.491 152.633 369.167 158.205 364.595 163.598C361.184 167.617 358.575 172.009 358.363 177.495C358.27 179.91 358.999 180.506 361.155 179.396C361.854 179.032 362.41 178.22 362.833 177.5C363.62 176.141 364.064 174.54 365.007 173.32C368.68 168.552 372.68 164.021 376.202 159.144C379.245 154.925 381.495 150.199 382.06 144.907C382.719 138.658 379.241 134.555 373.058 134.537C364.413 134.511 357.089 137.627 351.566 144.476L351.561 144.492ZM336.253 74.5742C335.929 74.6031 335.613 74.6308 335.29 74.6597C335.18 75.3286 334.894 76.0259 334.983 76.6704C335.857 83.1725 333.94 89.1308 331.437 94.9487C328.324 102.207 325.068 109.402 321.973 116.673C321.526 117.726 319.946 119.158 321.898 120.066C322.286 120.246 323.935 118.606 324.417 117.532C327.742 110.184 330.973 102.789 334.096 95.3493C336.216 90.3071 337.702 85.0619 337.324 79.4991C337.212 77.8388 336.621 76.2168 336.245 74.5755L336.253 74.5742ZM315.723 166.428C315.445 167.171 315.083 167.637 315.153 168.018C315.729 171.094 316.218 174.207 317.064 177.207C319.391 185.443 321.852 193.641 324.343 201.826C324.531 202.455 325.403 202.87 325.955 203.385C326.295 202.686 326.924 201.988 326.913 201.292C326.89 200.041 326.589 198.764 326.206 197.555C323.093 187.604 319.943 177.666 316.772 167.74C316.644 167.337 316.22 167.037 315.715 166.429L315.723 166.428ZM313.48 105.922C313.1 105.843 312.713 105.772 312.333 105.693C312.025 106.974 311.356 108.29 311.472 109.535C312.031 115.539 312.758 121.523 313.554 127.497C313.679 128.41 314.388 129.315 315.016 130.052C315.266 130.341 316.124 130.336 316.562 130.147C316.818 130.035 316.932 129.248 316.854 128.813C315.774 122.392 314.618 115.982 313.554 109.558C313.362 108.373 313.489 107.137 313.474 105.931L313.48 105.922ZM325.834 182.006C325.217 182.632 324.977 182.788 324.997 182.864C326.352 187.711 327.702 192.567 329.17 197.381C329.271 197.717 330.259 197.785 330.837 197.981C330.942 197.376 331.293 196.692 331.116 196.179C330.075 193.132 328.916 190.127 327.786 187.11C327.184 185.513 326.566 183.919 325.827 182.007L325.834 182.006Z" fill="white"/>
</g>
<path d="M336.252 74.5735C336.627 76.2148 337.218 77.8368 337.331 79.4971C337.709 85.0599 336.223 90.3052 334.103 95.3473C330.98 102.787 327.747 110.175 324.424 117.53C323.94 118.596 322.301 120.243 321.904 120.064C319.945 119.158 321.525 117.725 321.98 116.671C325.076 109.408 328.331 102.205 331.444 94.9468C333.939 89.1301 335.864 83.1706 334.99 76.6684C334.901 76.024 335.186 75.3267 335.297 74.6577C335.62 74.6288 335.936 74.6012 336.26 74.5723L336.252 74.5735Z" fill="white"/>
<path d="M315.725 166.429C316.223 167.039 316.655 167.345 316.782 167.74C319.954 177.674 323.103 187.604 326.215 197.556C326.591 198.765 326.892 200.042 326.923 201.292C326.94 201.98 326.305 202.687 325.965 203.385C325.413 202.87 324.541 202.455 324.353 201.826C321.862 193.641 319.393 185.444 317.074 177.208C316.227 174.199 315.747 171.093 315.162 168.018C315.093 167.637 315.455 167.171 315.733 166.428L315.725 166.429Z" fill="white"/>
<path d="M313.481 105.924C313.498 107.137 313.362 108.375 313.561 109.551C314.625 115.975 315.774 122.386 316.861 128.806C316.933 129.249 316.817 130.029 316.569 130.14C316.133 130.336 315.273 130.334 315.023 130.045C314.388 129.309 313.679 128.404 313.562 127.49C312.765 121.516 312.038 115.531 311.479 109.527C311.363 108.283 312.033 106.967 312.341 105.685C312.721 105.765 313.107 105.836 313.487 105.915L313.481 105.924Z" fill="white"/>
<path d="M325.835 182.007C326.567 183.92 327.191 185.505 327.795 187.11C328.924 190.127 330.083 193.132 331.124 196.179C331.3 196.684 330.951 197.376 330.846 197.981C330.268 197.792 329.281 197.725 329.178 197.381C327.71 192.567 326.361 187.711 325.005 182.863C324.984 182.78 325.217 182.633 325.842 182.006L325.835 182.007Z" fill="white"/>
</g>
<defs>
<clipPath id="clip0_577_188">
<rect width="217.525" height="172.419" fill="white" transform="translate(68.9766 381) rotate(6.65272)"/>
</clipPath>
<clipPath id="clip1_577_188">
<rect width="77.7403" height="92.7263" fill="white" transform="translate(635.949 95) rotate(51.8813)"/>
</clipPath>
<clipPath id="clip2_577_188">
<rect width="115.953" height="93.9975" fill="white" transform="translate(675.691 117.113) rotate(10.1061)"/>
</clipPath>
<clipPath id="clip3_577_188">
<rect width="89.3783" height="130.343" fill="white" transform="translate(282 83.2969) rotate(-9.20573)"/>
</clipPath>
</defs>
</svg>
