<svg width="91" height="54" viewBox="0 0 91 54" fill="none" xmlns="http://www.w3.org/2000/svg">
<path d="M6.08863 18.2035C6.05062 17.7435 6.2882 17.5391 6.57805 17.2836C6.95343 16.9514 7.2813 16.5017 7.49038 16.0264C7.7042 15.5512 8.05107 15.2292 8.42645 15.0606C8.97764 14.8153 9.28175 14.34 9.65714 13.926C10.0183 13.5274 10.3746 13.1237 10.731 12.72C11.3677 11.9943 12.2135 11.5088 12.7505 10.6656C12.8503 10.5123 13.0356 10.4203 13.1734 10.2925C13.4014 10.0779 13.6153 9.84791 13.8481 9.64349C14.2472 9.28576 14.6892 8.96891 15.055 8.57541C15.3876 8.21768 15.8295 7.95704 16.0244 7.45111C16.0529 7.37445 16.1194 7.2978 16.1907 7.26202C17.0127 6.84808 17.4879 5.9844 18.2339 5.46314C18.3907 4.90099 18.9847 4.82945 19.265 4.40017C19.322 4.31329 19.4741 4.29286 19.5881 4.24686C19.6641 4.2162 19.7924 4.2213 19.8114 4.17531C20.1155 3.44963 20.9661 3.41896 21.3415 2.78527C21.4698 2.56552 21.6836 2.39687 21.7739 2.16179C22.0067 1.56898 22.3821 1.20103 22.9713 1.07838C23.0473 1.06305 23.1424 1.02728 23.1804 0.965951C23.4987 0.460017 23.9026 0.460021 24.3588 0.746206C24.7199 0.378254 25.1571 0.383367 25.599 0.286269C26.2927 0.138066 26.9722 0.4498 27.6469 0.235161C27.7657 0.199388 27.932 0.26071 28.0556 0.327146C28.6258 0.638883 29.2292 0.58267 29.8327 0.521345C30.0513 0.500903 30.2794 0.490686 30.4884 0.429361C30.8876 0.30671 31.244 0.347581 31.5861 0.608214C31.6526 0.659318 31.7761 0.63377 31.8759 0.62866C32.679 0.592887 33.4915 0.664429 34.285 0.465122C34.342 0.449791 34.4181 0.44469 34.4656 0.475353C35.0168 0.78709 35.5727 0.577552 36.1097 0.449791C36.3805 0.388466 36.6181 0.388466 36.8842 0.449791C37.3308 0.54689 37.768 0.720645 38.2527 0.562222C38.4902 0.485565 38.7753 0.587777 39.0414 0.613329C39.1602 0.62355 39.3028 0.700205 39.3978 0.659321C40.3529 0.255596 41.3222 0.700202 42.2821 0.592883C42.7953 0.536668 43.3227 0.546895 43.8359 0.582668C44.3586 0.618441 44.8955 0.495789 45.3897 0.613329C45.7555 0.700207 46.0977 0.741092 46.4588 0.710429C46.6346 0.695098 46.8057 0.618441 46.9815 0.582668C47.1383 0.546895 47.3283 0.449804 47.4471 0.51113C47.9128 0.756431 48.3547 0.582675 48.8109 0.52646C49.0057 0.500908 49.229 0.495785 49.3953 0.577552C49.8942 0.817743 50.3647 0.715534 50.8683 0.592883C51.2057 0.511116 51.5811 0.598008 51.9422 0.62356C52.0182 0.62356 52.118 0.72065 52.1703 0.695098C52.8118 0.352698 53.4723 0.68488 54.128 0.618445C54.8075 0.552009 55.4965 0.643995 56.1855 0.664437C56.2852 0.664437 56.3803 0.649107 56.4801 0.633775C56.6226 0.613334 56.7794 0.526454 56.8982 0.567337C57.4351 0.751313 57.9721 0.603104 58.5043 0.592883C58.7181 0.592883 58.9557 0.444684 59.1457 0.500899C59.5116 0.608218 59.8537 0.597996 60.2149 0.53156C60.4097 0.495787 60.6093 0.485569 60.8088 0.470237C60.9276 0.460017 61.0939 0.414028 61.1652 0.475353C61.5121 0.78198 61.8922 0.623545 62.2628 0.608214C62.4814 0.597993 62.7047 0.643995 62.9281 0.664437C63.0279 0.669547 63.1561 0.705326 63.2179 0.654222C63.6076 0.327153 63.9877 0.526456 64.3773 0.633775C64.6102 0.700211 64.862 0.756422 65.0948 0.72576C65.7696 0.638882 66.4633 0.827973 67.1285 0.490684C67.3044 0.398696 67.5894 0.536679 67.8175 0.587783C67.9696 0.623556 68.1549 0.776869 68.2642 0.730875C68.7346 0.521347 69.1908 0.746206 69.6469 0.730875C69.6659 0.730875 69.6897 0.730869 69.7087 0.74109C70.1031 0.807526 70.469 0.322038 70.8681 0.633775C71.2625 0.945513 71.5999 0.613336 71.961 0.572453C72.2223 0.54179 72.4884 0.557116 72.7545 0.582668C73.1727 0.618441 73.5908 0.689992 74.0089 0.730875C74.0992 0.741096 74.199 0.669542 74.2941 0.659321C74.6124 0.63888 74.9878 0.511124 75.2396 0.649106C75.7861 0.940401 76.3088 0.705313 76.8362 0.720644C76.974 0.720644 77.1451 0.638883 77.2543 0.695098C77.682 0.919958 78.1096 0.75132 78.504 0.654222C78.9982 0.531571 79.4639 0.577554 79.9438 0.659321C80.1243 0.689984 80.3287 0.756424 80.4807 0.695098C80.8989 0.526454 81.279 0.643996 81.6734 0.761537C81.8064 0.80242 81.9775 0.889295 82.082 0.83819C82.6285 0.572447 83.2082 0.822854 83.7641 0.689983C84.1062 0.608216 84.4341 0.700205 84.7762 0.787082C85.2181 0.899512 85.6981 0.812642 86.159 0.858636C87.0855 0.950624 87.9408 1.2879 88.7059 1.83983C88.8959 1.97781 88.9957 2.3049 89.0765 2.57064C89.1905 2.91304 89.3473 3.16344 89.6562 3.36275C90.1741 3.70515 90.5448 4.1702 90.445 4.92655C90.3879 5.37115 90.5257 5.81066 90.635 6.25527C90.8108 6.98095 91.0057 7.77818 90.5115 8.49364C90.2454 8.88204 90.2882 9.32154 90.3357 9.75592C90.4355 10.6605 90.4402 10.6605 90.2026 11.427C90.4877 11.7745 90.6778 12.168 90.3737 12.6382C90.3404 12.6893 90.3167 12.7762 90.3357 12.8222C90.6635 13.7063 90.2739 14.6057 90.3974 15.4949C90.426 15.6891 90.4117 15.8987 90.483 16.0673C90.6398 16.4302 90.3309 16.6959 90.3404 16.9923C90.3499 17.2785 90.559 17.5442 90.4545 17.8713C90.2311 18.5714 90.1884 19.2818 90.4402 19.9921C90.4972 20.1506 90.5828 20.3754 90.5257 20.493C90.2929 20.958 90.4355 21.418 90.4402 21.8881C90.4402 22.1539 90.2834 22.4196 90.1741 22.7518C90.5875 23.1504 90.578 23.6972 90.3642 24.2594C90.1884 24.7244 90.4545 25.1537 90.445 25.6085C90.4402 25.9867 90.5115 26.3546 90.2216 26.6357C90.578 27.2439 90.4972 27.9031 90.5638 28.5266C90.578 28.6799 90.483 28.8588 90.4022 29.007C90.1646 29.4465 90.1171 29.9115 90.2359 30.397C90.3309 30.7752 90.5067 31.1534 90.5067 31.5366C90.5067 32.1857 90.4402 32.8398 90.3214 33.4735C90.2216 34.0101 90.2597 34.5262 90.3072 35.0526C90.3547 35.5688 90.5162 36.0747 90.3737 36.6113C90.3262 36.7902 90.3832 36.9997 90.3737 37.1939C90.3689 37.3625 90.3879 37.567 90.3119 37.6998C90.1836 37.9298 90.1409 38.1291 90.2834 38.3591C90.3119 38.4102 90.3167 38.4868 90.3119 38.5533C90.2977 39.1052 90.2739 39.6622 90.2644 40.2142C90.2597 40.6434 90.2882 41.0778 90.2834 41.5071C90.2691 42.1408 90.2644 42.1408 89.8985 42.4985C89.8225 42.8818 89.7607 43.1987 89.699 43.5104C89.6847 43.5717 89.6419 43.6484 89.6609 43.6995C89.889 44.2565 89.5326 44.6245 89.2808 45.0027C89.01 45.4064 88.6156 45.6363 88.1452 45.6926C88.0834 45.6977 88.0169 45.7079 87.9693 45.7437C87.3611 46.2292 86.6104 46.0758 85.9356 46.2547C85.47 46.3774 84.9853 46.4285 84.5196 46.1883C84.4436 46.1474 84.3248 46.1729 84.2393 46.2087C83.9114 46.3467 83.5883 46.4285 83.2272 46.3569C82.9278 46.3007 82.7995 46.4438 82.8756 46.7862C83.0561 47.5579 82.6902 48.2376 82.581 48.9479C82.5144 49.3823 82.0535 49.7451 81.9727 50.1846C81.7874 51.1761 81.1269 51.7229 80.4617 52.2339C79.9153 52.6581 79.2785 52.9341 78.5991 53.1078C77.6915 53.3378 76.9122 53.1691 76.1092 52.6632C75.5342 52.3004 75.0971 51.8558 74.6837 51.3192C74.4651 51.033 74.047 50.9461 73.8759 50.5577C73.5908 49.9087 73.301 49.2239 73.3817 48.5238C73.4625 47.7981 73.3817 47.1439 73.1917 46.4898C72.2793 46.1781 71.329 46.776 70.4309 46.2649C70.2076 46.5205 69.9558 46.5613 69.6137 46.5358C68.9152 46.4898 68.2214 46.3722 67.4992 46.5869C67.0145 46.73 66.4538 46.5511 65.9264 46.5613C64.7337 46.5869 63.5458 46.6584 62.3531 46.6891C61.8067 46.6993 61.2412 46.7351 60.7138 46.6073C60.1151 46.4591 59.5496 46.6533 58.9699 46.6482C58.5613 46.6482 58.1289 46.5154 57.725 46.7607C57.6395 46.8118 57.4874 46.73 57.3686 46.7249C56.9695 46.7198 56.5751 46.7147 56.1759 46.7249C55.9954 46.7249 55.7958 46.8169 55.6343 46.7658C54.9073 46.5358 54.1945 46.7811 53.477 46.7862C53.1159 46.7862 52.7405 46.8833 52.4126 46.6124C52.3699 46.5767 52.2986 46.5613 52.2463 46.5716C51.8377 46.6533 51.4338 46.7862 51.0251 46.8169C50.5072 46.8526 49.9845 46.8066 49.4618 46.8015C48.8916 46.7913 48.3262 46.7095 47.7465 46.7198C47.0813 46.73 46.4445 46.9089 45.7936 46.8986C45.4752 46.8986 45.1568 46.8015 44.8337 46.7862C44.6627 46.776 44.4821 46.8322 44.311 46.868C44.1352 46.9089 43.9072 47.0622 43.7979 46.9906C43.3274 46.6891 42.8475 46.8935 42.3771 46.8884C41.8924 46.8833 41.4078 46.9548 40.9231 46.9957C40.8423 47.0008 40.7473 47.0468 40.6808 47.0162C40.2484 46.822 39.8207 46.6891 39.3693 46.9651C39.3075 47.0008 39.1507 46.9395 39.089 46.8731C38.7563 46.5 38.419 46.6738 38.0816 46.8373C37.5827 47.0826 36.7036 47.1695 36.1667 47.0417C35.9338 46.9855 35.682 46.9446 35.4492 46.9702C34.7934 47.0468 34.1377 46.8986 33.4772 47.0673C33.0924 47.1695 32.6695 47.1184 32.2656 47.1286C32.0232 47.1388 31.7856 47.1388 31.5433 47.1388C31.4435 47.1388 31.3152 47.1746 31.244 47.1235C30.6548 46.7198 29.9658 47.0315 29.3433 46.822C29.1485 46.7555 28.8681 46.9089 28.6543 47.0162C28.3834 47.1542 28.2599 47.4352 28.393 47.7265C28.5593 48.0945 28.4595 48.4062 28.3312 48.7333C28.1791 49.1115 28.0936 49.5509 27.8608 49.8627C27.6184 50.1846 27.4521 50.4862 27.3523 50.9001C27.2763 51.2221 26.9675 51.498 26.7204 51.7536C26.4543 52.0244 26.1502 52.2493 25.8508 52.469C25.7225 52.5661 25.5277 52.6939 25.4137 52.6479C25.0763 52.515 24.8245 52.7143 24.5441 52.8114C24.1497 52.9545 23.7553 53.0209 23.3562 52.8319C23.2849 52.7961 23.1994 52.7756 23.1234 52.7705C21.7454 52.6019 20.7713 51.7995 20.106 50.5322C19.9397 50.2153 19.8447 49.8525 19.6831 49.5305C19.5406 49.2494 19.3458 48.999 19.1937 48.7231C19.1367 48.6157 19.1129 48.4778 19.0987 48.35C19.0559 47.9718 19.0179 47.5885 18.9847 47.2104C18.5855 47.2359 18.2434 47.3126 17.9108 47.2717C17.5924 47.2308 17.2265 47.2921 16.9699 47.2001C16.3712 46.9855 15.8676 47.1644 15.3069 47.287C14.998 47.3535 14.6416 47.1695 14.2425 47.0877C13.9764 47.3535 13.6533 47.4914 13.2066 47.2308C12.9928 47.1082 12.6554 47.2564 12.3751 47.2564C12.1565 47.2564 11.9332 47.241 11.7241 47.1848C11.4628 47.1184 11.2252 47.0264 10.9733 47.2257C10.8878 47.2921 10.7405 47.2666 10.617 47.2768C10.579 47.2768 10.5362 47.241 10.4982 47.2461C9.59536 47.3535 8.6973 46.9548 7.78973 47.2104C7.65668 47.2461 7.47137 47.2819 7.37633 47.2104C7.00095 46.9446 6.68734 47.1695 6.34522 47.2819C6.12665 47.3535 5.87005 47.3739 5.64197 47.3432C4.77717 47.2155 4.10244 46.7555 3.5655 45.9992C3.09508 45.3297 2.67218 44.6654 2.78147 43.771C2.79573 43.6688 2.75296 43.5513 2.7197 43.4542C2.5819 43.0658 2.52013 42.6825 2.5724 42.2532C2.60566 42.0028 2.47261 41.7064 2.35857 41.4611C2.16851 41.0472 1.98795 40.669 2.05447 40.1631C2.10199 39.8002 1.89766 39.4118 2.07823 39.0234C2.11624 38.9468 2.02121 38.7781 1.95943 38.6657C1.77887 38.3335 1.63632 38.0065 1.81689 37.6129C1.8454 37.5465 1.81688 37.4443 1.79313 37.3625C1.72185 37.0968 1.58405 36.8311 1.57455 36.5653C1.54604 35.809 1.23718 35.0986 1.31321 34.3321C0.994846 33.7903 1.23718 33.218 1.22768 32.6609C1.22768 32.4872 1.20392 32.3185 1.18491 32.1448C1.10413 31.5213 1.0186 30.9029 0.937826 30.2795C0.928322 30.2181 0.952082 30.1415 0.933075 30.0853C0.609962 29.1705 0.83329 28.2302 0.781022 27.3052C0.728753 26.3035 1.04236 25.3734 1.04236 24.3871C1.04236 23.7994 1.38448 23.2833 1.83114 22.9051C2.11624 22.6649 2.33482 22.3889 2.52964 22.0414C2.80998 21.5457 2.99055 20.9273 3.57025 20.6565C3.72705 20.5849 3.84585 20.355 3.92187 20.1659C4.08343 19.7877 4.30676 19.5118 4.67739 19.3687C4.82469 19.3125 5.04326 19.2051 5.06702 19.0876C5.17631 18.4999 5.59921 18.3619 6.11239 18.2188L6.08863 18.2035Z" fill="#080404"/>
<path d="M35.2038 1.52335C35.6267 1.92708 36.1162 1.89641 36.6389 1.8402C37.1568 1.78398 37.6795 1.59491 38.2069 1.77377C38.5965 1.90664 38.9054 1.60001 39.257 1.56934C39.6039 1.53868 39.8985 1.90152 40.3024 1.76354C40.54 1.68178 40.8203 1.7431 41.0817 1.75843C41.8419 1.7942 42.6069 1.84531 43.3672 1.87597C43.7854 1.8913 44.1892 2.06507 44.6359 1.9322C44.902 1.85554 45.1728 1.86575 45.4342 1.70222C45.5862 1.60512 45.8713 1.646 46.0567 1.72777C46.2895 1.83509 46.4843 1.89642 46.7504 1.82998C46.969 1.77377 47.2208 1.88619 47.4584 1.8913C48.1664 1.90152 48.8791 1.89131 49.5871 1.90153C49.9863 1.90664 50.3854 1.97307 50.7846 1.95263C51.2597 1.92707 51.7301 1.80954 52.2053 1.78399C52.6282 1.75844 53.0511 1.81465 53.4788 1.81465C54.0014 1.81465 54.5241 1.79931 55.0468 1.7942C55.0896 1.7942 55.1371 1.77376 55.1656 1.7942C55.617 2.09572 56.1064 1.9373 56.5768 1.94241C56.6386 1.94241 56.7099 1.97818 56.7574 1.95774C57.3561 1.65623 57.9928 1.97308 58.6106 1.81977C59.0097 1.72267 59.4754 1.71755 59.8602 1.84531C60.4399 2.03951 60.9911 1.80954 61.5518 1.86064C61.7276 1.87597 61.9367 1.86064 62.0698 1.95263C62.3786 2.16727 62.678 2.18772 62.9963 2.0293C63.2909 1.8862 63.5713 1.90664 63.8849 1.97819C64.2175 2.05484 64.5739 2.05995 64.916 2.01906C65.6003 1.9373 66.2797 1.99352 66.964 2.00885C67.8858 2.02929 68.8219 2.13661 69.758 1.94753C70.2094 1.85554 70.7083 2.02929 71.1835 2.0855C71.2832 2.09572 71.402 2.19283 71.4733 2.15706C72.3334 1.74311 73.2789 2.42279 74.1247 1.90663C74.177 1.87086 74.2768 1.91685 74.3576 1.9373C74.4764 1.96285 74.5999 2.0395 74.7092 2.01395C75.2937 1.90152 75.8686 1.88109 76.4483 2.0293C76.6384 2.07529 76.8427 2.08039 77.0423 2.09572C77.1611 2.10594 77.3226 2.15193 77.3939 2.09572C77.7408 1.80442 78.0829 2.00885 78.4393 2.03951C78.9857 2.09062 79.5369 2.25415 80.0928 2.01906C80.2782 1.94241 80.53 2.00373 80.7438 2.04973C81.2617 2.17238 81.7559 2.26437 82.2976 2.10083C82.6445 1.99862 83.0484 2.10084 83.4238 2.13661C83.9322 2.17749 84.4359 2.24903 84.9395 2.28992C85.0536 2.30014 85.1724 2.2286 85.2864 2.18772C85.8186 1.97819 86.308 2.04463 86.7689 2.41258C87.3059 2.84186 87.8571 3.24557 88.4225 3.67484C88.4035 4.00191 88.5223 4.27278 88.7694 4.51808C89.235 4.97802 89.1875 5.61171 89.2018 6.21985C89.2065 6.52137 89.2635 6.82288 89.2683 7.12951C89.2683 7.3186 89.2303 7.5128 89.1733 7.69166C89.0592 8.02384 89.045 8.34068 89.2541 8.62687C89.3966 8.82106 89.4584 9.06127 89.3301 9.22991C88.9404 9.74095 89.1448 10.2775 89.2493 10.7886C89.3158 11.1208 89.3728 11.4223 89.2635 11.7494C89.235 11.8311 89.197 11.9384 89.2208 12.0049C89.4679 12.6539 89.121 13.2774 89.178 13.9315C89.2446 14.7236 89.1305 15.5311 89.0972 16.3334C89.0782 16.7576 89.2208 17.192 89.0165 17.6008C89.3443 18.117 89.0117 18.6842 89.1115 19.2259C89.1828 19.599 89.1115 20.0078 89.0972 20.4013C89.0735 20.8511 89.0972 21.3008 88.9975 21.7607C88.9309 22.0571 89.1258 22.42 89.2208 22.8186C88.7884 23.2836 88.8026 23.8764 89.1305 24.5255C88.6316 25.1336 88.7884 25.8031 88.9975 26.4828C89.0355 26.6105 89.0355 26.769 89.0117 26.9069C88.9309 27.464 88.7836 28.021 88.9927 28.5832C89.0307 28.6905 89.007 28.8336 88.9927 28.9562C88.9642 29.2117 88.9262 29.4673 88.8929 29.7381C88.1612 30.0345 87.3296 29.7228 86.5694 30.0499C85.8851 29.8659 85.1629 30.1674 84.4881 29.8505C84.4359 29.825 84.3646 29.8097 84.3076 29.8199C83.9179 29.9068 83.514 30.1112 83.1482 30.055C82.7633 29.9988 82.4021 29.9936 82.0173 30.0192C81.352 30.0652 80.682 30.0039 80.0168 29.9885C79.6984 29.9834 79.3563 29.9016 79.0665 29.9936C78.6151 30.1367 78.1922 30.0703 77.7503 30.0294C77.4604 30.0039 77.1658 30.0601 76.876 30.0805C76.4198 30.1112 75.9684 30.147 75.5122 30.1674C75.3934 30.1725 75.2746 30.1265 75.1559 30.1214C74.9373 30.1112 74.714 30.0856 74.5049 30.1265C74.2625 30.1725 74.0535 30.2389 73.7969 30.1214C73.3835 29.9323 73.0034 30.1265 72.6422 30.382C72.1433 30.0958 71.6159 30.009 71.0599 30.1623C70.9839 30.1827 70.8936 30.2134 70.8223 30.1878C70.1571 29.9681 69.5014 30.2236 68.8361 30.2389C68.3515 30.2492 68.0521 29.9425 68.1757 29.4264C68.2897 28.9562 68.2517 28.5269 68.1139 28.0772C68.0664 27.9188 68.0806 27.7348 68.0901 27.5662C68.1139 27.2238 68.2279 26.8916 68.0711 26.5339C68.0141 26.401 68.0949 26.1966 68.1234 26.0279C68.1994 25.5476 68.3705 25.0774 68.1709 24.5868C68.4275 23.9429 68.0141 23.3143 68.1234 22.6704C68.1424 22.5631 68.1044 22.4455 68.1376 22.3433C68.3325 21.7147 68.1567 21.1117 68.0759 20.4984C68.0474 20.2736 68.1091 20.0334 68.1376 19.7983C68.1662 19.5632 68.2612 19.3128 68.2184 19.0931C68.0569 18.2958 68.2042 17.5088 68.1852 16.7167C68.1709 16.0932 68.1567 15.4902 68.2374 14.8667C68.2802 14.5499 68.1519 14.1819 68.1234 13.8242C68.0474 12.7766 68.2327 11.7749 68.38 10.7579C68.4703 10.1191 68.5748 9.46499 68.399 8.81597C68.342 8.61155 68.2564 8.41224 68.1899 8.20782C68.1376 8.05451 68.0949 7.89097 68.0474 7.73765C67.9571 7.45147 67.8525 7.1704 67.767 6.88422C67.5532 6.13809 66.8547 5.87745 66.4413 5.33574C66.4033 5.28974 66.3368 5.22331 66.294 5.22842C65.8331 5.32552 65.3864 5.00356 64.9255 5.19776C64.8542 5.22842 64.7735 5.2642 64.6974 5.2642C63.348 5.2642 61.9937 5.2642 60.6443 5.23354C59.9885 5.21821 59.3328 5.09555 58.6723 5.06489C58.3159 5.04955 57.9548 5.14666 57.5984 5.14155C56.6244 5.12622 55.655 5.08022 54.6809 5.05467C54.5621 5.05467 54.4243 5.04446 54.3198 5.09556C54.0822 5.21821 53.8589 5.25398 53.6166 5.12111C53.5833 5.10067 53.5358 5.10067 53.4978 5.10578C52.5332 5.12622 51.5686 5.16199 50.604 5.17222C50.3236 5.17222 50.0385 5.11599 49.7582 5.08022C49.055 4.98823 48.3565 5.12111 47.6532 5.11089C47.0783 5.10578 46.5603 5.39196 46.3227 6.0461C46.2895 6.1432 46.1945 6.20963 46.1327 6.30162C45.8096 6.77689 45.5957 7.2726 45.4674 7.87563C45.2536 8.8875 45.3962 9.97092 44.9495 10.9368C44.8877 11.0697 44.9495 11.2792 44.978 11.4478C45.0636 11.9538 45.1681 12.4597 45.2441 12.9656C45.2726 13.1598 45.3106 13.3745 45.2584 13.5533C45.0826 14.1564 45.2489 14.7696 45.1776 15.3624C45.1158 15.8633 45.1538 16.3385 45.1871 16.824C45.2014 17.0591 45.2251 17.2891 45.2204 17.5242C45.2109 17.9483 45.3819 18.3929 45.1016 18.7915C45.0588 18.8529 45.035 18.996 45.0683 19.0369C45.3914 19.415 45.1348 19.829 45.1491 20.2225C45.1728 21.0146 45.2061 21.8118 45.2061 22.609C45.2061 23.4778 45.1681 24.3466 45.1586 25.2154C45.1538 25.6702 45.1206 26.1353 45.1966 26.5748C45.2489 26.8712 45.1966 27.1165 45.1586 27.3975C45.0968 27.8166 45.1253 28.2459 45.1206 28.6751C45.1206 29.2833 45.1206 29.8914 45.1206 30.5762C44.8022 30.5762 44.4696 30.5558 44.1417 30.5813C43.8661 30.6069 43.5953 30.6938 43.2104 30.7755C42.6782 30.4689 42.0082 30.3871 41.3192 30.6682C41.248 30.6989 41.1434 30.7244 41.0912 30.6887C40.7205 30.4178 40.3547 30.5865 39.9745 30.6631C39.6372 30.7296 39.2855 30.7347 38.9387 30.7193C38.6963 30.704 38.4777 30.6529 38.2354 30.7909C38.1119 30.8573 37.8838 30.7755 37.7317 30.6989C37.4942 30.5813 37.2756 30.5251 37.0285 30.6478C36.463 30.9289 35.8691 30.7193 35.2894 30.7653C35.0328 30.7858 34.7762 30.7142 34.5196 30.7347C33.9542 30.7806 33.3887 30.8113 32.8185 30.7193C32.6807 30.6989 32.5192 30.6887 32.4004 30.75C32.1533 30.8726 31.9537 30.8522 31.7066 30.7244C31.5688 30.6529 31.355 30.6887 31.1887 30.7295C30.628 30.8624 30.0911 30.9544 29.5066 30.7806C29.193 30.6887 28.8271 30.8369 28.4802 30.8471C28.0383 30.8624 27.5964 30.8573 27.1545 30.8471C26.228 30.8318 25.3061 30.8113 24.3796 30.7909C24.237 30.7909 24.0517 30.7244 23.9662 30.7909C23.3865 31.2968 22.7782 30.9186 22.1795 30.9033C21.5333 30.8829 20.8823 30.9237 20.2456 31.026C19.9795 31.0668 19.7847 31.0311 19.5519 30.9391C19.3713 30.8675 19.148 30.8011 18.9769 30.8522C18.3212 31.0617 17.6607 31.0362 17.0002 30.9595C16.7721 30.934 16.5726 30.8778 16.3635 31.0311C16.2922 31.0822 16.1639 31.1026 16.0784 31.0771C15.4702 30.9135 14.8667 30.9953 14.2585 31.0566C14.1397 31.0668 14.0067 31.0873 13.8974 31.0464C13.5743 30.9186 13.2987 31.0004 13.0468 31.2661C12.6857 31.0157 12.3246 30.7909 11.9302 31.1742C11.8922 31.2099 11.8161 31.1997 11.7591 31.1997C11.2507 31.1895 10.747 31.1741 10.2386 31.1639C9.69691 31.1486 9.15997 31.1077 8.62303 31.1333C8.07183 31.1588 7.52064 31.2457 6.88392 31.3173C6.6986 31.1486 6.41826 30.9953 6.08089 31.2457C6.02387 31.2866 5.91933 31.2968 5.84805 31.2712C5.36813 31.123 4.88347 31.2508 4.4083 31.2253C3.83335 31.1946 3.28215 31.2968 2.72146 31.353C2.5599 31.3683 2.39834 31.3735 2.23679 31.3888C2.04197 31.1793 2.09424 30.9544 2.1275 30.7142C2.16076 30.4842 2.12275 30.2441 2.09899 30.009C2.07998 29.7994 2.03722 29.595 2.01346 29.3906C1.99445 29.2424 2.04672 29.0431 1.9707 28.946C1.78538 28.6905 1.88517 28.4605 1.92793 28.205C1.95644 28.0466 1.96119 27.7962 1.87091 27.7093C1.59056 27.4333 1.67609 27.1114 1.6951 26.7945C1.71886 26.3346 1.73786 25.8746 1.80914 25.4249C1.85666 25.1081 1.97545 24.8014 2.09424 24.505C2.23679 24.1473 2.38884 23.7844 2.59316 23.4676C2.72146 23.2632 2.94954 23.1303 3.13485 22.9719C3.27265 22.8492 3.45322 22.7573 3.54825 22.609C3.92838 21.9907 4.34177 21.4132 4.86446 20.9175C5.03552 20.754 5.14006 20.4831 5.21133 20.2378C5.33963 19.8034 5.61522 19.5428 5.9716 19.3486C6.09514 19.2821 6.31372 19.2004 6.31847 19.1135C6.34223 18.6178 6.81264 18.5462 7.00271 18.2345C7.44461 17.5088 8.04332 16.9211 8.66579 16.4305C9.16947 16.037 9.51634 15.4646 10.1008 15.158C10.3906 15.0047 10.557 14.5703 10.7755 14.2586C10.9086 14.0746 11.0131 13.8651 11.1747 13.7118C11.4598 13.4358 11.7829 13.2007 12.0775 12.935C12.182 12.843 12.3103 12.7152 12.3341 12.5875C12.4006 12.2093 12.6857 12.0509 12.9233 11.8669C13.2797 11.5909 13.6788 11.3763 14.0494 11.1157C14.1777 11.0237 14.2918 10.8857 14.3725 10.7426C14.6244 10.2929 14.8525 9.8636 15.3514 9.62852C15.6365 9.49565 15.8028 9.09192 16.0594 8.85684C16.6914 8.27936 17.3518 7.74788 17.9791 7.16529C18.2974 6.86888 18.5635 6.50604 18.8486 6.17386C18.9294 6.07676 18.9912 5.95412 19.0862 5.87746C19.7087 5.33064 20.3834 4.84514 20.9536 4.237C21.3052 3.85882 21.6046 3.46533 22.1083 3.32224C22.189 3.29669 22.2461 3.17403 22.3126 3.09226C22.3743 3.0156 22.4219 2.89296 22.4979 2.85719C23.2772 2.49945 24.0754 2.18771 24.8405 1.7942C25.4297 1.48758 26.0806 1.67156 26.6699 1.43648C26.7221 1.41604 26.7886 1.43648 26.8457 1.4467C27.9908 1.76866 29.9342 1.86575 31.0556 1.70222C31.469 1.64089 31.8967 1.70222 32.3196 1.70222C32.5192 1.70222 32.7187 1.68689 32.9135 1.692C33.2889 1.70734 33.6643 1.61023 34.0302 1.86064C34.1775 1.96285 34.4578 1.8913 34.6622 1.8402C34.8332 1.79931 34.9853 1.67155 35.1706 1.56934L35.2038 1.52335Z" fill="white"/>
<path d="M73.4791 45.1452C72.7283 45.3087 72.0393 45.0276 71.3693 45.2934C71.2838 45.3291 71.1603 45.2985 71.07 45.2576C70.8229 45.1298 70.5806 45.0327 70.3192 45.2065C70.286 45.2269 70.2289 45.2474 70.2052 45.232C69.5732 44.8743 68.9745 45.2729 68.3663 45.324C68.2903 45.3291 68.1905 45.4007 68.1382 45.3649C67.6963 45.089 67.2164 45.3649 66.765 45.2423C66.5702 45.1912 66.3706 45.1656 66.171 45.1554C65.9762 45.1452 65.7766 45.1554 65.5771 45.1707C65.3775 45.1963 65.1827 45.2831 64.9879 45.278C64.4462 45.2729 63.8997 45.2167 63.358 45.2065C62.5312 45.1861 61.6997 45.1043 60.8824 45.2065C60.2695 45.278 59.6802 45.3445 59.0768 45.1963C59.0388 45.186 58.9913 45.186 58.9532 45.1963C58.1882 45.4671 57.3947 45.3751 56.6154 45.4109C56.1212 45.4314 55.6176 45.3036 55.1186 45.2576C54.9238 45.2423 54.7243 45.2576 54.5342 45.278C54.3156 45.3087 54.1018 45.4007 53.888 45.4058C53.161 45.4262 52.4244 45.508 51.707 45.4058C50.7281 45.2729 49.7635 45.416 48.8037 45.4825C48.1337 45.5285 47.4827 45.324 46.8317 45.4416C46.157 45.5642 45.4585 45.3292 44.8028 45.6562C44.7267 45.6971 44.608 45.646 44.5082 45.6358C44.2278 45.6102 43.938 45.5233 43.6671 45.5642C42.9591 45.6613 42.2749 45.5489 41.5764 45.5029C40.8589 45.4518 40.1271 45.4365 39.4049 45.4109C39.3669 45.4109 39.3146 45.4109 39.2861 45.4314C38.6636 45.8913 37.9556 45.692 37.3332 45.5796C36.7962 45.4825 36.302 45.5796 35.7889 45.5693C35.5085 45.5642 35.2519 45.5693 34.9716 45.4518C34.7863 45.37 34.4964 45.4518 34.2873 45.5438C34.0925 45.6307 33.9357 45.7329 33.7171 45.6153C33.6126 45.5591 33.4653 45.5336 33.3608 45.5693C32.8761 45.7329 32.3962 45.646 31.9115 45.5847C31.5029 45.5336 31.1227 45.6971 30.7331 45.7738C29.9871 45.922 29.2078 46.0139 28.4808 45.6C28.4285 45.5693 28.3668 45.5642 28.305 45.5489C27.9819 44.7057 27.654 43.8931 27.1123 43.1572C26.7132 42.6104 26.3045 42.2782 25.7106 42.1402C25.6346 42.1249 25.53 42.0891 25.5015 42.0329C25.2829 41.5576 24.8743 41.6139 24.4894 41.5934C23.8479 41.5627 23.2065 41.527 22.565 41.4963C22.4652 41.4963 22.3274 41.4759 22.2704 41.5321C21.9235 41.9051 21.4436 42.0278 21.0635 42.3804C20.6453 42.7688 20.2747 43.1981 19.9896 43.6682C19.6522 44.2202 19.1058 44.7159 19.2721 45.5438C18.8397 45.6818 18.4453 45.8402 18.0366 45.9322C17.8751 45.9679 17.6898 45.876 17.5187 45.83C17.3619 45.7891 17.1766 45.6562 17.0625 45.7073C16.6777 45.8913 16.2738 45.7584 15.9031 45.8453C15.561 45.9271 15.2284 45.9169 14.891 45.9577C14.6582 45.9884 14.4301 46.0804 14.1355 46.1621C13.8599 45.968 13.5653 45.7635 13.0854 45.9577C12.6578 46.1315 12.1351 46.0395 11.6504 46.0446C11.5649 46.0446 11.4793 45.9424 11.3843 45.9117C11.2323 45.8606 11.0327 45.7482 10.9281 45.8095C10.5718 46.0191 10.2011 45.9373 9.83526 45.9935C9.25556 46.0804 8.69486 46.2388 8.10091 46.0957C7.91084 46.0497 7.68276 46.0599 7.49744 46.1213C6.69441 46.3768 5.92464 46.1008 5.17388 45.9015C4.88878 45.8249 4.61793 45.4825 4.3946 45.1503C4.02873 44.6086 4.1 43.9953 3.9432 43.4281C4.2378 43.3718 4.53716 43.3105 4.92204 43.2339C5.14062 43.377 5.44948 43.5609 5.7916 43.2645C5.82011 43.239 5.88188 43.2083 5.90088 43.2236C6.45683 43.5763 7.10781 43.055 7.659 43.4332C7.69226 43.4536 7.73503 43.469 7.77779 43.469C8.71862 43.5098 9.6642 43.5609 10.605 43.5814C10.8996 43.5865 11.0992 43.3821 11.1372 43.055C11.1657 42.7944 11.1942 42.5286 11.1752 42.268C11.1515 41.9665 11.0707 41.6701 11.237 41.3788C11.2798 41.3021 11.2703 41.1539 11.237 41.0619C11.1135 40.7553 11.1657 40.4998 11.2845 40.1932C11.4746 39.7077 11.0517 38.9973 10.5243 38.9206C10.1346 38.8644 9.74973 38.6498 9.33159 38.8491C9.21279 38.9053 9.04649 38.8798 8.90869 38.8542C8.25296 38.7418 7.59723 38.6242 6.9415 38.5016C6.84171 38.4812 6.71342 38.4096 6.65165 38.4505C6.28102 38.6805 5.91514 38.5885 5.5255 38.5118C5.15487 38.4403 4.76524 38.4658 4.38035 38.4607C3.94795 38.4556 3.5108 38.4607 3.14017 38.4607C2.99762 37.9905 2.86457 37.5715 2.75053 37.1473C2.71252 37.0093 2.71252 36.8458 2.75053 36.7078C2.85031 36.3041 2.79805 35.931 2.66025 35.5529C2.60323 35.3944 2.5272 35.2054 2.56046 35.052C2.73152 34.2804 2.34664 33.6007 2.27061 32.875C2.26111 32.7779 2.18033 32.6859 2.13281 32.5888C2.2326 32.4048 2.31813 32.2311 2.3704 32.134C3.30647 32.134 4.19028 32.1544 5.07885 32.1289C5.66805 32.1135 6.26201 32.0318 6.97951 31.9704C7.15532 32.1391 7.46893 32.3282 7.83006 32.0062C7.86807 31.9755 7.94885 31.9704 8.00112 31.9858C9.11776 32.3333 10.2487 32.0522 11.3748 32.0369C11.7074 32.0369 12.0305 31.8836 12.3727 32.0318C12.4534 32.0675 12.5865 32.042 12.6673 31.9909C12.9238 31.8325 13.1567 31.8427 13.4133 31.9909C13.5273 32.0573 13.6889 32.0369 13.8314 32.0318C14.6012 31.9909 15.371 32.0982 16.136 31.904C16.4496 31.8222 16.8155 31.9909 17.1576 31.9909C17.5995 31.9909 18.0319 31.996 18.4738 32.1033C18.8302 32.1902 19.2531 32.1442 19.6094 32.0215C20.1464 31.8376 20.6501 31.812 21.2108 31.8733C21.8237 31.9398 22.4557 31.8222 23.0829 31.7865C23.2635 31.7762 23.4488 31.7558 23.6294 31.7609C23.9477 31.7711 24.2708 31.7967 24.5892 31.8274C24.8125 31.8478 25.0311 31.8836 25.2497 31.9193C25.3685 31.9398 25.5205 32.0318 25.5965 31.9858C26.143 31.6332 26.7132 31.9398 27.2644 31.8887C28.305 31.7865 29.3646 31.9551 30.3957 31.6638C30.524 31.628 30.6713 31.6843 30.8091 31.6996C30.9707 31.72 31.1465 31.7967 31.2843 31.7456C31.7167 31.5821 32.1158 31.7149 32.534 31.812C32.7621 31.8631 33.0091 31.8171 33.2467 31.8171C33.4035 31.8171 33.5651 31.8171 33.7219 31.8325C33.8407 31.8427 33.9927 31.9244 34.0783 31.8784C34.8338 31.4492 35.6558 31.8989 36.4256 31.6434C36.5824 31.5923 36.7772 31.7098 36.9578 31.7251C37.4234 31.7711 37.8843 31.7967 38.3263 31.5718C38.445 31.5105 38.6066 31.5054 38.7444 31.5207C39.3098 31.5718 39.8705 31.6485 40.4312 31.7047C40.6118 31.72 40.8446 31.7711 40.9634 31.6791C41.277 31.4338 41.5811 31.4952 41.89 31.6127C42.3652 31.7865 42.8071 31.7558 43.23 31.4032C43.5341 31.7251 43.8429 31.7354 44.2421 31.6076C44.5462 31.5105 44.9121 31.628 45.2732 31.6536C45.2732 31.7967 45.2922 31.9244 45.2732 32.042C45.1877 32.5479 45.0689 33.0334 45.1972 33.57C45.2684 33.8613 45.1639 34.2037 45.1449 34.5257C45.1354 34.6534 45.0974 34.8016 45.1401 34.909C45.335 35.3996 45.2399 35.8902 45.2257 36.391C45.2067 36.9991 45.297 37.6073 45.3207 38.2154C45.3302 38.5118 45.3017 38.8133 45.2922 39.1148C45.2684 39.7843 45.1734 40.4691 45.8101 40.9291C45.9527 41.0364 46.0477 41.2255 46.1475 41.389C46.4659 41.9103 46.8983 42.1096 47.4827 42.13C48.0862 42.1504 48.6801 41.9307 49.2979 42.13C49.583 42.222 49.9298 42.0329 50.2529 42.0329C51.1225 42.0227 51.992 42.0482 52.8664 42.0482C53.0707 42.0482 53.2702 42.0125 53.4746 41.9818C54.0258 41.9 54.5675 41.9614 55.1186 41.992C55.9454 42.038 56.777 41.9665 57.6085 41.9409C57.7273 41.9409 57.8509 41.8847 57.9696 41.9052C58.7347 42.0431 59.4949 42.0636 60.2599 41.9205C60.4548 41.8847 60.6638 41.9358 60.8682 41.9409C61.1057 41.9409 61.3433 41.9409 61.5762 41.9307C61.6569 41.9307 61.7472 41.8643 61.8137 41.8949C62.3174 42.1096 62.8116 41.854 63.3058 41.8847C63.4863 41.8949 63.7239 41.8489 63.838 41.9511C64.2609 42.3191 64.7218 42.1147 65.1684 42.1198C65.2634 42.1198 65.368 42.0738 65.4535 42.0176C66.0095 41.665 66.5654 41.3072 67.1119 40.9342C67.2259 40.8575 67.3257 40.7246 67.3827 40.5969C67.5965 40.1114 67.8674 39.6361 67.9767 39.12C68.1049 38.5118 68.1287 37.8679 68.1192 37.2393C68.1144 36.7436 68.0717 36.2785 68.238 35.7777C68.3758 35.3536 68.2618 34.8323 68.2713 34.357C68.2855 33.6722 68.0052 33.0079 68.162 32.3128C68.1857 32.1953 68.1335 32.0573 68.1192 31.9245C68.0622 31.4645 68.2713 31.2294 68.6942 31.255C69.4164 31.2959 70.1387 31.3572 70.8609 31.3521C71.2315 31.3521 71.5879 31.1937 71.9776 31.163C72.4242 31.1272 72.8424 31.1272 73.289 31.1937C73.7167 31.2601 74.1633 31.209 74.6005 31.2141C74.6813 31.2141 74.7763 31.2448 74.8428 31.2141C75.432 30.9484 76.0307 31.209 76.6057 31.163C77.0618 31.1272 77.518 31.2601 77.9694 31.1425C78.1452 31.0965 78.3353 31.1017 78.5159 31.1017C79.1811 31.1068 79.8511 31.1477 80.5163 31.1272C81.8278 31.0914 83.144 31.025 84.4554 30.9841C84.674 30.979 84.8973 31.0659 85.1112 31.0557C85.7764 31.025 86.4416 30.9688 87.1069 30.9177C87.1876 30.9126 87.3017 30.8359 87.3349 30.8666C87.7626 31.2703 88.2805 30.8921 88.7462 31.0761C88.8935 31.3776 89.0218 31.6843 88.8175 32.042C88.7604 32.1442 88.7224 32.3128 88.7557 32.4202C88.998 33.1152 88.9125 33.8358 88.96 34.5461C88.9885 34.9754 88.979 35.4098 88.9315 35.8339C88.865 36.4012 88.8745 36.9582 88.9315 37.5255C88.998 38.2256 88.8365 38.936 88.9553 39.6463C88.9648 39.6872 88.9838 39.7434 88.9695 39.7741C88.6369 40.5355 88.9695 41.3021 88.941 42.0687C88.9363 42.1913 88.9125 42.3242 88.865 42.4366C88.5799 43.0908 88.5751 43.0857 88.6131 43.6478C88.3851 43.9238 88.1427 44.1589 87.9669 44.445C87.7864 44.7312 87.582 44.8079 87.2922 44.7057C86.7457 44.5064 86.2183 44.5626 85.6956 44.8181C85.5531 44.8896 85.3868 44.905 85.2252 44.9305C84.9353 44.9816 84.6502 45.0225 84.2416 45.089C83.9787 44.9799 83.5241 45.0021 82.8779 45.1554C82.7543 44.767 82.6783 44.3428 82.493 43.9749C82.1889 43.377 82.1461 42.6206 81.5712 42.1811C81.5094 42.1351 81.4286 42.0636 81.4144 41.992C81.3193 41.4861 80.963 41.297 80.5638 41.1437C80.4355 41.0926 80.2882 41.021 80.2122 40.9137C79.9984 40.5969 79.699 40.4742 79.3664 40.4538C78.7867 40.4129 78.1927 40.3056 77.6368 40.6071C77.5513 40.6531 77.4372 40.6837 77.3422 40.6786C76.8623 40.6378 76.5201 40.8473 76.2636 41.2766C76.2065 41.3737 76.0735 41.4145 75.9737 41.481C75.8407 41.573 75.7029 41.6496 75.5793 41.7569C75.4273 41.8847 75.2895 42.038 75.1374 42.1709C75.0899 42.2118 75.0091 42.2322 74.9901 42.2833C74.8191 42.7944 74.2631 43.0448 74.2013 43.6325C74.1918 43.7142 74.1633 43.8267 74.1063 43.8624C73.6644 44.1589 73.5789 44.6597 73.4838 45.1349L73.4791 45.1452Z" fill="#FDD23E"/>
<path d="M67.2905 24.5498C66.9864 24.7236 67.0007 25.0507 67.0197 25.342C67.0387 25.6844 67.1575 26.0165 67.1765 26.3589C67.2002 26.87 67.1717 27.3861 67.167 27.8972C67.167 28.4951 67.167 29.093 67.1765 29.6858C67.1765 29.8136 67.224 29.9413 67.224 30.0742C67.224 30.7897 67.2145 31.5103 67.1955 32.2257C67.1765 32.8952 67.1242 33.5595 67.1147 34.229C67.1099 34.6378 67.1575 35.0518 67.1765 35.4606C67.224 36.3652 67.3428 37.2697 67.0624 38.1589C67.0482 38.1998 67.0434 38.2509 67.0529 38.2867C67.2477 39.1299 66.7678 39.6665 66.3069 40.2133C66.2404 40.2951 66.1406 40.3564 66.0931 40.4484C65.941 40.7602 65.7082 40.8215 65.3993 40.8624C64.8814 40.9339 64.392 41.2048 63.8455 41.1026C63.1993 40.985 62.5578 41.1486 61.9164 41.1434C61.598 41.1434 61.2749 41.1077 60.9565 41.1128C60.1345 41.1281 59.3125 41.1792 58.4857 41.1128C57.8442 41.0566 57.1932 41.1281 56.5517 41.077C55.744 41.0106 54.9457 41.1026 54.1474 41.1537C53.829 41.1741 53.5059 41.1537 53.1876 41.1179C52.6269 41.0464 52.0662 40.8726 51.5055 41.1026C50.7785 40.8726 50.0515 41.1281 49.3245 41.123C49.0013 41.123 48.683 41.1894 48.3599 41.1997C47.8039 41.2201 47.2955 41.0412 46.8251 40.7295C46.5732 40.566 46.4497 40.3411 46.5162 40.014C46.5352 39.9323 46.5447 39.825 46.5162 39.7534C46.0886 38.7773 46.3214 37.7297 46.2406 36.7229C46.1741 35.9308 46.1646 35.1336 46.1551 34.3363C46.1503 33.9479 46.2121 33.5595 46.2169 33.1711C46.2216 32.9361 46.2026 32.701 46.1598 32.471C46.0648 31.9395 46.1313 31.4285 46.2929 30.9226C46.3072 30.8817 46.3404 30.8306 46.3262 30.7999C45.9413 29.7318 46.2786 28.6075 46.1028 27.5343C46.0173 27.0182 46.1361 26.5685 46.1646 26.0881C46.1789 25.853 46.2311 25.5975 46.1646 25.3828C45.9603 24.6827 45.8985 23.9877 46.1218 23.2824C46.1266 23.262 46.1266 23.2365 46.1218 23.216C45.8605 21.8515 46.1028 20.4615 45.9318 19.0868C45.8605 18.4939 45.9698 17.8756 45.9745 17.2674C45.9745 16.7513 45.946 16.2351 45.9365 15.719C45.9175 14.6662 45.8795 13.6135 45.8938 12.5658C45.908 11.8351 46.0078 11.0991 46.0506 10.3683C46.0601 10.1741 46.0125 9.97995 45.9935 9.78065C45.9555 9.42291 45.9793 9.09074 46.2074 8.79433C46.2929 8.6819 46.3832 8.50814 46.3594 8.3906C46.2549 7.9 46.4972 7.49628 46.6065 7.067C46.7633 6.45375 47.5616 5.79449 48.4454 5.83027C48.8065 5.8456 49.1677 5.91204 49.5335 5.9376C49.6951 5.94782 49.8566 5.91205 50.0182 5.90694C50.2938 5.90183 50.5741 5.90693 50.8497 5.8967C51.2726 5.88648 51.6955 5.86094 52.1232 5.86094C53.121 5.86094 54.1141 5.87115 55.112 5.86604C55.3496 5.86604 55.5872 5.81495 55.8295 5.80984C56.9176 5.79962 58.0058 6.08579 59.0986 5.8456C59.7496 6.05002 60.4101 5.84049 61.0706 5.91715C61.8023 6.00403 62.5626 5.84561 63.3134 5.79451C63.3514 5.79451 63.4036 5.7434 63.4274 5.75873C64.0546 6.09602 64.7341 5.83027 65.3851 5.9427C66.2356 6.0909 66.7488 6.49974 66.9626 7.40429C67.0387 7.71603 67.0292 8.06354 67.3333 8.26796C67.3855 8.30373 67.4188 8.41615 67.4236 8.49792C67.4426 8.95275 67.4663 9.4127 67.4616 9.86753C67.4521 10.5574 67.3048 11.2473 67.4473 11.9373C67.4568 11.9781 67.4568 12.0344 67.4378 12.065C67.0339 12.7651 67.338 13.4857 67.3713 14.2012C67.3808 14.4056 67.2525 14.6151 67.2572 14.8247C67.2572 15.4226 67.2763 16.0256 67.3285 16.6235C67.3665 17.0375 67.4806 17.4463 67.2382 17.8296C67.2097 17.8807 67.1907 17.9676 67.2097 18.0187C67.4426 18.5757 67.129 19.1277 67.205 19.6847C67.3143 20.4819 67.2287 21.2843 67.1717 22.0764C67.129 22.6487 67.2477 23.216 67.1242 23.7935C67.0814 23.9928 67.2287 24.2432 67.3095 24.5396L67.2905 24.5498Z" fill="white"/>
<path d="M3.41272 42.3723C3.3462 41.3042 3.28918 40.3843 3.22266 39.3776C3.60279 39.3776 3.88789 39.3674 4.17774 39.3776C5.27062 39.4134 6.354 39.5207 7.43263 39.7302C7.92205 39.8273 8.43523 39.7404 8.93891 39.7711C9.35706 39.7915 9.77045 39.858 10.1411 39.8988C10.6353 40.7523 10.1268 41.4882 10.1221 42.311C9.93676 42.3416 9.76095 42.403 9.59464 42.3979C9.11472 42.3723 8.6348 42.3263 8.15488 42.2752C7.86978 42.2446 7.58944 42.173 7.3376 42.403C7.29008 42.449 7.1903 42.4285 7.11427 42.4336C6.74839 42.4541 6.37301 42.1168 6.00713 42.4592C5.58899 42.0452 4.96652 42.5614 4.54362 42.0912C4.4771 42.0146 4.23951 42.0912 4.09221 42.1321C3.88789 42.1832 3.68832 42.2701 3.40797 42.3672L3.41272 42.3723Z" fill="white"/>
<path d="M77.6504 49.3364C77.1847 48.8509 76.9281 48.3603 76.7523 47.7522C76.5955 47.2207 76.4957 46.7659 76.7238 46.2548C76.7856 46.1219 76.8331 45.9533 76.8141 45.8102C76.7428 45.3043 77.0612 45.0028 77.313 44.6808C77.5553 44.364 77.7454 44.3588 78.1113 44.5633C78.1303 44.5735 78.1445 44.599 78.1588 44.599C78.9333 44.7626 79.0236 45.4218 79.0569 46.0862C79.0806 46.5921 79.2042 47.0827 79.0569 47.6142C78.8383 48.437 78.3441 48.9327 77.6456 49.3364H77.6504Z" fill="white"/>
<path d="M23.4826 49.1278C23.1072 48.903 22.7651 48.7292 22.461 48.4993C22.3137 48.3868 22.1569 48.1773 22.1379 47.9984C22.0666 47.2268 21.9288 46.4449 22.2519 45.6834C22.3565 45.4381 22.347 45.1366 22.3945 44.8197C22.7318 44.7431 23.0787 44.646 23.4351 44.6C23.5729 44.5847 23.7867 44.646 23.8532 44.7533C24.0623 45.0855 24.3522 45.3921 24.3141 45.8521C24.3046 45.9594 24.3141 46.082 24.3522 46.174C24.6895 46.8997 24.5565 47.5436 24.1003 48.1569C23.8865 48.443 23.7154 48.7599 23.4874 49.1278H23.4826Z" fill="white"/>
<path d="M23.684 26.4731C23.3561 26.5345 23.0283 26.6009 22.6339 26.6724C22.5816 26.003 22.6434 25.4255 22.9428 24.9758C23.2801 24.4647 23.4037 23.8668 23.684 23.3404C23.779 23.1616 23.8883 22.9878 24.0024 22.8192C24.0356 22.7681 24.1307 22.7374 24.1354 22.6965C24.1734 22.2008 24.4538 21.9248 24.8292 21.7C24.8909 21.6642 24.9337 21.4853 24.9099 21.4036C24.8054 21.0816 24.986 20.8721 25.1095 20.6217C25.2711 20.2997 25.3756 19.942 25.5277 19.6098C25.675 19.2827 25.8318 18.9608 26.0171 18.6593C26.535 17.8211 26.8581 16.891 27.2288 15.9712C27.4521 15.4192 27.6992 14.8264 28.1411 14.3818C28.4119 14.111 28.6685 13.8094 28.6115 13.3444C28.5972 13.232 28.6875 13.0991 28.7445 12.9867C28.9536 12.588 29.1674 12.1945 29.3813 11.801C29.7899 11.0345 30.2033 10.273 30.6072 9.50644C30.6642 9.39402 30.707 9.27137 30.7497 9.14872C30.8638 8.81654 30.9731 8.47925 31.0871 8.14196C31.7808 8.25439 32.3891 8.36683 33.0163 8.17774C33.2681 8.10109 33.5627 8.19817 33.8383 8.2135C34.0616 8.22372 34.285 8.23905 34.5036 8.24416C35.183 8.26461 35.8673 8.27483 36.5468 8.29527C36.6656 8.29527 36.8176 8.36682 36.9031 8.3106C37.4591 7.97842 38.0673 8.12663 38.6232 8.18796C39.2362 8.2595 39.8349 8.12152 40.4336 8.18796C40.5144 8.19818 40.5904 8.2084 40.676 8.21862C40.8185 8.58146 40.8755 8.90853 40.7615 9.30203C40.6807 9.57799 40.7425 9.90507 40.7615 10.2066C40.809 10.7841 40.8898 11.3564 40.9326 11.939C40.9516 12.1741 40.8803 12.4143 40.8898 12.6494C40.9183 13.4415 40.8138 14.2336 40.9136 15.0308C40.9753 15.5368 40.9135 16.058 40.904 16.5742C40.904 16.6611 40.8613 16.7531 40.885 16.8297C41.0276 17.2948 41.0371 17.7547 40.9563 18.2402C40.9136 18.4957 40.9991 18.7921 41.0751 19.0528C41.1701 19.3901 41.0704 19.6456 40.828 19.8909C41.0609 20.1668 41.0418 20.4581 41.0228 20.8056C40.9991 21.2247 41.0799 21.6489 41.0228 22.0935C40.9611 22.5534 41.0609 23.0389 41.0561 23.5091C41.0466 24.2194 41.0086 24.9298 40.9801 25.6401C40.9753 25.7679 40.9421 25.8956 40.9183 26.0439C40.8138 26.0745 40.7235 26.1256 40.6284 26.1307C40.0868 26.1767 39.5403 26.2432 38.9939 26.2483C38.476 26.2534 37.958 26.1869 37.4401 26.1716C37.2215 26.1665 37.0029 26.2227 36.7844 26.2329C35.5964 26.2738 34.4085 26.3403 33.2206 26.3403C32.5031 26.3403 31.7904 26.3709 31.0776 26.4833C31.0396 26.4885 30.9921 26.4987 30.9588 26.4833C30.4029 26.2074 29.8612 26.4885 29.3147 26.5242C29.1769 26.5345 29.0391 26.4834 28.9013 26.4629C28.8063 26.4476 28.7018 26.4118 28.6115 26.4323C28.0128 26.5549 28.0128 26.56 27.5519 26.3556C27.2192 26.6111 26.8629 26.7849 26.4685 26.4067C26.402 26.3403 26.1881 26.3351 26.1311 26.3965C25.7842 26.7644 25.3566 26.6213 24.967 26.6264C24.5346 26.6315 24.1022 26.56 23.6698 26.5191L23.684 26.468V26.4731Z" fill="#080404"/>
<path d="M27.9127 8.28937C27.7701 8.6982 27.7131 8.94349 27.5991 9.15302C27.3139 9.67428 26.9956 10.1751 26.7105 10.6964C26.4872 11.1052 26.3018 11.5294 26.0975 11.9484C25.9075 12.3419 25.7221 12.7354 25.5273 13.1238C25.342 13.5071 25.1614 13.8904 24.9524 14.2635C24.7385 14.6519 24.4867 15.0147 24.2681 15.398C24.1541 15.6024 24.0781 15.8273 23.9688 16.0368C23.85 16.2565 23.7217 16.4712 23.5886 16.6807C23.4889 16.8442 23.3321 16.9822 23.275 17.156C23.104 17.6466 22.9757 18.1576 22.529 18.4694C22.4958 18.4898 22.472 18.5409 22.4672 18.5767C22.3247 19.5477 21.5407 20.2018 21.3744 21.1626C21.3649 21.2034 21.3554 21.2546 21.3268 21.2801C20.7994 21.8423 20.5571 22.6191 20.0867 23.2323C19.9346 23.4265 19.8348 23.6667 19.7113 23.8813C19.545 24.1777 19.3739 24.469 19.2171 24.7706C19.0888 25.0159 18.9653 25.2663 18.8512 25.5167C18.7467 25.7518 18.6517 25.9919 18.5661 26.2321C18.4378 26.6001 18.1622 26.7023 17.8344 26.7023C17.2927 26.7023 16.7462 26.6461 16.2188 26.8505C16.1475 26.8812 16.0525 26.876 15.9765 26.8556C15.0309 26.6103 14.0853 26.7841 13.135 26.7994C12.7168 26.8045 12.2464 27.0089 11.8663 26.595C11.8093 26.5336 11.6287 26.5745 11.5194 26.6154C10.5643 26.9527 9.59023 26.7176 8.6304 26.733C8.35005 26.733 8.0697 26.779 7.78935 26.7943C7.59453 26.8045 7.39496 26.8198 7.20015 26.7994C6.43038 26.7329 6.15953 26.089 5.91719 25.4451C5.84592 25.256 5.84592 25.0158 5.86968 24.8063C5.9362 24.3004 6.54442 23.3856 6.91029 23.0228C7.51851 22.4197 8.14097 21.8116 8.63515 21.1064C8.85372 20.7946 9.01053 20.488 9.34315 20.2836C9.51896 20.1762 9.59974 19.9003 9.72803 19.7061C10.0274 19.2462 10.303 18.7556 10.8209 18.5256C11.0062 18.4438 11.1013 18.3109 11.1203 18.081C11.144 17.7948 11.3484 17.6619 11.5764 17.5239C11.8235 17.3706 12.0183 17.1151 12.2274 16.8954C12.2702 16.8545 12.2654 16.7574 12.3082 16.7216C12.7786 16.3588 13.0875 15.817 13.5389 15.4338C13.6672 15.3264 13.8287 15.2498 13.919 15.1169C14.2516 14.6161 14.6983 14.2481 15.1402 13.8751C15.202 13.824 15.2732 13.7678 15.3207 13.7013C15.5963 13.2874 15.8672 12.8683 16.138 12.4493C16.1713 12.3982 16.2093 12.3317 16.2616 12.3062C16.9363 11.9127 17.3212 11.2023 17.8439 10.6453C17.9722 10.5073 18.129 10.4 18.262 10.2671C18.6184 9.91449 18.9605 9.54142 19.3216 9.19391C19.5307 8.9946 19.7731 8.66243 19.9916 8.67265C20.6569 8.6982 21.132 7.82942 21.8685 8.25359C22.0348 8.35069 22.2629 8.34558 22.4625 8.33536C23.2703 8.3047 24.0876 8.18203 24.8858 8.24336C25.38 8.28424 25.8885 8.06961 26.3779 8.3098C26.4824 8.3609 26.6535 8.25359 26.7913 8.25359C27.1049 8.25359 27.4185 8.2638 27.9032 8.27914L27.9127 8.28937Z" fill="#080404"/>
<path d="M70.553 25.5621C70.553 24.7393 70.5482 23.983 70.553 23.2266C70.553 23.0324 70.61 22.8433 70.6432 22.6542C70.6623 22.5469 70.7335 22.414 70.6955 22.3374C70.4342 21.8008 70.6527 21.2335 70.572 20.6816C70.5054 20.2421 70.5387 19.772 70.5957 19.3222C70.6575 18.8367 70.6765 18.3666 70.61 17.8709C70.5435 17.37 70.6432 16.8488 70.6765 16.3326C70.7193 15.6478 70.7858 14.9681 70.762 14.2782C70.743 13.6496 70.7525 13.0211 70.762 12.3925C70.7763 11.723 70.8381 11.0535 70.8143 10.3841C70.8 9.93945 70.9711 9.49484 70.9188 9.11156C70.8571 8.67206 70.9901 8.36543 71.1232 7.97704C71.2657 7.98726 71.4225 7.95149 71.5366 8.01282C72.2588 8.37566 72.9763 8.07414 73.6986 8.01282C73.8791 7.99748 74.0644 7.95149 74.2355 7.97704C74.6109 8.03836 74.9768 8.19679 75.3569 7.97704C75.4424 7.92593 75.5897 8.01282 75.7085 8.01282C76.407 8.00771 77.1008 8.06391 77.7993 8.16612C78.2792 8.23256 78.7828 8.06392 79.2723 8.07925C80.1751 8.10481 81.0732 7.96172 81.9855 8.04859C82.5319 8.0997 83.0879 7.99237 83.6391 7.97704C84.0239 7.96682 84.4136 7.96681 84.7985 8.00259C85.0883 8.02814 85.3021 8.20701 85.3116 8.54941C85.3306 9.15755 85.3782 9.76569 85.3259 10.3687C85.2499 11.3039 85.4779 12.2238 85.4019 13.1539C85.3211 14.1249 85.2594 15.101 85.1881 16.072C85.1786 16.1793 85.1548 16.2968 85.1881 16.3888C85.4542 17.089 85.3401 17.7993 85.2499 18.5097C85.2356 18.617 85.1596 18.7447 85.1928 18.8214C85.4162 19.2916 85.2546 19.7719 85.2309 20.2421C85.2024 20.7583 85.1073 21.2744 85.0455 21.7855C85.036 21.8519 85.0123 21.9234 85.0313 21.9797C85.2736 22.5827 85.1406 23.1806 85.055 23.7836C85.0218 24.0085 85.1216 24.2538 85.1501 24.4889C85.2119 25.0459 85.1311 25.2197 84.6084 25.3014C84.2188 25.3628 83.8054 25.3015 83.4062 25.2759C83.2874 25.2708 83.1686 25.189 83.0546 25.1941C82.3894 25.2197 81.7241 25.2657 81.0589 25.2861C80.7168 25.2963 80.3747 25.2708 80.0278 25.2503C79.89 25.2452 79.7332 25.1584 79.6191 25.2095C78.9492 25.5008 78.2697 25.3832 77.5807 25.3423C76.9392 25.3066 76.293 25.3679 75.6515 25.3679C75.1906 25.3679 74.7344 25.3219 74.2973 25.557C74.188 25.6183 74.0169 25.5672 73.8744 25.5519C73.3897 25.5059 72.9098 25.3679 72.4299 25.5774C72.4109 25.5876 72.3871 25.5927 72.3681 25.5876C71.7741 25.4037 71.1754 25.6387 70.5482 25.5621H70.553Z" fill="#080404"/>
<path d="M48.5093 8.29851C49.0653 8.27295 49.5547 8.25252 50.0441 8.22185C50.8472 8.17075 51.6502 8.19119 52.4532 8.20652C52.9331 8.21674 53.4178 8.08387 53.9025 8.08898C54.8243 8.10431 55.7461 8.19629 56.668 8.21162C57.1099 8.21673 57.547 8.08898 57.9889 8.07876C58.6161 8.06854 59.2434 8.12986 59.8658 8.12475C60.8304 8.12475 61.795 8.08898 62.7643 8.07876C63.6291 8.06854 64.4939 8.07876 65.4063 8.07876C65.3968 8.48249 65.4775 8.81977 65.3065 9.20817C65.1924 9.46369 65.3065 9.83164 65.316 10.1485C65.3207 10.4091 65.3635 10.68 65.316 10.9253C65.1402 11.7634 65.3255 12.5913 65.3255 13.4243C65.3255 13.7054 65.3255 13.9864 65.3302 14.2624C65.3397 14.845 65.3302 15.4327 65.3635 16.0153C65.3778 16.2912 65.4538 16.5621 65.5013 16.8329C65.5108 16.8994 65.5536 16.9709 65.5346 17.022C65.354 17.5637 65.5061 18.1055 65.5061 18.6472C65.5061 19.2297 65.4395 19.8123 65.4063 20.3949C65.4063 20.4562 65.3825 20.5329 65.4063 20.5789C65.7009 21.0644 65.487 21.5806 65.4918 22.0865C65.4918 22.3011 65.5298 22.5158 65.5251 22.7304C65.5108 23.4816 65.5393 24.2431 65.4443 24.9841C65.3493 25.7251 65.2875 25.7354 64.665 25.6638C64.1613 25.6076 63.6672 25.6996 63.1777 25.6842C62.0136 25.6536 60.8589 25.9398 59.6948 25.7609C59.5997 25.7456 59.4999 25.7865 59.4049 25.8069C59.3051 25.8325 59.1958 25.9142 59.1151 25.8887C58.2978 25.6331 57.4852 25.9398 56.668 25.8989C55.7604 25.8529 54.8481 25.8222 53.9405 25.7967C53.7789 25.7967 53.5889 25.7813 53.4653 25.8631C53.1327 26.0931 52.7953 25.9653 52.458 25.9551C51.94 25.9346 51.3556 25.72 50.9232 25.9142C50.3768 26.1595 49.8921 25.904 49.3789 26.0011C48.7469 26.1237 48.362 25.582 48.5093 24.9126C48.5284 24.8257 48.5711 24.7388 48.5616 24.657C48.4523 23.8803 48.5759 23.1035 48.5521 22.3318C48.5521 22.2091 48.4856 22.0865 48.4571 21.9638C48.4238 21.8412 48.343 21.6828 48.381 21.5908C48.6329 21.044 48.4096 20.4716 48.4761 19.9197C48.4808 19.8788 48.4618 19.8277 48.4761 19.7868C48.7232 19.1071 48.4476 18.4376 48.4523 17.763C48.4523 17.5024 48.4381 17.2264 48.4998 16.9811C48.6471 16.373 48.5664 15.7751 48.4998 15.172C48.4666 14.8705 48.5188 14.5639 48.5283 14.2573C48.5379 13.8587 48.3668 13.4396 48.6376 13.0614C48.6566 13.0359 48.6471 12.9746 48.6376 12.9337C48.4096 11.8758 48.6471 10.818 48.6186 9.75499C48.6186 9.61189 48.5901 9.45347 48.5379 9.3206C48.3906 8.96286 48.4001 8.61536 48.5093 8.28829V8.29851Z" fill="#080404"/>
<path d="M51.8837 29.9477C51.4132 29.8813 51.0141 29.8148 50.615 29.7689C50.3584 29.7382 50.1065 29.7024 49.8499 29.8608C49.7359 29.9324 49.5316 29.8711 49.3843 29.8251C49.142 29.7535 49.0089 29.5593 49.0564 29.2782C49.0992 29.0023 49.2798 28.8745 49.5316 28.8592C49.8309 28.8439 50.1255 28.8183 50.4249 28.8285C50.9904 28.8438 51.5558 28.8643 52.1165 28.9154C52.3446 28.9358 52.6344 28.9358 52.6962 29.2782C52.739 29.5082 52.4063 29.8864 52.1165 29.9426C52.0167 29.963 51.9169 29.9426 51.8837 29.9426V29.9477Z" fill="#080404"/>
<path d="M31.5784 9.13798C32.5287 8.99999 33.4363 8.95401 34.3581 9.06644C34.8713 9.12776 35.4035 9.04088 35.9262 9.02555C36.1685 9.02044 36.4109 9.02555 36.6532 9.02555C37.2994 9.03577 37.9409 9.06132 38.5871 9.06132C38.8485 9.06132 39.1098 9 39.3759 9C39.7655 9 40.0079 9.29641 40.0031 9.71036C39.9841 10.85 39.9746 11.9896 39.9461 13.1292C39.9366 13.4563 39.8606 13.7783 39.8701 14.1002C39.8938 15.3523 39.9508 16.6043 39.9794 17.8513C39.9889 18.2397 39.9271 18.6332 39.9318 19.0267C39.9413 20.4576 39.9508 21.8885 39.9794 23.3195C39.9889 23.7743 40.0459 24.2291 40.0696 24.684C40.0744 24.8066 40.0506 24.9344 40.0411 25.0519C39.5184 25.1592 39.029 25.2717 38.5301 25.3585C38.4493 25.3739 38.3495 25.2768 38.2593 25.2563C38.1072 25.2154 37.9504 25.1643 37.7936 25.1643C37.4752 25.1643 37.1569 25.1797 36.8385 25.2001C36.4964 25.2206 36.1543 25.2665 35.8121 25.2717C35.5318 25.2717 35.2514 25.2359 34.9663 25.2154C34.7668 25.2001 34.5434 25.1132 34.3771 25.1797C33.6216 25.4812 32.8519 25.2205 32.0916 25.3023C31.5261 25.3636 30.9607 25.379 30.3952 25.4045C30.2765 25.4096 30.1577 25.3841 30.0389 25.3688C29.6207 25.3228 29.2026 25.195 28.7797 25.4096C28.6656 25.4659 28.4993 25.3994 28.3615 25.3943C28.2237 25.3892 28.0527 25.3228 27.9481 25.3841C27.4825 25.6447 27.0026 25.3841 26.5369 25.471C26.4894 25.4812 26.4324 25.4148 26.4133 25.4045C26.6889 25.149 26.9408 24.8424 27.2544 24.638C27.5347 24.454 27.9386 24.2087 28.1857 24.3007C28.8177 24.5409 29.4259 24.3467 30.0389 24.3671C30.5996 24.3824 31.1603 24.3313 31.721 24.3467C32.0156 24.3569 32.1914 24.2445 32.2817 23.9634C32.3957 23.6261 32.5192 23.3195 32.505 22.9106C32.4812 22.3383 32.6618 21.7557 32.7853 21.1884C32.9231 20.5394 32.7473 19.9466 32.5192 19.3691C32.486 19.2822 32.3719 19.1698 32.2912 19.1647C31.7732 19.1289 31.2648 18.9091 30.7374 19.0727C30.6186 19.1085 30.4855 19.226 30.3952 19.1902C29.9011 19.0114 29.4164 19.1749 28.927 19.1749C28.5183 19.1749 28.3853 19.2209 28.2855 19.6706C28.1762 20.1561 28.0669 20.6467 28.0147 21.1373C27.9481 21.7812 27.5015 22.0725 27.1023 22.42C26.936 22.5631 26.7745 22.7164 26.6129 22.8646C26.5844 22.8902 26.5797 22.9515 26.5464 22.972C25.8764 23.4217 25.2017 23.8663 24.4414 24.3671C24.5554 23.9225 24.5649 23.5443 24.736 23.2786C25.0211 22.834 25.2634 22.4098 25.292 21.8477C25.2967 21.7148 25.5343 21.5717 25.6863 21.4797C25.9952 21.3008 26.2185 21.0913 26.1805 20.662C26.171 20.5292 26.228 20.3503 26.3136 20.2481C26.6272 19.875 26.6414 19.3078 27.0358 18.9858C27.1023 18.9347 27.1023 18.7865 27.1261 18.6792C27.1451 18.5923 27.1166 18.4646 27.1641 18.4288C27.5728 18.0915 27.682 17.5753 27.8959 17.1154C28.1144 16.6452 28.3568 16.1802 28.5896 15.7151C28.6941 15.5056 28.7654 15.2552 28.9127 15.0917C29.1313 14.8566 29.2929 14.6419 29.1978 14.2893C29.1836 14.2382 29.2073 14.1564 29.2406 14.1156C29.8631 13.3745 30.0721 12.378 30.5663 11.5757C30.994 10.8806 31.0557 10.0221 31.5404 9.37817C31.5737 9.33217 31.5642 9.25041 31.5832 9.12265L31.5784 9.13798Z" fill="white"/>
<path d="M26.8173 9.01515C26.537 9.50064 26.3089 9.90437 26.0761 10.2979C25.9478 10.5176 25.7625 10.7118 25.6722 10.952C25.4869 11.4324 25.3823 11.9588 24.8692 12.1887C24.8549 12.1938 24.8406 12.2194 24.8311 12.2398C24.5033 12.9809 24.1707 13.7219 23.8428 14.4578C23.8 14.5549 23.7858 14.6877 23.7145 14.744C22.7927 15.531 22.4363 16.6962 21.9184 17.7591C21.5905 18.4286 21.1819 19.0521 20.8065 19.696C20.7209 19.8442 20.5879 19.9771 20.5499 20.1355C20.3836 20.7794 20.0272 21.3007 19.6898 21.8373C19.1957 22.6243 18.6825 23.4062 18.3879 24.3209C18.3499 24.4436 18.3118 24.5765 18.2453 24.6838C18.041 25.0262 17.8177 25.3584 17.5801 25.7314C17.3663 25.6854 17.1192 25.6037 16.8626 25.5781C16.6203 25.5526 16.3732 25.5628 16.1308 25.5832C15.6699 25.6241 15.209 25.6803 14.7481 25.7314C14.6863 25.7365 14.6151 25.7876 14.5723 25.7621C14.0116 25.4606 13.4414 25.6701 12.8712 25.7008C12.5528 25.7161 12.244 25.665 11.9304 25.8796C11.7593 25.9972 11.4552 25.9307 11.2271 25.8796C10.828 25.7979 10.4526 25.711 10.0392 25.895C9.79686 26.0023 9.4785 25.9818 9.20765 25.9461C8.67072 25.8694 8.14328 25.7365 7.6111 25.6292C7.45429 25.5986 7.29273 25.573 7.09316 25.5372C6.98863 24.8064 7.10267 24.1574 7.69187 23.6566C7.92946 23.4522 8.11002 23.1762 8.33335 22.9564C8.54242 22.752 8.77525 22.5834 8.99858 22.3943C9.07936 22.3279 9.1839 22.2768 9.23141 22.1899C9.7636 21.2189 10.5999 20.5545 11.3364 19.7829C11.5787 19.5273 11.8116 19.2514 12.0206 18.9601C12.2345 18.6637 12.453 18.3877 12.7762 18.2242C12.8427 18.1884 12.9092 18.1066 12.933 18.03C13.1658 17.3299 13.8025 16.9823 14.1826 16.3895C14.4392 15.9858 14.8907 15.7047 15.095 15.209C15.133 15.117 15.304 15.0915 15.4038 15.0199C15.5226 14.9382 15.6889 14.8615 15.7317 14.744C15.917 14.1767 16.4112 13.9825 16.7961 13.6503C16.8911 13.5686 17.0194 13.4868 17.0479 13.3744C17.2475 12.6231 17.927 12.3216 18.3261 11.7595C18.6635 11.2842 19.0959 10.8907 19.4237 10.4154C19.6661 10.0628 20.0177 10.0781 20.3218 9.92481C20.5166 9.82771 20.7209 9.74594 20.9205 9.66417C21.0488 9.61307 21.1771 9.55686 21.3054 9.53131C21.8756 9.43932 22.4886 9.50576 22.921 8.92317C23.0065 8.81074 23.3059 8.86695 23.5054 8.87206C24.0899 8.8925 24.6791 8.92828 25.2635 8.95383C25.7577 8.97427 26.2471 8.98449 26.8268 8.99982L26.8173 9.01515Z" fill="white"/>
<path d="M71.5362 24.4684C71.5077 24.3049 71.4222 24.1413 71.4602 24.0238C71.617 23.5383 71.5647 23.0784 71.4174 22.6133C71.3984 22.5571 71.4222 22.4856 71.4269 22.4191C71.4744 21.6679 71.5457 20.9167 71.5647 20.1705C71.5837 19.5931 71.5315 19.0105 71.5267 18.4279C71.5267 18.0855 71.4982 17.7226 71.579 17.4007C71.7643 16.6545 71.636 15.9289 71.5457 15.1929C71.5362 15.1112 71.4792 14.9885 71.5125 14.9528C71.8451 14.5899 71.6407 14.1657 71.6455 13.7671C71.655 12.8064 71.6788 11.8456 71.693 10.8848C71.6978 10.3431 71.693 9.80143 71.693 9.19329C72.1064 8.94288 72.6101 8.99909 73.1185 9.13707C73.1993 9.15751 73.2753 9.20862 73.3514 9.20862C73.9358 9.19329 74.5155 9.1524 75.1 9.14218C76.0503 9.12685 76.9959 9.13196 77.9462 9.12685C78.2266 9.12685 78.5069 9.11152 78.7873 9.12174C79.6758 9.14729 80.5644 9.18306 81.4529 9.20351C81.5955 9.20351 81.7333 9.16773 81.8758 9.13707C81.9566 9.12174 82.0517 9.03998 82.1087 9.07064C82.8974 9.46926 83.729 8.92755 84.5463 9.2444C84.5463 9.67368 84.5463 10.1694 84.5463 10.66C84.5463 10.8695 84.5463 11.079 84.5463 11.2886C84.5463 12.0603 84.6746 12.8268 84.4227 13.5985C84.3134 13.9409 84.4085 14.3651 84.4227 14.7535C84.4465 15.4587 84.4845 16.1588 84.3325 16.8538C84.3134 16.9407 84.2849 17.0276 84.2897 17.1094C84.3229 17.6409 84.361 18.1723 84.3942 18.7038C84.399 18.806 84.3752 18.9134 84.3705 19.0207C84.3515 19.4091 84.3324 19.7975 84.3134 20.1859C84.2992 20.4823 84.2849 20.7838 84.2707 21.0802C84.2707 21.1006 84.2564 21.1262 84.2564 21.1415C84.3087 21.4737 84.494 21.8672 84.3895 22.1176C84.2469 22.4549 84.2754 22.7411 84.2992 23.063C84.3277 23.431 84.3325 23.7989 84.3467 24.1771C83.8003 24.4633 83.2586 24.264 82.7216 24.2282C82.4603 24.2129 82.2227 24.2129 81.9519 24.2998C81.586 24.4173 81.1726 24.3407 80.783 24.402C80.2983 24.4786 79.8421 24.4071 79.367 24.3253C79.0201 24.264 78.6495 24.3355 78.2883 24.3713C77.8654 24.4122 77.4473 24.4888 77.0244 24.5348C76.7678 24.5604 76.5112 24.5451 76.2499 24.5604C75.4848 24.6064 74.7293 24.4173 73.9548 24.5093C73.4036 24.5757 72.8334 24.4582 72.268 24.4429C72.0304 24.4326 71.788 24.4633 71.5125 24.4786L71.5362 24.4684Z" fill="white"/>
<path d="M64.5897 24.6231C64.2238 24.6384 63.8674 24.6486 63.511 24.6793C63.1119 24.71 62.708 24.7764 62.3089 24.7815C62.0713 24.7815 61.8337 24.6946 61.5961 24.6537C61.4963 24.6333 61.3965 24.5975 61.3015 24.6078C60.8834 24.664 60.4652 24.7508 60.0423 24.802C59.4721 24.8684 58.8972 24.9144 58.3222 24.8071C58.3032 24.8071 58.2794 24.8019 58.2604 24.7968C57.7948 24.6793 57.3719 25.0524 56.8492 24.8479C56.431 24.6844 55.8989 24.8786 55.4142 24.9144C55.2954 24.9246 55.1386 24.9706 55.0626 24.9144C54.7537 24.6742 54.4258 24.8326 54.1122 24.8428C53.4518 24.8684 52.7913 24.9604 52.1308 25.0166C52.0405 25.0217 51.9455 24.9297 51.8504 24.9195C51.6794 24.899 51.4703 24.8377 51.342 24.9195C51.0474 25.1035 50.7671 25.0779 50.4582 25.0268C50.2254 24.991 49.983 25.0217 49.7122 25.0217C49.6789 24.9808 49.5886 24.9144 49.5886 24.8479C49.5791 24.3369 49.5601 23.8258 49.5886 23.3199C49.6124 22.9213 49.5744 22.5227 49.6884 22.1139C49.7455 21.9094 49.5126 21.6079 49.3938 21.3064C49.6172 21.0151 49.6457 20.688 49.6029 20.2588C49.5554 19.8244 49.7264 19.3593 49.4413 18.9454C49.4223 18.9198 49.4413 18.8585 49.4556 18.8227C49.7264 18.1839 49.3891 17.5298 49.4889 16.8859C49.5221 16.6763 49.5221 16.4617 49.5221 16.2522C49.5221 15.8025 49.6172 15.3578 49.4651 14.8979C49.3653 14.5862 49.4556 14.208 49.4176 13.8656C49.3748 13.4568 49.3558 13.0633 49.3938 12.6493C49.4413 12.1383 49.3416 11.6119 49.3083 11.0906C49.3083 11.0702 49.294 11.0446 49.2988 11.0242C49.3986 10.37 49.2513 9.71081 49.2988 8.99023C49.6124 9.04134 49.8833 9.11288 50.1588 9.12821C50.577 9.14865 50.9951 9.15376 51.4085 9.1231C52.4301 9.04133 53.4518 9.00557 54.4781 9.10266C55.0721 9.15888 55.6755 9.06688 56.2742 9.04133C56.3123 9.04133 56.374 9.00045 56.3883 9.0209C56.8682 9.51661 57.4146 8.99022 57.9373 9.13843C58.4267 9.28152 58.9684 9.22531 59.4864 9.25597C59.5481 9.25597 59.6289 9.28152 59.6669 9.25597C60.2466 8.79092 60.9214 9.34796 61.5343 9.04644C61.7529 8.93912 62.019 9.22532 62.3421 9.18443C63.0169 9.09756 63.7059 9.15887 64.4138 9.15887C64.4519 9.83856 64.4946 10.5029 64.5184 11.1724C64.5374 11.8214 64.5564 12.4704 64.5374 13.1195C64.5184 13.7685 64.4281 14.4175 64.3996 15.0665C64.3806 15.5009 64.3188 15.9711 64.4519 16.3595C64.6324 16.891 64.4519 17.3969 64.5041 17.9131C64.5659 18.557 64.4946 19.2162 64.4851 19.8653C64.4851 19.9113 64.4851 19.9572 64.4994 19.993C64.7797 20.734 64.5754 21.4802 64.5184 22.2263C64.5041 22.4358 64.5944 22.6453 64.6087 22.86C64.6277 23.1564 64.6324 23.4528 64.6277 23.7441C64.6277 23.9996 64.6039 24.2551 64.5849 24.6384L64.5897 24.6231Z" fill="white"/>
</svg>
