<svg width="226" height="107" viewBox="0 0 226 107" fill="none" xmlns="http://www.w3.org/2000/svg">
<path d="M17.4507 103.085C14.5128 101.43 12.6106 100.112 11.7439 99.1295C10.8675 98.0751 10.2497 96.7657 9.89073 95.2011C9.5708 93.9245 9.33137 92.1603 9.17242 89.9086C9.08548 87.6471 9.03943 85.4167 9.03427 83.2174C9.02911 81.0181 9.06125 79.3637 9.13067 78.2543C9.44184 77.8454 9.52233 77.3578 9.37214 76.7916C9.28419 76.1435 9.24021 75.8195 9.24021 75.8195C9.11934 75.4692 9.24431 74.4989 9.61514 72.9086C9.97619 71.2463 10.2426 69.1568 10.4144 66.6402C11.2681 62.1243 12.1476 58.3383 13.0528 55.2821C14.0202 52.1442 15.0103 49.4432 16.023 47.1791C17.0357 44.915 18.0729 42.8309 19.1344 40.9268C21.6762 37.5018 23.7446 34.9111 25.3395 33.1547C26.9247 31.3262 28.765 29.7565 30.8603 28.4454C32.1832 27.3859 33.4225 26.521 34.5782 25.8508C35.7339 25.1806 36.7322 24.9718 37.5731 25.2243C41.7228 25.5411 44.9718 26.7868 47.3203 28.9614C49.659 31.064 51.6384 34.572 53.2586 39.4854C54.1926 42.5853 54.8716 45.4264 55.2954 48.0089C55.7815 50.5096 55.9435 53.0542 55.7815 55.6429C55.6097 58.1595 55.0401 60.9868 54.0727 64.1248C53.1773 67.2529 51.8102 70.9584 49.9715 75.2413C48.1256 80.5518 45.8677 85.2582 43.1978 89.3606C40.6 93.4531 37.7866 96.7683 34.7577 99.306C31.8106 101.906 28.8085 103.56 25.7513 104.268C22.7661 104.967 19.9992 104.572 17.4507 103.085ZM23.9382 99.0145C25.565 98.5737 27.0808 97.8546 28.4854 96.8573C29.89 95.86 31.3178 94.4929 32.7687 92.756C34.2099 90.9471 35.8133 88.7128 37.579 86.0532C39.158 83.6389 40.4258 81.6335 41.3824 80.037C42.4013 78.3587 43.2042 76.7098 43.791 75.0901C44.4499 73.4607 44.9927 71.5171 45.4196 69.2591C45.9185 66.9914 46.4374 64.061 46.9764 60.4679C47.2593 58.2295 47.447 56.3707 47.5396 54.8915C47.6321 53.4123 47.6314 52.0557 47.5372 50.8218C47.4333 49.516 47.233 48.0398 46.9362 46.3934C46.7114 44.7373 46.4231 42.6131 46.0713 40.0209C45.8332 38.8065 45.4101 37.5806 44.8022 36.3431C44.1844 35.0337 43.5436 34.094 42.8796 33.5241C42.052 32.8298 40.9706 32.4265 39.6354 32.3144C38.2904 32.1303 36.8747 32.5058 35.3883 33.4408C34.5731 33.9181 33.5694 34.8977 32.3772 36.3795C31.1752 37.7893 29.9305 39.4249 28.6432 41.2863C27.3558 43.1476 26.1453 45.0352 25.0118 46.9491C23.9502 48.8531 23.0802 50.5479 22.4018 52.0333C21.7856 53.4369 21.5118 54.3907 21.5802 54.8948C21.5802 54.8948 21.5686 55.0797 21.5455 55.4495C21.5943 55.8095 21.4992 56.1891 21.26 56.5882C20.4608 57.7234 19.661 59.6652 18.8607 62.4138C18.1324 65.1527 17.489 68.2466 16.9305 71.6957C16.3622 75.0729 15.9379 78.4304 15.6576 81.7684C15.4395 85.0247 15.4197 87.8507 15.5982 90.2464C15.7181 92.2102 15.8269 93.5521 15.9246 94.2721C16.0223 94.9922 16.2445 95.5487 16.5912 95.9416C16.9281 96.2626 17.4939 96.9191 18.2885 97.9113C18.8183 98.5727 19.6116 99.015 20.6686 99.2382C21.7976 99.4517 22.8874 99.3771 23.9382 99.0145ZM63.551 88.6882C63.0567 88.8286 62.5167 88.9019 61.9308 88.9081C61.4072 88.8325 60.869 88.6489 60.3161 88.3572C59.6619 87.8594 59.2072 87.4811 58.9521 87.2224C58.6872 86.8917 58.5419 86.3614 58.5162 85.6315C58.5624 84.8919 58.663 83.7416 58.8178 82.1806C59.0215 80.9797 59.2385 79.3369 59.4689 77.2523C59.6895 75.0957 59.9511 72.9702 60.2535 70.8758C60.3131 69.6944 60.4399 68.4672 60.6338 67.1942C60.8997 65.9115 61.1803 64.7368 61.4755 63.67C61.7609 62.5313 61.9726 61.6592 62.1104 61.0539C62.4128 58.9595 62.7134 57.1221 63.0122 55.5415C63.3831 53.9512 63.8326 52.1302 64.3608 50.0785C64.8792 47.9548 65.4897 45.1587 66.1923 41.69C67.19 37.1546 67.9335 33.717 68.4226 31.3773C68.9739 28.9559 69.3612 27.2166 69.5844 26.1597C69.8699 25.021 70.0455 24.1538 70.1113 23.5582C70.0332 22.9821 70.1185 22.5306 70.3675 22.2034C70.6884 21.8665 71.1009 21.6639 71.6049 21.5955C72.613 21.4587 73.4735 21.8552 74.1864 22.7851C74.9615 23.6332 75.5139 24.7316 75.8436 26.0802C76.1635 27.3567 76.1136 28.6102 75.6939 29.8405C74.8937 32.5891 74.0898 35.8515 73.2823 39.6277C72.4651 43.332 71.6789 46.9953 70.9239 50.6177C70.1591 54.1682 69.3979 57.2048 68.6404 59.7276C68.6794 60.0156 68.6398 60.5343 68.5216 61.2837C68.4033 62.0331 68.2392 62.7154 68.0294 63.3305C67.8195 63.9457 67.6048 64.5248 67.3852 65.0679C67.2376 65.6013 67.1637 65.868 67.1637 65.868C67.2028 66.156 67.1681 66.7107 67.0596 67.5321C66.9511 68.3535 66.795 69.3647 66.5913 70.5657C66.4206 71.4688 66.212 72.6338 65.9657 74.0605C65.7913 75.4775 65.6957 76.6638 65.6787 77.6195C65.9508 76.9225 66.5749 75.8478 67.5511 74.3954C68.5273 72.9429 69.4559 71.6802 70.337 70.6073C71.3522 69.4428 72.4969 68.1508 73.7709 66.7312C75.0449 65.3117 76.0748 64.2552 76.8607 63.5619C77.6466 62.8686 78.3343 62.2619 78.9237 61.7419C79.5753 61.1402 79.9012 60.8393 79.9012 60.8393C79.8621 60.5512 79.9505 60.3926 80.1666 60.3632C80.4448 60.2521 80.7279 60.1771 81.016 60.138C81.304 60.0989 81.4431 60.0433 81.4334 59.9713C81.4956 59.8895 81.5072 59.7046 81.4681 59.4166C81.4192 59.0566 81.7713 58.6788 82.5242 58.2833C83.3492 57.878 84.292 57.53 85.3525 57.2394C86.4753 56.867 87.3968 56.632 88.1168 56.5342C88.9809 56.417 89.6894 56.5041 90.2423 56.7958C90.7952 57.0874 91.5508 57.7915 92.509 58.9081C93.5294 59.9429 94.26 61.2738 94.7008 62.9006C95.2039 64.4457 95.2846 66.1213 94.9431 67.9277C95.0213 68.5037 95.0257 69.3465 94.9563 70.4559C94.9491 71.4835 95.0237 72.5734 95.18 73.7255L95.0011 77.2698L96.7292 77.0352C97.3053 76.957 97.86 76.9918 98.3933 77.1394C98.9169 77.215 99.1787 77.2528 99.1787 77.2528C99.5058 77.5017 99.833 77.7506 100.16 77.9996C100.477 78.1765 100.78 78.2454 101.068 78.2063C101.932 78.089 102.305 78.4051 102.187 79.1545C102.059 79.8319 101.602 80.5172 100.816 81.2105C99.2441 82.5972 97.7381 83.3882 96.298 83.5837C94.9299 83.7694 93.5916 83.3644 92.2831 82.3686C90.9649 81.3009 90.0591 80.0305 89.5659 78.5574C89.0726 77.0844 88.9576 75.1567 89.221 72.7743C89.079 69.5669 88.9103 67.2432 88.7148 65.803C88.5816 64.2811 88.1189 63.5739 87.3269 63.6814C86.6068 63.7791 85.4151 64.4542 83.7517 65.7066C82.0786 66.887 80.2384 68.4568 78.2309 70.4159C76.2235 72.375 74.2765 74.5092 72.39 76.8186C70.5034 79.128 68.9867 81.4605 67.8397 83.8161C67.1222 85.0135 66.4261 86.098 65.7513 87.0696C65.0667 87.9691 64.3333 88.5087 63.551 88.6882ZM107.544 84.6973C107.178 84.1603 106.76 83.7772 106.288 83.5478C105.808 83.2464 105.548 82.9517 105.508 82.6636C105.469 82.3756 105.394 82.0925 105.283 81.8142C105.234 81.4542 105.046 81.1497 104.719 80.9008C104.301 80.5176 104.205 79.5406 104.431 77.9699C104.648 76.3271 105.11 74.3212 105.815 71.9521C106.51 69.5111 107.371 66.9377 108.397 64.2317C108.895 63.5775 109.368 62.7433 109.817 61.729C110.266 60.7147 110.615 60.044 110.864 59.7169C110.825 59.4289 110.899 59.1622 111.085 58.9169C111.262 58.5995 111.495 58.4213 111.783 58.3822L111.695 57.7342C111.646 57.3741 111.887 56.7181 112.418 55.7661C113.021 54.8042 113.758 53.7509 114.629 52.606C115.49 51.3891 116.398 50.2393 117.351 49.1566C118.294 48.0019 119.096 47.1597 119.758 46.6299C121.133 45.4166 122.598 44.5944 124.153 44.1634C125.78 43.7226 127.233 43.8921 128.512 44.6718C128.757 44.8585 129.166 45.1696 129.739 45.6053C130.311 46.0409 130.965 46.5388 131.701 47.0989C132.5 47.5772 133.303 48.0915 134.111 48.6419L138.591 51.6638L137.38 57.3282C136.834 60.3355 136.925 62.8899 137.65 64.9915C138.447 67.0832 139.421 68.8577 140.572 70.3148C141.04 71.058 141.862 71.7163 143.04 72.2898C144.29 72.8535 145.429 73.1389 146.456 73.1461C147.042 73.14 147.612 73.2827 148.165 73.5743C148.717 73.8659 149.048 74.4078 149.155 75.1998C149.253 75.9199 149.187 76.5155 148.958 76.9866C148.728 77.4578 148.263 77.8142 147.563 78.0559C145.226 78.6665 142.915 78.3934 140.632 77.2367C138.42 76.0702 136.225 73.9481 134.048 70.8703C133.701 70.4774 133.197 69.739 132.537 68.6553C131.939 67.4899 131.579 66.732 131.458 66.3817C131.219 66.7809 130.772 67.5382 130.117 68.6538C129.452 69.6974 128.933 70.4645 128.559 70.9552C124.15 76.8335 120.196 80.9269 116.696 83.2352C113.258 85.4618 110.208 85.9492 107.544 84.6973ZM110.612 78.121C110.68 78.6251 111.436 78.5225 112.88 77.8132C114.386 77.0221 115.941 75.7844 117.546 74.0999C119.711 71.6795 121.846 69.043 123.953 66.1905C126.131 63.3282 127.829 60.7143 129.048 58.3489L130.897 54.1381C129.952 52.5796 129.008 51.571 128.066 51.1123C127.186 50.5717 126.458 50.3405 125.882 50.4187C124.946 50.5457 123.659 51.6004 122.021 53.5826C120.456 55.5551 118.824 58.1232 117.127 61.2869C115.43 64.4505 113.88 67.8876 112.477 71.598C111.952 73.1358 111.494 74.6279 111.104 76.0742C110.776 77.4388 110.612 78.121 110.612 78.121ZM151.658 80.2501C150.87 79.8438 150.266 79.449 149.847 79.0659C149.429 78.6827 149.202 78.0902 149.166 77.2883C149.164 76.1887 149.228 75.0433 149.36 73.8521C149.482 72.5889 149.681 71.3519 149.956 70.1412C149.996 68.8157 150.072 67.4854 150.185 66.1502C150.369 64.8052 150.779 63.5029 151.414 62.2433C151.989 59.452 152.604 56.6919 153.26 53.9628C153.907 51.1617 154.395 48.2722 154.724 45.2942C155.452 42.5554 156.111 40.1193 156.702 37.9858C157.364 35.8426 158.129 33.0989 158.995 29.7547C159.49 28.0008 159.853 26.0815 160.083 23.997C160.376 21.8306 160.991 19.8771 161.928 18.1366C162.344 17.4202 162.631 16.8313 162.788 16.3699C163.008 15.8268 163.232 15.3196 163.462 14.8485C163.547 14.3969 163.996 14.1894 164.807 14.2259C165.691 14.2526 166.347 14.4936 166.775 14.9488C167.125 14.8279 167.621 15.2373 168.262 16.177C168.903 17.1167 169.19 17.8843 169.124 18.4799C169.232 19.272 169.061 20.1751 168.612 21.1894C168.363 21.5165 168.134 21.9877 167.924 22.6028C167.704 23.1459 167.365 23.8886 166.906 24.8309C166.745 25.8061 166.584 26.7812 166.424 27.7564C166.263 28.7316 166.056 29.6397 165.803 30.4806C165.551 31.3215 165.262 32.1674 164.938 33.0181C164.613 33.8688 164.413 34.5559 164.337 35.0795C163.914 36.8236 163.414 38.5415 162.837 40.2331C162.322 41.843 161.894 43.5511 161.552 45.3574C161.201 47.0918 160.829 48.939 160.435 50.8991C160.103 52.7775 159.545 54.6131 158.762 56.4061C158.356 57.1946 158.092 58.2204 157.97 59.4836C157.848 60.7468 157.721 61.974 157.589 63.1652C157.261 64.5297 156.954 65.7814 156.669 66.9201C156.456 68.0491 156.368 68.7576 156.407 69.0456C156.118 70.6981 155.937 72.336 155.864 73.9593C155.782 75.5105 155.494 76.9061 155.003 78.1462C155.077 79.2361 154.851 80.0001 154.324 80.4383C153.869 80.8668 152.98 80.804 151.658 80.2501ZM177.707 78.4747C176.535 78.487 175.642 78.3883 175.027 78.1785C174.402 77.8966 173.219 77.2871 171.479 76.35C170.497 75.6032 169.128 74.4324 167.372 72.8374C165.616 71.2425 163.844 69.5395 162.059 67.7286C160.263 65.8456 158.764 64.2525 157.56 62.9492L161.182 56.4076C162.275 57.4327 163.177 58.4102 163.89 59.3401C164.603 60.27 165.164 60.8905 165.573 61.2017C167.561 63.4251 169.126 65.2294 170.267 66.6145C171.481 67.9898 172.547 69.0918 173.466 69.9203C174.385 70.7489 175.326 71.4646 176.287 72.0674C177.321 72.6604 178.576 73.2601 180.052 73.8665C180.287 73.9812 180.533 74.1679 180.788 74.4266C181.043 74.6853 181.173 75.1076 181.18 75.6934C180.999 76.5246 180.743 77.0726 180.413 77.3375C180.144 77.5206 179.242 77.8997 177.707 78.4747ZM157.075 61.8051C156.477 60.6396 156.454 59.3959 157.008 58.0741C157.625 56.6705 158.366 55.6531 159.234 55.022C159.454 54.4789 159.698 54.1158 159.966 53.9327C160.297 53.6678 160.479 53.3864 160.512 53.0886C160.617 52.7811 160.923 52.3362 161.431 51.7539C162.01 51.1619 162.523 50.6157 162.968 50.1153C164.023 49.2388 165.201 48.1988 166.505 46.9953C167.87 45.71 169.164 44.4344 170.385 43.1686C171.607 41.9028 172.632 40.8104 173.46 39.8913C174.361 38.9624 174.905 38.3753 175.091 38.1299C175.268 37.8126 175.532 37.5935 175.882 37.4726C176.295 37.27 176.844 37.2687 177.532 37.4687C178.425 37.5675 179.05 37.8493 179.406 38.3143C179.753 38.7072 180.014 39.5518 180.19 40.8479C180.514 41.6106 180.307 42.5187 179.57 43.5721C178.895 44.5436 177.803 45.6819 176.293 46.9867C175.766 47.425 175.047 48.0725 174.137 48.9294C173.299 49.7765 172.564 50.5729 171.931 51.3187C171.466 51.6752 170.779 52.2818 169.868 53.1387C169.02 53.9138 168.28 54.6743 167.648 55.4201C167.121 55.8583 166.453 56.6089 165.644 57.6721C164.825 58.6632 163.977 59.4383 163.099 59.9974C161.088 62.4703 159.733 63.8277 159.032 64.0694C158.332 64.3111 157.679 63.5564 157.075 61.8051ZM198.217 72.171C196.744 72.6643 195.787 72.9042 195.345 72.8909C194.965 72.7957 194.331 72.4419 193.441 71.8293C192.211 71.4096 191.141 70.8215 190.231 70.0649C189.394 69.2986 188.732 68.4718 188.245 67.5846C187.82 66.6156 187.599 65.8021 187.584 65.1443C187.458 62.5948 187.703 59.8114 188.32 56.7944C188.937 53.7773 189.785 50.8389 190.864 47.9792C191.942 45.1195 193.183 42.6412 194.585 40.5442C196.049 38.3655 197.534 36.8806 199.04 36.0896C200.402 35.3181 201.741 34.9164 203.057 34.8845C204.372 34.8526 205.401 35.4096 206.143 36.5555C207.507 38.4971 207.436 39.8634 205.93 40.6545C205.714 40.6838 205.476 40.826 205.218 41.0811C204.949 41.2642 204.834 41.4998 204.873 41.7878C205.181 41.8927 205.978 41.8212 207.264 41.5733C208.541 41.2534 209.808 40.8615 211.065 40.3975C212.384 39.8518 213.235 39.3696 213.618 38.951C214.021 38.6763 214.33 38.5243 214.546 38.495C214.762 38.4657 215.312 38.4644 216.196 38.4911C217.469 38.685 218.14 39.034 218.208 39.538C218.247 39.8261 218.394 40.0994 218.649 40.3581C218.895 40.5448 219.161 40.6186 219.449 40.5795C219.963 40.5831 219.935 40.9169 219.365 41.5809C218.867 42.2352 217.967 43.1641 216.664 44.3676C215.413 45.4174 214.627 46.1107 214.306 46.4476C214.047 46.7027 214.08 47.2116 214.403 47.9744C215.165 49.2643 215.416 50.8436 215.156 52.7122C214.896 54.5807 214.245 56.5391 213.203 58.5871C212.161 60.6352 210.817 62.6144 209.169 64.5246C207.584 66.3531 205.826 67.9851 203.894 69.4206C202.024 70.7743 200.132 71.6912 198.217 72.171ZM195.736 67.6678C196.024 67.6287 196.509 67.4163 197.189 67.0305C197.861 66.5728 198.398 66.2066 198.8 65.9319C199.049 65.6048 199.365 65.2319 199.749 64.8132C200.194 64.3128 200.556 64.007 200.834 63.8959C201.122 63.8568 201.467 63.7 201.87 63.4253C202.263 63.0786 202.802 62.4555 203.486 61.5559C204.161 60.5844 205.034 59.1825 206.106 57.3505C207.331 55.5709 208.251 53.9793 208.868 52.5757C209.474 51.1 209.519 49.8106 209.003 48.7074C208.891 48.4291 208.651 48.2784 208.281 48.2553C207.983 48.2224 207.563 48.0961 207.02 47.8765C206.3 47.9742 205.591 47.887 204.894 47.6149C204.26 47.2611 203.502 46.8139 202.622 46.2733L200.601 44.3477L199.014 46.4331C198.018 47.7415 197.029 49.6358 196.045 52.1159C195.124 54.5143 194.393 56.9602 193.851 59.4537C193.3 61.8752 193.045 63.7797 193.087 65.1674C193.161 66.2573 193.439 66.9529 193.92 67.2543C194.401 67.5557 195.006 67.6935 195.736 67.6678Z" fill="#E3B730" fill-opacity="0.58"/>
</svg>
