<svg width="1440" height="236" viewBox="0 0 1440 236" fill="none" xmlns="http://www.w3.org/2000/svg">
<path d="M525.422 64.3971C535.681 46.6738 549.637 32.5817 567.257 22.1209C584.844 11.6269 603.93 6.39648 624.481 6.39648C645.033 6.39648 664.119 11.6269 681.706 22.1209C699.292 32.615 713.349 46.7071 723.841 64.3971C734.333 82.1204 739.562 101.143 739.562 121.498C739.562 141.853 734.333 161.409 723.841 178.899C713.349 196.389 699.326 210.315 681.706 220.576C664.085 230.87 645.033 236 624.481 236C603.93 236 584.578 230.87 567.091 220.576C549.571 210.315 535.681 196.423 525.422 178.899C515.129 161.409 510 142.253 510 121.498C510 100.743 515.129 82.1204 525.422 64.3971ZM565.092 157.544C571.288 168.538 579.748 177.233 590.44 183.663C601.132 190.059 612.99 193.291 626.014 193.291C639.037 193.291 650.129 190.093 660.521 183.663C670.914 177.233 679.041 168.605 684.936 157.711C690.832 146.817 693.796 134.757 693.796 121.531C693.796 108.306 690.732 95.8793 684.637 84.8855C678.541 73.8917 670.247 65.1966 659.755 58.7669C649.263 52.3705 637.638 49.139 624.815 49.139C611.991 49.139 600.333 52.3372 589.874 58.7669C579.382 65.1633 571.088 73.8917 564.992 84.8855C558.897 95.8793 555.833 108.072 555.833 121.531C555.833 134.991 558.93 146.551 565.159 157.544H565.092Z" fill="#F7F7F7"/>
<path d="M972.787 233.568H928.52V142.286H828.095V233.568H783.828V8.82812H828.095V99.5103H928.52V8.82812H972.787V233.568Z" fill="#F7F7F7"/>
<path d="M1141.89 189.593H1067.42L1049.1 233.568H1005.43L1106.79 0H1109.22L1210.58 233.568H1159.28L1141.89 189.593ZM1127.24 152.347L1105.56 97.6782L1082.97 152.347H1127.24Z" fill="#F7F7F7"/>
<path d="M1286.92 100.143L1293.65 91.5815L1366.93 8.82824H1424.32L1331.52 109.571L1424.62 233.535H1368.46L1299.18 137.655L1288.19 148.649V233.535H1243.32V8.79492H1288.19V88.7831L1286.95 100.077L1286.92 100.143Z" fill="#F7F7F7"/>
<path d="M4.92117 100.143L11.6496 91.5815L84.9283 8.82824H142.319L49.5213 109.571L142.619 233.535H86.4605L17.1788 137.655L6.18691 148.649V233.535H-38.6797V8.79492H6.18691V88.7831L4.95451 100.077L4.92117 100.143Z" fill="#F7F7F7"/>
<path d="M177.859 64.3971C188.118 46.6738 202.075 32.5817 219.695 22.1209C237.282 11.6269 256.368 6.39648 276.919 6.39648C297.47 6.39648 316.556 11.6269 334.143 22.1209C351.73 32.615 365.786 46.7071 376.278 64.3971C386.771 82.1204 392 101.143 392 121.498C392 141.853 386.771 161.409 376.278 178.899C365.786 196.389 351.763 210.315 334.143 220.576C316.523 230.87 297.47 236 276.919 236C256.368 236 237.015 230.87 219.528 220.576C202.008 210.315 188.118 196.423 177.859 178.899C167.567 161.409 162.438 142.253 162.438 121.498C162.438 100.743 167.567 82.1204 177.859 64.3971ZM217.53 157.544C223.725 168.538 232.186 177.233 242.878 183.663C253.57 190.059 265.428 193.291 278.451 193.291C291.475 193.291 302.566 190.093 312.959 183.663C323.351 177.233 331.478 168.605 337.374 157.711C343.269 146.817 346.234 134.757 346.234 121.531C346.234 108.306 343.17 95.8793 337.074 84.8855C330.979 73.8917 322.685 65.1966 312.193 58.7669C301.7 52.3705 290.076 49.139 277.252 49.139C264.428 49.139 252.77 52.3372 242.311 58.7669C231.819 65.1633 223.525 73.8917 217.43 84.8855C211.334 95.8793 208.27 108.072 208.27 121.531C208.27 134.991 211.368 146.551 217.596 157.544H217.53Z" fill="#F7F7F7"/>
</svg>
