<svg width="1164" height="236" viewBox="0 0 1164 236" fill="none" xmlns="http://www.w3.org/2000/svg">
<path d="M15.4218 64.3971C25.6808 46.6738 39.6372 32.5817 57.2574 22.1209C74.8443 11.6269 93.93 6.39648 114.481 6.39648C135.033 6.39648 154.119 11.6269 171.706 22.1209C189.292 32.615 203.349 46.7071 213.841 64.3971C224.333 82.1204 229.562 101.143 229.562 121.498C229.562 141.853 224.333 161.409 213.841 178.899C203.349 196.389 189.326 210.315 171.706 220.576C154.085 230.87 135.033 236 114.481 236C93.93 236 74.5778 230.87 57.0908 220.576C39.5705 210.315 25.6808 196.422 15.4218 178.899C5.12948 161.409 0 142.253 0 121.498C0 100.743 5.12948 82.1204 15.4218 64.3971ZM55.0923 157.544C61.2877 168.538 69.7481 177.233 80.4401 183.663C91.1321 190.059 102.99 193.291 116.014 193.291C129.037 193.291 140.129 190.093 150.521 183.663C160.914 177.233 169.041 168.605 174.936 157.711C180.832 146.817 183.796 134.757 183.796 121.531C183.796 108.306 180.732 95.8793 174.637 84.8855C168.541 73.8917 160.247 65.1966 149.755 58.7669C139.263 52.3705 127.638 49.139 114.815 49.139C101.991 49.139 90.3327 52.3372 79.8739 58.7669C69.3817 65.1633 61.0878 73.8917 54.9924 84.8855C48.8969 95.8793 45.8325 108.072 45.8325 121.531C45.8325 134.991 48.9302 146.551 55.1589 157.544H55.0923Z" fill="#F7F7F7"/>
<path d="M462.787 233.568H418.52V142.286H318.095V233.568H273.828V8.82812H318.095V99.5103H418.52V8.82812H462.787V233.568Z" fill="#F7F7F7"/>
<path d="M631.895 189.593H557.417L539.097 233.568H495.43L596.788 0H599.219L700.577 233.568H649.282L631.895 189.593ZM617.239 152.347L595.555 97.6782L572.972 152.347H617.239Z" fill="#F7F7F7"/>
<path d="M776.921 100.143L783.65 91.5815L856.928 8.82824H914.319L821.521 109.571L914.619 233.535H858.461L789.179 137.655L778.187 148.649V233.535H733.32V8.79492H778.187V88.7831L776.955 100.077L776.921 100.143Z" fill="#F7F7F7"/>
<path d="M949.859 64.3971C960.118 46.6738 974.075 32.5817 991.695 22.1209C1009.28 11.6269 1028.37 6.39648 1048.92 6.39648C1069.47 6.39648 1088.56 11.6269 1106.14 22.1209C1123.73 32.615 1137.79 46.7071 1148.28 64.3971C1158.77 82.1204 1164 101.143 1164 121.498C1164 141.853 1158.77 161.409 1148.28 178.899C1137.79 196.389 1123.76 210.315 1106.14 220.576C1088.52 230.87 1069.47 236 1048.92 236C1028.37 236 1009.02 230.87 991.528 220.576C974.008 210.315 960.118 196.423 949.859 178.899C939.567 161.409 934.438 142.253 934.438 121.498C934.438 100.743 939.567 82.1204 949.859 64.3971ZM989.53 157.544C995.725 168.538 1004.19 177.233 1014.88 183.663C1025.57 190.059 1037.43 193.291 1050.45 193.291C1063.47 193.291 1074.57 190.093 1084.96 183.663C1095.35 177.233 1103.48 168.605 1109.37 157.711C1115.27 146.817 1118.23 134.757 1118.23 121.531C1118.23 108.306 1115.17 95.8793 1109.07 84.8855C1102.98 73.8917 1094.68 65.1966 1084.19 58.7669C1073.7 52.3705 1062.08 49.139 1049.25 49.139C1036.43 49.139 1024.77 52.3372 1014.31 58.7669C1003.82 65.1633 995.525 73.8917 989.43 84.8855C983.334 95.8793 980.27 108.072 980.27 121.531C980.27 134.991 983.368 146.551 989.596 157.544H989.53Z" fill="#F7F7F7"/>
</svg>
